<?xml version="1.0" encoding="utf-8"?>
<svg height="512px" viewBox="0 0 136 136" width="512px" xmlns="http://www.w3.org/2000/svg"><circle cx="67.73333248" cy="68.26667248" fill="#212121" r="57.14999928" stroke-width=".26458333"/><g fill="#fff"><g transform="matrix(.26458333 0 0 .26458333 0 .53334)"><path d="m256 0c-141.4 0-256 114.6-256 256s114.6 256 256 256 256-114.6 256-256-114.6-256-256-256zm0 472c-119.3 0-216-96.7-216-216s96.7-216 216-216 216 96.7 216 216-96.7 216-216 216z"/><path d="m171.12857 196.91428h-61.7v-25h19.3c6.9 0 13.4-1.2 19.5-3.6 6.2-2.4 11.4-5.6 15.8-9.8s7.9-9.3 10.5-15.2c2.7-5.9 4-12.5 4-19.6h26.9v256h-34.3z"/></g><path d="m-434.88666 153.80467c-26.49698-1.00339-46.84899 9.57806-61.16154 31.59923-14.22058 22.1027-22.0668 52.56161-23.53371 91.29984-1.62482 42.90726 3.83565 75.44919 16.36993 97.87756 12.63398 22.30605 32.14207 34.03666 58.63805 35.04002 26.51301 1.00398 46.94432-9.21419 61.12015-30.50599 14.21155-21.41458 22.13249-53.45081 23.75726-96.35705 3.17925-83.95582-21.94629-126.93738-75.19014-128.95361zm28.538 203.94498c-8.07145 16.19015-20.52501 23.81838-37.13812 23.18927-16.67603-.63149-28.37613-9.17436-35.30997-25.93275-6.88684-16.7566-9.62104-42.41044-8.30846-77.07259 1.30139-34.36637 5.93888-58.9735 14.02951-74.00612 8.13427-14.96891 20.43078-22.14874 37.10681-21.51726 16.61312.62911 28.47125 8.72462 35.34128 24.26073 6.96156 15.60259 9.7557 40.49217 8.45437 74.85754-1.31259 34.66214-6.01003 60.03357-14.17542 76.22118z" transform="matrix(.26458333 0 0 .26458333 201.46132 -7.78213)"/></g></svg>