<?xml version="1.0" encoding="utf-8"?>
<svg height="512px" viewBox="0 0 136 136" width="512px" xmlns="http://www.w3.org/2000/svg"><g transform="translate(0 -161)"><circle cx="67.73333248" cy="229.26667248" fill="#212121" r="57.14999928" stroke-width=".26458333"/><g fill="#fff"><g transform="matrix(.26458333 0 0 .26458333 0 161.53334)"><path d="m256 0c-141.4 0-256 114.6-256 256s114.6 256 256 256 256-114.6 256-256-114.6-256-256-256zm0 472c-119.3 0-216-96.7-216-216s96.7-216 216-216 216 96.7 216 216-96.7 216-216 216z"/><path d="m181.12857 196.91428h-61.7v-25h19.3c6.9 0 13.4-1.2 19.5-3.6 6.2-2.4 11.4-5.6 15.8-9.8s7.9-9.3 10.5-15.2c2.7-5.9 4-12.5 4-19.6h26.9v256h-34.3z"/></g><path d="m86.023601 213.70917h-16.324792v-6.61458h5.106458c1.825625 0 3.545417-.3175 5.159375-.9525 1.640417-.635 3.01625-1.48167 4.180417-2.59292s2.090208-2.46063 2.778125-4.02167c.714375-1.56104 1.058333-3.30729 1.058333-5.18583h7.117292v67.73333h-9.075208z" stroke-width=".264583"/></g></g></svg>