<svg xmlns="http://www.w3.org/2000/svg" width="622.58" height="180.31" viewBox="0 0 622.58 180.31"><defs><style>.cls-1{fill:#fff;}</style></defs><title>Asset 15</title><g id="Layer_2" data-name="Layer 2"><g id="Layer_1-2" data-name="Layer 1"><path class="cls-1" d="M0,1.15H17.64c9.22,0,17.21,6,17.21,15.7a13.8,13.8,0,0,1-5.26,11.38,14.11,14.11,0,0,1,5.26,11.23c0,9.72-8,15.7-17.21,15.7H0Zm17.86,9H9.5V23.62h8.36c4.1,0,7.49-2.31,7.49-6.77S22,10.15,17.86,10.15Zm0,22.47H9.5V46.16h8.36c4.1,0,7.49-2.24,7.49-6.7S22,32.62,17.86,32.62Z"/><path class="cls-1" d="M49.82,32.62V55.16h-9.5v-54h22c9.22,0,17.21,6,17.21,15.7a14.88,14.88,0,0,1-5.69,11.66c3.1,2.45,5.62,5.91,6.41,13.4.29,2.66.79,6.69,2.09,13.25H72.51c-1.16-6.41-1.66-11.09-1.88-13-.57-5.47-2.66-9.5-8.28-9.5ZM62.57,10.15H49.82V23.62H62.57c4.1,0,7.49-2.31,7.49-6.77S66.67,10.15,62.57,10.15Z"/><path class="cls-1" d="M86,1.15h9.5v54H86Z"/><path class="cls-1" d="M131,1.15h9.36v54H130.18L110.3,18.79V55.16h-9.36v-54h10.3L131,37.59Z"/><path class="cls-1" d="M145.15,28.15A27.92,27.92,0,0,1,173.3,0a27.48,27.48,0,0,1,22.61,11.45l-6.62,6.62a17.78,17.78,0,0,0-16-9.21c-10.87,0-19.08,8.42-19.08,19.29h44.43v27h-9.43V51.05a27.54,27.54,0,0,1-15.92,5.26A27.92,27.92,0,0,1,145.15,28.15Zm44.28,10.08V37H156.24A18.59,18.59,0,0,0,173.3,47.38C180.51,47.38,186.77,43.92,189.43,38.23Z"/><path class="cls-1" d="M204.12,1.15h9.5v54h-9.5Z"/><path class="cls-1" d="M249.19,1.15h9.36v54H248.33L228.45,18.79V55.16h-9.36v-54h10.3l19.8,36.44Z"/><path class="cls-1" d="M263.3,28.15A27.92,27.92,0,0,1,291.46,0a27.5,27.5,0,0,1,22.61,11.45l-6.63,6.62a17.78,17.78,0,0,0-16-9.21,18.85,18.85,0,0,0-19.09,19.29H316.8v27h-9.43V51.05a27.54,27.54,0,0,1-15.91,5.26A27.92,27.92,0,0,1,263.3,28.15Zm44.29,10.08V37h-33.2a18.6,18.6,0,0,0,17.07,10.37C298.66,47.38,304.92,43.92,307.59,38.23Z"/><path class="cls-1" d="M340.27,1.15h38v9H364v45h-9.5v-45H340.27Z"/><path class="cls-1" d="M412.27,1.15h9.51v54h-9.51V32.62h-19V55.16h-9.5v-54h9.5V23.62h19Z"/><path class="cls-1" d="M427.24,1.15h33.7v9H436.75V23.62h24.19v9H436.75V46.16h24.19v9h-33.7Z"/><path class="cls-1" d="M0,63.15H17.64c9.22,0,17.21,6,17.21,15.7a13.8,13.8,0,0,1-5.26,11.38,14.11,14.11,0,0,1,5.26,11.23c0,9.72-8,15.7-17.21,15.7H0Zm17.86,9H9.5V85.62h8.36c4.1,0,7.49-2.31,7.49-6.77S22,72.15,17.86,72.15Zm0,22.47H9.5v13.54h8.36c4.1,0,7.49-2.24,7.49-6.7S22,94.62,17.86,94.62Z"/><path class="cls-1" d="M40.32,63.15H74v9H49.82V85.62H74v9H49.82v13.54H74v9H40.32Z"/><path class="cls-1" d="M79.49,63.15h33.7v9H89V85.62h24.2v9H89v13.54h24.2v9H79.49Z"/><path class="cls-1" d="M118.65,63.15h33.7v9H128.16V85.62h24.19v9H128.16v22.54h-9.51Z"/><path class="cls-1" d="M175.82,63.15h38v9H199.58v45h-9.5v-45H175.82Z"/><path class="cls-1" d="M228.81,94.62v22.54h-9.5v-54h22c9.22,0,17.21,6,17.21,15.7a14.88,14.88,0,0,1-5.69,11.66c3.1,2.45,5.62,5.91,6.41,13.4.29,2.66.8,6.69,2.09,13.25H251.5c-1.16-6.41-1.66-11.09-1.88-13-.57-5.47-2.66-9.5-8.28-9.5Zm12.75-22.47H228.81V85.62h12.75c4.1,0,7.49-2.31,7.49-6.77S245.66,72.15,241.56,72.15Z"/><path class="cls-1" d="M302.26,100c0,10.87-8.5,18.36-19,18.36s-19-7.49-19-18.36V63.15h9.5v36.94c0,5.54,4,9.36,9.51,9.36s9.5-3.82,9.5-9.36V63.15h9.51Z"/><path class="cls-1" d="M317.88,77.77c0,4,5,6.19,10.37,8.78,6.33,3.1,13.61,6.92,13.61,15.92,0,9.36-7,15.77-17,15.77-7.05,0-14.47-5.55-17.14-11.38l6.85-6.63c1.94,4.11,5.83,8.86,10.44,8.86,4,0,7.2-2.23,7.2-6.41,0-3.53-4.18-5.4-9.15-7.92-6.41-3.24-14.69-7.2-14.69-16.92,0-9,6.84-15.77,16.56-15.77,7.06,0,14.12,5.55,16.78,11.31L334.8,80c-2-4-5.4-8.86-10-8.86C320.9,71.14,317.88,73.66,317.88,77.77Z"/><path class="cls-1" d="M345.89,63.15h38v9H369.65v45h-9.51v-45H345.89Z"/><path class="cls-1" d="M445.39,100c0,10.87-8.49,18.36-19,18.36s-19-7.49-19-18.36V63.15h9.51v36.94c0,5.54,4,9.36,9.5,9.36s9.51-3.82,9.51-9.36V63.15h9.5Z"/><path class="cls-1" d="M481,63.15h9.36v54H480.1L460.22,80.79v36.37h-9.36v-54h10.3L481,99.59Z"/><path class="cls-1" d="M495.79,63.15h12.38c15.48,0,28.45,11.09,28.45,27s-13,27-28.45,27H495.79Zm12.6,45c11,.07,18.79-7.06,18.79-18s-7.77-18-18.79-18h-3.1v36Z"/><path class="cls-1" d="M541.36,63.15h33.7v9H550.87V85.62h24.19v9H550.87v13.54h24.19v9h-33.7Z"/><path class="cls-1" d="M590,94.62v22.54h-9.51v-54h22c9.22,0,17.21,6,17.21,15.7a14.9,14.9,0,0,1-5.68,11.66c3.09,2.45,5.61,5.91,6.4,13.4.29,2.66.8,6.69,2.09,13.25h-9.86c-1.15-6.41-1.66-11.09-1.87-13-.58-5.47-2.67-9.5-8.29-9.5Zm12.74-22.47H590V85.62h12.74c4.11,0,7.49-2.31,7.49-6.77S606.89,72.15,602.78,72.15Z"/><path class="cls-1" d="M44.14,162.23l6.62,6.63a27.9,27.9,0,0,1-22.61,11.45,28.16,28.16,0,0,1,0-56.31,27.48,27.48,0,0,1,22.61,11.45l-6.62,6.62a17.78,17.78,0,0,0-16-9.21c-10.87,0-19.08,8.42-19.08,19.29a18.79,18.79,0,0,0,19.08,19.23A17.71,17.71,0,0,0,44.14,162.23Z"/><path class="cls-1" d="M79.63,124a28.16,28.16,0,1,1-28.15,28.15A27.92,27.92,0,0,1,79.63,124Zm0,47.38a19.26,19.26,0,1,0-19.15-19.23A19,19,0,0,0,79.63,171.38Z"/><path class="cls-1" d="M141.48,125.15h9.36v54H140.62l-19.88-36.37v36.37h-9.36v-54h10.3l19.8,36.44Z"/><path class="cls-1" d="M156.31,125.15h38v9H180.07v45h-9.5v-45H156.31Z"/><path class="cls-1" d="M209.3,156.62v22.54h-9.5v-54h22c9.22,0,17.21,6,17.21,15.7a14.88,14.88,0,0,1-5.69,11.66c3.1,2.45,5.62,5.91,6.41,13.4.29,2.66.79,6.69,2.09,13.25H232c-1.16-6.41-1.66-11.09-1.88-13-.57-5.47-2.66-9.5-8.28-9.5Zm12.75-22.47H209.3v13.47h12.75c4.1,0,7.49-2.31,7.49-6.77S226.15,134.15,222.05,134.15Z"/><path class="cls-1" d="M271.44,124a28.16,28.16,0,1,1-28.15,28.15A27.92,27.92,0,0,1,271.44,124Zm0,47.38a19.26,19.26,0,1,0-19.15-19.23A19,19,0,0,0,271.44,171.38Z"/><path class="cls-1" d="M303.19,125.15h9.51v43.21l25.05-15.85v10.66l-25.05,16h-9.51Z"/></g></g></svg>