<svg xmlns="http://www.w3.org/2000/svg" width="609.61" height="148.02" viewBox="0 0 609.61 148.02">
    <defs>
        <style>
            .cls-1 {
                fill: #fff;
            }
        </style>
    </defs>
    <title>Asset 19</title>
    <g id="Layer_2" data-name="Layer 2">
        <g id="Layer_1-2" data-name="Layer 1">
            <path class="cls-1" d="M1.14,1.15h33.7v9H10.65V23.62H34.84v9H10.65V46.16H34.84v9H1.14Z" />
            <path class="cls-1" d="M70.41,1.15h9.36v54H69.54L49.67,18.79V55.16H40.31v-54h10.3l19.8,36.44Z" />
            <path class="cls-1"
                d="M85.24,1.15H97.62c15.48,0,28.44,11.09,28.44,27s-13,27-28.44,27H85.24Zm12.6,45c11,.07,18.79-7.06,18.79-18s-7.77-18-18.79-18h-3.1v36Z" />
            <path class="cls-1" d="M151.55,46.16v9H124.62v-9l28.87-45h10.59v54h-9.51V16.27L135.71,46.16Z" />
            <path class="cls-1" d="M199.65,1.15H209v54H198.78L178.91,18.79V55.16h-9.36v-54h10.29l19.81,36.44Z" />
            <path class="cls-1"
                d="M213.76,28.15A27.92,27.92,0,0,1,241.91,0a27.49,27.49,0,0,1,22.61,11.45l-6.62,6.62a17.79,17.79,0,0,0-16-9.21c-10.87,0-19.08,8.42-19.08,19.29h44.43v27h-9.44V51.05a27.51,27.51,0,0,1-15.91,5.26A27.92,27.92,0,0,1,213.76,28.15ZM258,38.23V37h-33.2a18.61,18.61,0,0,0,17.07,10.37C249.11,47.38,255.38,43.92,258,38.23Z" />
            <path class="cls-1" d="M272.72,1.15h33.7v9H282.23V23.62h24.19v9H282.23V46.16h24.19v9h-33.7Z" />
            <path class="cls-1"
                d="M321.4,32.62V55.16h-9.51v-54h22c9.21,0,17.2,6,17.2,15.7a14.9,14.9,0,0,1-5.68,11.66c3.09,2.45,5.61,5.91,6.4,13.4.29,2.66.8,6.69,2.09,13.25h-9.86c-1.15-6.41-1.66-11.09-1.87-13-.58-5.47-2.67-9.5-8.28-9.5Zm12.74-22.47H321.4V23.62h12.74c4.11,0,7.49-2.31,7.49-6.77S338.25,10.15,334.14,10.15Z" />
            <path class="cls-1" d="M356.82,1.15h9.5v54h-9.5Z" />
            <path class="cls-1" d="M401.89,1.15h9.36v54H401L381.16,18.79V55.16h-9.37v-54h10.3l19.8,36.44Z" />
            <path class="cls-1"
                d="M416,28.15A27.92,27.92,0,0,1,444.16,0a27.5,27.5,0,0,1,22.61,11.45l-6.63,6.62a17.78,17.78,0,0,0-16-9.21c-10.88,0-19.08,8.42-19.08,19.29H469.5v27h-9.43V51.05a27.54,27.54,0,0,1-15.91,5.26A27.92,27.92,0,0,1,416,28.15Zm44.29,10.08V37h-33.2a18.6,18.6,0,0,0,17.07,10.37C451.36,47.38,457.62,43.92,460.29,38.23Z" />
            <path class="cls-1" d="M1.14,63.15h38v9H24.9v45H15.4v-45H1.14Z" />
            <path class="cls-1" d="M73.14,63.15h9.51v54H73.14V94.62h-19v22.54h-9.5v-54h9.5V85.62h19Z" />
            <path class="cls-1" d="M88.12,63.15h33.7v9H97.62V85.62h24.2v9H97.62v13.54h24.2v9H88.12Z" />
            <path class="cls-1" d="M145.28,63.15H179v9H154.79V85.62H179v9H154.79v13.54H179v9h-33.7Z" />
            <path class="cls-1" d="M214.55,63.15h9.36v54H213.69L193.81,80.79v36.37h-9.36v-54h10.3l19.8,36.44Z" />
            <path class="cls-1" d="M227.51,63.15h10l11.59,40.18,11.66-40.18h10l-16.7,54h-9.94Z" />
            <path class="cls-1" d="M274.38,63.15h9.5v54h-9.5Z" />
            <path class="cls-1"
                d="M298.86,94.62v22.54h-9.51v-54h22c9.22,0,17.21,6,17.21,15.7a14.91,14.91,0,0,1-5.69,11.66c3.1,2.45,5.62,5.91,6.41,13.4.29,2.66.79,6.69,2.09,13.25h-9.87c-1.15-6.41-1.65-11.09-1.87-13-.58-5.47-2.66-9.5-8.28-9.5ZM311.6,72.15H298.86V85.62H311.6c4.11,0,7.49-2.31,7.49-6.77S315.71,72.15,311.6,72.15Z" />
            <path class="cls-1"
                d="M361,62a28.16,28.16,0,1,1-28.16,28.15A27.92,27.92,0,0,1,361,62Zm0,47.38a19.26,19.26,0,1,0-19.16-19.23A19,19,0,0,0,361,109.38Z" />
            <path class="cls-1" d="M422.85,63.15h9.36v54H422L402.11,80.79v36.37h-9.36v-54H403l19.81,36.44Z" />
            <path class="cls-1"
                d="M459.85,96.06l6.77-32.91H482v54h-9.29V77.41l-8.85,39.75h-8.07L447,77.41v39.75h-9.29v-54h15.41Z" />
            <path class="cls-1" d="M487.5,63.15h33.7v9H497V85.62h24.2v9H497v13.54h24.2v9H487.5Z" />
            <path class="cls-1" d="M556.77,63.15h9.36v54H555.9L536,80.79v36.37h-9.36v-54H537l19.81,36.44Z" />
            <path class="cls-1" d="M571.59,63.15h38v9H595.36v45h-9.51v-45H571.59Z" />
            
        </g>
    </g>
</svg>