<svg xmlns="http://www.w3.org/2000/svg" width="446.47" height="56.31" viewBox="0 0 446.47 56.31"><defs><style>.cls-1{fill:#fff;}</style></defs><title>Asset 18</title><g id="Layer_2" data-name="Layer 2"><g id="Layer_1-2" data-name="Layer 1"><path class="cls-1" d="M25,18.94,10.44,55.16H0l22.61-54H33.92V35.43L47.16,1.15H58.69v54H49.4V19L35.14,55.16H25Z"/><path class="cls-1" d="M102.17,38c0,10.87-8.5,18.36-19,18.36s-19-7.49-19-18.36V1.15h9.51V38.09c0,5.55,4,9.36,9.5,9.36s9.51-3.81,9.51-9.36V1.15h9.5Z"/><path class="cls-1" d="M149.91,38.24l6.62,6.62a28.12,28.12,0,0,1-50.76-16.7A27.92,27.92,0,0,1,133.92,0a27.49,27.49,0,0,1,22.61,11.45l-6.62,6.62a17.79,17.79,0,0,0-16-9.21c-10.87,0-19.08,8.42-19.08,19.3a18.79,18.79,0,0,0,19.08,19.22A17.73,17.73,0,0,0,149.91,38.24Z"/><path class="cls-1" d="M196.56,0V11.59L173.81,28.08l22.75,16.64V56.31L169.63,35.79V55.16h-9.5v-54h9.5V20.52Z"/><path class="cls-1" d="M211.53,32.62V55.16H202v-54h22c9.22,0,17.21,6,17.21,15.7a14.88,14.88,0,0,1-5.69,11.66c3.1,2.45,5.62,5.91,6.41,13.4.29,2.66.8,6.69,2.09,13.25h-9.86c-1.16-6.41-1.66-11.09-1.88-13-.57-5.47-2.66-9.5-8.28-9.5Zm12.75-22.47H211.53V23.62h12.75c4.1,0,7.49-2.31,7.49-6.77S228.38,10.15,224.28,10.15Z"/><path class="cls-1" d="M273.89,46.16v9H247v-9l28.87-45h10.59v54h-9.51V16.27L258.05,46.16Z"/><path class="cls-1" d="M328.32,0V11.59L305.57,28.08l22.75,16.64V56.31L301.39,35.79V55.16h-9.51v-54h9.51V20.52Z"/><path class="cls-1" d="M333.79,1.15h9.5v54h-9.5Z"/><path class="cls-1" d="M378.86,1.15h9.36v54H378L358.13,18.79V55.16h-9.37v-54h10.3l19.8,36.44Z"/><path class="cls-1" d="M393,28.16A27.92,27.92,0,0,1,421.13,0a27.5,27.5,0,0,1,22.61,11.45l-6.63,6.62a17.78,17.78,0,0,0-16-9.21c-10.88,0-19.08,8.42-19.08,19.3h44.42v27H437V51.05a27.54,27.54,0,0,1-15.91,5.26A27.92,27.92,0,0,1,393,28.16Zm44.29,10.08V37h-33.2a18.6,18.6,0,0,0,17.07,10.37C428.33,47.38,434.59,43.92,437.26,38.24Z"/></g></g></svg>