<svg xmlns="http://www.w3.org/2000/svg" width="394.63" height="56.31" viewBox="0 0 394.63 56.31"><defs><style>.cls-1{fill:#ff5d24;}</style></defs><title>Asset 24</title><g id="Layer_2" data-name="Layer 2"><g id="Layer_1-2" data-name="Layer 1"><path class="cls-1" d="M26.93,46.16v9H0v-9l28.87-45H39.46v54H30V16.27L11.09,46.16Z"/><path class="cls-1" d="M44.93,1.15H62.57c9.22,0,17.21,6,17.21,15.7a13.83,13.83,0,0,1-5.26,11.38,14.13,14.13,0,0,1,5.26,11.23c0,9.72-8,15.7-17.21,15.7H44.93Zm17.86,9H54.43V23.62h8.36c4.1,0,7.48-2.31,7.48-6.77S66.89,10.15,62.79,10.15Zm0,22.47H54.43V46.16h8.36c4.1,0,7.48-2.24,7.48-6.7S66.89,32.62,62.79,32.62Z"/><path class="cls-1" d="M111.53,0a27.92,27.92,0,0,1,28.15,28.16,28.15,28.15,0,0,1-56.3,0A27.92,27.92,0,0,1,111.53,0Zm0,47.38a19,19,0,0,0,19.23-19.22,19.19,19.19,0,1,0-38.38,0A19,19,0,0,0,111.53,47.38Z"/><path class="cls-1" d="M152.78,32.62V55.16h-9.5v-54h22c9.22,0,17.21,6,17.21,15.7a14.88,14.88,0,0,1-5.69,11.66c3.1,2.45,5.62,5.91,6.41,13.4.29,2.66.79,6.69,2.09,13.25h-9.86c-1.16-6.41-1.66-11.09-1.88-13-.57-5.47-2.66-9.5-8.28-9.5Zm12.75-22.47H152.78V23.62h12.75c4.1,0,7.49-2.31,7.49-6.77S169.63,10.15,165.53,10.15Z"/><path class="cls-1" d="M188.21,1.15h9.5v54h-9.5Z"/><path class="cls-1" d="M202.46,28.16A27.92,27.92,0,0,1,230.62,0a27.5,27.5,0,0,1,22.61,11.45l-6.63,6.62a17.78,17.78,0,0,0-16-9.21c-10.88,0-19.08,8.42-19.08,19.3H256v27h-9.43V51.05a27.54,27.54,0,0,1-15.91,5.26A27.92,27.92,0,0,1,202.46,28.16Zm44.29,10.08V37h-33.2a18.6,18.6,0,0,0,17.07,10.37C237.82,47.38,244.08,43.92,246.75,38.24Z"/><path class="cls-1" d="M261.43,1.15h9.5v54h-9.5Z"/><path class="cls-1" d="M306.5,1.15h9.36v54H305.64L285.77,18.79V55.16h-9.36v-54H286.7l19.8,36.44Z"/><path class="cls-1" d="M321.33,1.15H355v9H330.84V23.62H355v9H330.84V46.16H355v9h-33.7Z"/><path class="cls-1" d="M370.65,15.77c0,4,5,6.19,10.37,8.78,6.34,3.1,13.61,6.92,13.61,15.92,0,9.36-7,15.77-17,15.77-7.06,0-14.47-5.55-17.14-11.38l6.84-6.62c2,4.1,5.83,8.85,10.44,8.85,4,0,7.2-2.23,7.2-6.41,0-3.52-4.17-5.4-9.14-7.92-6.41-3.24-14.69-7.2-14.69-16.92,0-9,6.84-15.77,16.56-15.77,7.06,0,14.11,5.55,16.78,11.31L387.58,18c-2-4-5.41-8.85-10-8.85C373.68,9.15,370.65,11.67,370.65,15.77Z"/></g></g></svg>