<svg xmlns="http://www.w3.org/2000/svg" width="465.61" height="146.87" viewBox="0 0 465.61 146.87">
    <defs>
        <style>
            .cls-1 {
                fill: #ff5d24;
            }
        </style>
    </defs>
    <title>Asset 22</title>
    <g id="Layer_2" data-name="Layer 2">
        <g id="Layer_1-2" data-name="Layer 1">
            <path class="cls-1" d="M1.14,0h9.51V54H1.14Z" />
            <path class="cls-1"
                d="M38.29,32.91,45.06,0H60.47V54H51.18V14.26L42.33,54H34.26L25.41,14.26V54H16.12V0H31.53Z" />
            <path class="cls-1"
                d="M75.45,31.47V54H65.94V0H87.25c9.22,0,17.21,6,17.21,15.7s-8,15.77-17.21,15.77ZM87.47,9h-12V22.47h12C91.57,22.47,95,20,95,15.7S91.57,9,87.47,9Z" />
            <path class="cls-1" d="M108.06,0h33.7V9h-24.2V22.47h24.2v9h-24.2V45h24.2v9h-33.7Z" />
            <path class="cls-1"
                d="M156.73,31.47V54h-9.5V0h22c9.22,0,17.21,6,17.21,15.7a14.88,14.88,0,0,1-5.69,11.66c3.1,2.45,5.62,5.91,6.41,13.4.29,2.66.79,6.69,2.09,13.24h-9.86c-1.16-6.4-1.66-11.08-1.88-13-.57-5.47-2.66-9.5-8.28-9.5ZM169.48,9H156.73V22.47h12.75c4.1,0,7.49-2.31,7.49-6.77S173.58,9,169.48,9Z" />
            <path class="cls-1" d="M192.88,0h9.5V54h-9.5Z" />
            <path class="cls-1" d="M234.78,45v9H207.85V45L236.73,0h10.58V54h-9.5V15.12L218.94,45Z" />
            <path class="cls-1" d="M252.78,0h9.5V43.2l25.06-15.84V38L262.28,54h-9.5Z" />
            <path class="cls-1"
                d="M45.28,99.08l6.63,6.63A27.93,27.93,0,0,1,29.3,117.16a28.16,28.16,0,1,1,0-56.31A27.5,27.5,0,0,1,51.91,72.3l-6.63,6.62a17.78,17.78,0,0,0-16-9.21,19.26,19.26,0,0,0,0,38.52A17.71,17.71,0,0,0,45.28,99.08Z" />
            <path class="cls-1"
                d="M80.78,60.85A28.16,28.16,0,1,1,52.62,89,27.92,27.92,0,0,1,80.78,60.85Zm0,47.38A19.26,19.26,0,1,0,61.62,89,19,19,0,0,0,80.78,108.23Z" />
            <path class="cls-1"
                d="M134.7,94.91,141.47,62h15.41v54h-9.29V76.26L138.73,116h-8.06l-8.86-39.74V116h-9.29V62h15.41Z" />
            <path class="cls-1"
                d="M171.85,93.47V116h-9.5V62h21.31c9.22,0,17.21,6,17.21,15.7s-8,15.77-17.21,15.77Zm12-22.47h-12V84.47h12c4.1,0,7.49-2.45,7.49-6.77C191.37,73.23,188,71,183.88,71Z" />
            <path class="cls-1" d="M206.34,62H240v9h-24.2V84.47H240v9h-24.2V107H240v9h-33.7Z" />
            <path class="cls-1" d="M245.51,62h38v9H269.27v45h-9.51V71H245.51Z" />
            <path class="cls-1" d="M289,62h9.51v54H289Z" />
            <path class="cls-1" d="M304,62h38v9H327.73v45h-9.5V71H304Z" />
            <path class="cls-1" d="M347.46,62H357v54h-9.5Z" />
            <path class="cls-1"
                d="M390.59,60.85A28.16,28.16,0,1,1,362.43,89,27.92,27.92,0,0,1,390.59,60.85Zm0,47.38A19.26,19.26,0,1,0,371.43,89,19,19,0,0,0,390.59,108.23Z" />
            <path class="cls-1" d="M432.27,116h-9.93V62h9.29V87.78L439,62H449l16.63,54h-10L444,76Z" />
        </g>
    </g>
</svg>