<svg xmlns="http://www.w3.org/2000/svg" width="465.61" height="146.87" viewBox="0 0 465.61 146.87"><defs><style>.cls-1{fill:#ff5d24;}</style></defs><title>Asset 22</title><g id="Layer_2" data-name="Layer 2"><g id="Layer_1-2" data-name="Layer 1"><path class="cls-1" d="M1.14,0h9.51V54H1.14Z"/><path class="cls-1" d="M38.29,32.91,45.06,0H60.47V54H51.18V14.26L42.33,54H34.26L25.41,14.26V54H16.12V0H31.53Z"/><path class="cls-1" d="M75.45,31.47V54H65.94V0H87.25c9.22,0,17.21,6,17.21,15.7s-8,15.77-17.21,15.77ZM87.47,9h-12V22.47h12C91.57,22.47,95,20,95,15.7S91.57,9,87.47,9Z"/><path class="cls-1" d="M108.06,0h33.7V9h-24.2V22.47h24.2v9h-24.2V45h24.2v9h-33.7Z"/><path class="cls-1" d="M156.73,31.47V54h-9.5V0h22c9.22,0,17.21,6,17.21,15.7a14.88,14.88,0,0,1-5.69,11.66c3.1,2.45,5.62,5.91,6.41,13.4.29,2.66.79,6.69,2.09,13.24h-9.86c-1.16-6.4-1.66-11.08-1.88-13-.57-5.47-2.66-9.5-8.28-9.5ZM169.48,9H156.73V22.47h12.75c4.1,0,7.49-2.31,7.49-6.77S173.58,9,169.48,9Z"/><path class="cls-1" d="M192.88,0h9.5V54h-9.5Z"/><path class="cls-1" d="M234.78,45v9H207.85V45L236.73,0h10.58V54h-9.5V15.12L218.94,45Z"/><path class="cls-1" d="M252.78,0h9.5V43.2l25.06-15.84V38L262.28,54h-9.5Z"/><path class="cls-1" d="M45.28,99.08l6.63,6.63A27.93,27.93,0,0,1,29.3,117.16a28.16,28.16,0,1,1,0-56.31A27.5,27.5,0,0,1,51.91,72.3l-6.63,6.62a17.78,17.78,0,0,0-16-9.21,19.26,19.26,0,0,0,0,38.52A17.71,17.71,0,0,0,45.28,99.08Z"/><path class="cls-1" d="M80.78,60.85A28.16,28.16,0,1,1,52.62,89,27.92,27.92,0,0,1,80.78,60.85Zm0,47.38A19.26,19.26,0,1,0,61.62,89,19,19,0,0,0,80.78,108.23Z"/><path class="cls-1" d="M134.7,94.91,141.47,62h15.41v54h-9.29V76.26L138.73,116h-8.06l-8.86-39.74V116h-9.29V62h15.41Z"/><path class="cls-1" d="M171.85,93.47V116h-9.5V62h21.31c9.22,0,17.21,6,17.21,15.7s-8,15.77-17.21,15.77Zm12-22.47h-12V84.47h12c4.1,0,7.49-2.45,7.49-6.77C191.37,73.23,188,71,183.88,71Z"/><path class="cls-1" d="M206.34,62H240v9h-24.2V84.47H240v9h-24.2V107H240v9h-33.7Z"/><path class="cls-1" d="M245.51,62h38v9H269.27v45h-9.51V71H245.51Z"/><path class="cls-1" d="M289,62h9.51v54H289Z"/><path class="cls-1" d="M304,62h38v9H327.73v45h-9.5V71H304Z"/><path class="cls-1" d="M347.46,62H357v54h-9.5Z"/><path class="cls-1" d="M390.59,60.85A28.16,28.16,0,1,1,362.43,89,27.92,27.92,0,0,1,390.59,60.85Zm0,47.38A19.26,19.26,0,1,0,371.43,89,19,19,0,0,0,390.59,108.23Z"/><path class="cls-1" d="M432.27,116h-9.93V62h9.29V87.78L439,62H449l16.63,54h-10L444,76Z"/><path class="cls-1" d="M9.19,143.1l1.39,1.38a5.81,5.81,0,0,1-4.71,2.39,5.87,5.87,0,1,1,0-11.73,5.74,5.74,0,0,1,4.71,2.38L9.19,138.9A3.68,3.68,0,0,0,5.87,137a4,4,0,0,0,0,8A3.67,3.67,0,0,0,9.19,143.1Z"/><path class="cls-1" d="M17.1,135.14A5.87,5.87,0,1,1,11.23,141,5.81,5.81,0,0,1,17.1,135.14Zm0,9.87a4,4,0,1,0-4-4A4,4,0,0,0,17.1,145Z"/><path class="cls-1" d="M24.07,135.38h2.58a5.63,5.63,0,1,1,0,11.25H24.07Zm2.63,9.37a3.75,3.75,0,1,0,0-7.5h-.65v7.5Z"/><path class="cls-1" d="M33.54,135.38h7v1.87h-5v2.81h5v1.87h-5v2.82h5v1.88h-7Z"/><path class="cls-1" d="M47.94,135.38h2v11.25H47.76l-4.14-7.58v7.58H41.67V135.38h2.15L47.94,143Z"/><path class="cls-1" d="M62.64,146.63H60.55L59,143l-6,3.63H51l4.79-11.25h2.06Zm-8.44-2.76,4-2.69-1.45-3.37Z"/><path class="cls-1" d="M68.37,142.23l1.41-6.85H73v11.25H71.05v-8.28l-1.84,8.28H67.53l-1.84-8.28v8.28H63.75V135.38H67Z"/><path class="cls-1" d="M74.1,135.38h7v1.87h-5v2.81h5v1.87h-5v2.82h5v1.88h-7Z"/><path class="cls-1" d="M85.28,139.85l-1.53,1.09-1.52-1.09.57-1.76h1.89Zm0,5-1.53-1.09-1.52,1.09.57,1.76h1.89Z"/><path class="cls-1" d="M93,138.42c0,.83,1,1.29,2.16,1.83,1.32.65,2.84,1.44,2.84,3.32a3.26,3.26,0,0,1-3.54,3.28,4.33,4.33,0,0,1-3.58-2.37l1.43-1.38c.4.86,1.21,1.85,2.17,1.85a1.35,1.35,0,0,0,1.5-1.34c0-.73-.86-1.12-1.9-1.65-1.33-.67-3.06-1.5-3.06-3.52a3.27,3.27,0,0,1,3.45-3.29A4.2,4.2,0,0,1,98,137.51l-1.44,1.38c-.42-.84-1.12-1.85-2.08-1.85A1.35,1.35,0,0,0,93,138.42Z"/><path class="cls-1" d="M110.14,146.63h-2.08L106.51,143l-6,3.63h-2l4.79-11.25h2.07Zm-8.44-2.76,4-2.69-1.44-3.37Z"/><path class="cls-1" d="M115.88,142.23l1.41-6.85h3.21v11.25h-1.94v-8.28l-1.84,8.28H115l-1.85-8.28v8.28h-1.93V135.38h3.21Z"/><path class="cls-1" d="M129.53,143a4,4,0,0,1-7.92,0v-7.66h2v7.69a2,2,0,0,0,4,0v-7.69h2Z"/><path class="cls-1" d="M130.63,135.38h7v1.87h-5v2.81h5v1.87h-5v2.82h5v1.88h-7Z"/><path class="cls-1" d="M138.76,135.38h2v9l5.21-3.3v2.22l-5.21,3.33h-2Z"/><path class="cls-1" d="M160.77,143.1l1.38,1.38a5.86,5.86,0,1,1-4.71-9.34,5.72,5.72,0,0,1,4.71,2.38l-1.38,1.38a3.7,3.7,0,0,0-3.33-1.92,4,4,0,0,0,0,8A3.69,3.69,0,0,0,160.77,143.1Z"/><path class="cls-1" d="M171.18,143a4,4,0,0,1-7.92,0v-7.66h2v7.69a2,2,0,0,0,4,0v-7.69h2Z"/><path class="cls-1" d="M172.29,135.38h2v9l5.22-3.3v2.22l-5.22,3.33h-2Z"/><path class="cls-1" d="M182.58,141.93v4.7h-2V135.38H185a3.29,3.29,0,1,1,0,6.55Zm2.5-4.68h-2.5v2.81h2.5a1.42,1.42,0,0,0,1.56-1.41A1.39,1.39,0,0,0,185.08,137.25Z"/><path class="cls-1" d="M189.73,135.38h7v1.87h-5v2.81h5v1.87h-5v2.82h5v1.88h-7Z"/><path class="cls-1" d="M199.84,141.93v4.7h-2V135.38h4.59a3.34,3.34,0,0,1,3.59,3.27,3.12,3.12,0,0,1-1.19,2.43,3.66,3.66,0,0,1,1.34,2.79c.06.55.16,1.39.43,2.76h-2.05c-.24-1.34-.35-2.31-.39-2.72-.12-1.14-.56-2-1.73-2Zm2.66-4.68h-2.66v2.81h2.66a1.41,1.41,0,1,0,0-2.81Z"/><path class="cls-1" d="M216.19,142.85a3.62,3.62,0,0,1-4,3.78v-1.88a1.68,1.68,0,0,0,2-1.81v-7.56h2Z"/><path class="cls-1" d="M225.22,143a4,4,0,0,1-7.92,0v-7.66h2v7.69a2,2,0,0,0,4,0v-7.69h2Z"/><path class="cls-1" d="M232.6,135.38h2v11.25h-2.13l-4.14-7.58v7.58h-1.95V135.38h2.15L232.6,143Z"/><path class="cls-1" d="M235.66,135.38h2v11.25h-2Z"/><path class="cls-1" d="M244.62,135.14a5.87,5.87,0,1,1-5.87,5.86A5.81,5.81,0,0,1,244.62,135.14Zm0,9.87a4,4,0,1,0-4-4A4,4,0,0,0,244.62,145Z"/><path class="cls-1" d="M253.57,141.93v4.7h-2V135.38h4.59a3.34,3.34,0,0,1,3.59,3.27,3.12,3.12,0,0,1-1.19,2.43,3.66,3.66,0,0,1,1.34,2.79c.06.55.16,1.39.43,2.76H258.3c-.24-1.34-.35-2.31-.39-2.72-.12-1.14-.56-2-1.73-2Zm2.66-4.68h-2.66v2.81h2.66a1.41,1.41,0,1,0,0-2.81Z"/><path class="cls-1" d="M275.22,140.06v1.86h-.78a1.36,1.36,0,0,0-1.46,1.47,3.51,3.51,0,0,1-7,0,3.25,3.25,0,0,1,1.19-2.51,3.32,3.32,0,0,1-1-2.4,3.25,3.25,0,0,1,3.34-3.34,3.38,3.38,0,0,1,2.81,1.51l-1.41,1.4a1.45,1.45,0,0,0-2.84.43,1.54,1.54,0,0,0,1.44,1.58h.09v1.8h-.09a1.47,1.47,0,0,0-1.54,1.53,1.55,1.55,0,1,0,3.09,0,1.65,1.65,0,0,1,.58-1.51h-1.41v-1.8Z"/><path class="cls-1" d="M288.54,135.38v1.87l-5.91,9.38h-2.31l6-9.38h-5.1v-1.87Z"/><path class="cls-1" d="M298,139.28c0,2.29-1.61,3.6-4,4.3-1.25.36-1.8.68-2,1.17h5.63v1.88h-8v-1.8c.43-1.49,1.71-2.37,3.85-3,1.55-.44,2.48-1.23,2.48-2.6a2.2,2.2,0,0,0-2.33-2.28,2.47,2.47,0,0,0-2.43,1.92l-1.57-1.38a4.49,4.49,0,0,1,4-2.38A4.09,4.09,0,0,1,298,139.28Z"/><path class="cls-1" d="M300,137.25v-1.87h6.57v1.87l-1.62,1.62a4,4,0,0,1,2.63,3.86,4.17,4.17,0,0,1-4.31,4.14,4.46,4.46,0,0,1-4-2.39l1.57-1.38a2.46,2.46,0,0,0,2.43,1.92,2.3,2.3,0,1,0,0-4.59h-2.52l3.25-3.18Z"/></g></g></svg>