<svg xmlns="http://www.w3.org/2000/svg" width="307.53" height="147.95" viewBox="0 0 307.53 147.95"><defs><style>.cls-1{fill:#ff5d24;}</style></defs><title>Asset 25</title><g id="Layer_2" data-name="Layer 2"><g id="Layer_1-2" data-name="Layer 1"><path class="cls-1" d="M1.14,1.08h33.7v9H10.64V23.55h24.2v9H10.64V55.08H1.14Z"/><path class="cls-1" d="M40.31,1.08h9.5v54h-9.5Z"/><path class="cls-1" d="M64.79,32.55V55.08H55.28v-54h22c9.21,0,17.21,6,17.21,15.7a14.91,14.91,0,0,1-5.69,11.66c3.09,2.45,5.61,5.91,6.41,13.4.28,2.66.79,6.69,2.08,13.24H87.47c-1.15-6.4-1.66-11.08-1.87-13-.58-5.47-2.67-9.5-8.28-9.5ZM77.53,10.08H64.79V23.55H77.53c4.11,0,7.49-2.31,7.49-6.77S81.64,10.08,77.53,10.08Z"/><path class="cls-1" d="M110.36,15.7c0,4,5,6.19,10.37,8.78,6.34,3.1,13.61,6.91,13.61,15.92,0,9.36-7,15.77-17,15.77-7.06,0-14.48-5.55-17.14-11.38l6.84-6.63C109,42.27,112.88,47,117.49,47c4,0,7.2-2.23,7.2-6.41,0-3.53-4.17-5.4-9.14-7.92-6.41-3.24-14.69-7.2-14.69-16.92,0-9,6.84-15.77,16.56-15.77,7.06,0,14.11,5.54,16.78,11.31l-6.92,6.62c-2-4-5.4-8.86-10-8.86C113.39,9.07,110.36,11.59,110.36,15.7Z"/><path class="cls-1" d="M138.37,1.08h38v9H162.13v45h-9.5v-45H138.37Z"/><path class="cls-1" d="M45.28,100.16l6.62,6.63a27.9,27.9,0,0,1-22.61,11.45,28.16,28.16,0,0,1,0-56.31A27.48,27.48,0,0,1,51.9,73.38L45.28,80a17.79,17.79,0,0,0-16-9.21c-10.87,0-19.08,8.42-19.08,19.29a18.79,18.79,0,0,0,19.08,19.23A17.72,17.72,0,0,0,45.28,100.16Z"/><path class="cls-1" d="M81.49,61.93A28.16,28.16,0,1,1,53.34,90.08,27.92,27.92,0,0,1,81.49,61.93Zm0,47.38A19.26,19.26,0,1,0,62.34,90.08,19,19,0,0,0,81.49,109.31Z"/><path class="cls-1" d="M113.24,63.08h9.51v43.2L147.8,90.44V101.1l-25.05,16h-9.51Z"/><path class="cls-1" d="M179.56,61.93A28.16,28.16,0,1,1,151.4,90.08,27.92,27.92,0,0,1,179.56,61.93Zm0,47.38A19.26,19.26,0,1,0,160.4,90.08,19,19,0,0,0,179.56,109.31Z"/><path class="cls-1" d="M241.4,63.08h9.36v54H240.54L220.66,80.72v36.36H211.3v-54h10.3l19.8,36.44Z"/><path class="cls-1" d="M256.23,63.08h10.16L274,83.46l8-20.38h10.37l-23,54H259.4l9.65-22.53Z"/><path class="cls-1" d="M9.19,144.18l1.39,1.38A5.81,5.81,0,0,1,5.87,148a5.87,5.87,0,1,1,0-11.73,5.74,5.74,0,0,1,4.71,2.38L9.19,140a3.68,3.68,0,0,0-3.32-1.92,4,4,0,0,0,0,8A3.67,3.67,0,0,0,9.19,144.18Z"/><path class="cls-1" d="M17.1,136.22a5.87,5.87,0,1,1-5.87,5.86A5.81,5.81,0,0,1,17.1,136.22Zm0,9.87a4,4,0,1,0-4-4A4,4,0,0,0,17.1,146.09Z"/><path class="cls-1" d="M24.07,136.46h2.58a5.63,5.63,0,1,1,0,11.25H24.07Zm2.63,9.37a3.75,3.75,0,1,0,0-7.5h-.65v7.5Z"/><path class="cls-1" d="M33.54,136.46h7v1.87h-5v2.81h5V143h-5v2.82h5v1.88h-7Z"/><path class="cls-1" d="M47.94,136.46h2v11.25H47.76l-4.14-7.58v7.58H41.67V136.46h2.15l4.12,7.59Z"/><path class="cls-1" d="M62.64,147.71H60.55L59,144.08l-6,3.63H51l4.79-11.25h2.06ZM54.2,145l4-2.69-1.45-3.37Z"/><path class="cls-1" d="M68.37,143.31l1.41-6.85H73v11.25H71.05v-8.28l-1.84,8.28H67.53l-1.84-8.28v8.28H63.75V136.46H67Z"/><path class="cls-1" d="M74.1,136.46h7v1.87h-5v2.81h5V143h-5v2.82h5v1.88h-7Z"/><path class="cls-1" d="M85.28,140.93,83.75,142l-1.52-1.09.57-1.76h1.89Zm0,5-1.53-1.09L82.23,146l.57,1.76h1.89Z"/><path class="cls-1" d="M93,139.5c0,.83,1,1.29,2.16,1.83,1.32.65,2.84,1.44,2.84,3.32a3.26,3.26,0,0,1-3.54,3.28,4.33,4.33,0,0,1-3.58-2.37l1.43-1.38c.4.86,1.21,1.85,2.17,1.85a1.35,1.35,0,0,0,1.5-1.34c0-.73-.86-1.12-1.9-1.65-1.33-.67-3.06-1.5-3.06-3.52a3.27,3.27,0,0,1,3.45-3.29A4.2,4.2,0,0,1,98,138.59L96.52,140c-.42-.84-1.12-1.85-2.08-1.85A1.35,1.35,0,0,0,93,139.5Z"/><path class="cls-1" d="M110.14,147.71h-2.08l-1.55-3.63-6,3.63h-2l4.79-11.25h2.07ZM101.7,145l4-2.69-1.44-3.37Z"/><path class="cls-1" d="M115.88,143.31l1.41-6.85h3.21v11.25h-1.94v-8.28l-1.84,8.28H115l-1.85-8.28v8.28h-1.93V136.46h3.21Z"/><path class="cls-1" d="M129.53,144.12a4,4,0,0,1-7.92,0v-7.66h2v7.69a2,2,0,0,0,4,0v-7.69h2Z"/><path class="cls-1" d="M130.63,136.46h7v1.87h-5v2.81h5V143h-5v2.82h5v1.88h-7Z"/><path class="cls-1" d="M138.76,136.46h2v9l5.21-3.3v2.22l-5.21,3.33h-2Z"/><path class="cls-1" d="M160.77,144.18l1.38,1.38a5.86,5.86,0,1,1-4.71-9.34,5.72,5.72,0,0,1,4.71,2.38L160.77,140a3.7,3.7,0,0,0-3.33-1.92,4,4,0,0,0,0,8A3.69,3.69,0,0,0,160.77,144.18Z"/><path class="cls-1" d="M171.18,144.12a4,4,0,0,1-7.92,0v-7.66h2v7.69a2,2,0,0,0,4,0v-7.69h2Z"/><path class="cls-1" d="M172.29,136.46h2v9l5.22-3.3v2.22l-5.22,3.33h-2Z"/><path class="cls-1" d="M182.58,143v4.7h-2V136.46H185a3.29,3.29,0,1,1,0,6.55Zm2.5-4.68h-2.5v2.81h2.5a1.42,1.42,0,0,0,1.56-1.41A1.39,1.39,0,0,0,185.08,138.33Z"/><path class="cls-1" d="M189.73,136.46h7v1.87h-5v2.81h5V143h-5v2.82h5v1.88h-7Z"/><path class="cls-1" d="M199.84,143v4.7h-2V136.46h4.59a3.34,3.34,0,0,1,3.59,3.27,3.12,3.12,0,0,1-1.19,2.43,3.66,3.66,0,0,1,1.34,2.79c.06.55.16,1.39.43,2.76h-2.05c-.24-1.34-.35-2.31-.39-2.72-.12-1.14-.56-2-1.73-2Zm2.66-4.68h-2.66v2.81h2.66a1.41,1.41,0,1,0,0-2.81Z"/><path class="cls-1" d="M216.19,143.93a3.62,3.62,0,0,1-4,3.78v-1.88a1.68,1.68,0,0,0,2-1.81v-7.56h2Z"/><path class="cls-1" d="M225.22,144.12a4,4,0,0,1-7.92,0v-7.66h2v7.69a2,2,0,0,0,4,0v-7.69h2Z"/><path class="cls-1" d="M232.6,136.46h2v11.25h-2.13l-4.14-7.58v7.58h-1.95V136.46h2.15l4.12,7.59Z"/><path class="cls-1" d="M235.66,136.46h2v11.25h-2Z"/><path class="cls-1" d="M244.62,136.22a5.87,5.87,0,1,1-5.87,5.86A5.81,5.81,0,0,1,244.62,136.22Zm0,9.87a4,4,0,1,0-4-4A4,4,0,0,0,244.62,146.09Z"/><path class="cls-1" d="M253.57,143v4.7h-2V136.46h4.59a3.34,3.34,0,0,1,3.59,3.27,3.12,3.12,0,0,1-1.19,2.43,3.66,3.66,0,0,1,1.34,2.79c.06.55.16,1.39.43,2.76H258.3c-.24-1.34-.35-2.31-.39-2.72-.12-1.14-.56-2-1.73-2Zm2.66-4.68h-2.66v2.81h2.66a1.41,1.41,0,1,0,0-2.81Z"/><path class="cls-1" d="M275.22,141.14V143h-.78a1.36,1.36,0,0,0-1.46,1.47,3.51,3.51,0,0,1-7,0,3.25,3.25,0,0,1,1.19-2.51,3.32,3.32,0,0,1-1-2.4,3.25,3.25,0,0,1,3.34-3.34,3.38,3.38,0,0,1,2.81,1.51l-1.41,1.4a1.45,1.45,0,0,0-2.84.43,1.54,1.54,0,0,0,1.44,1.58h.09v1.8h-.09a1.47,1.47,0,0,0-1.54,1.53,1.55,1.55,0,1,0,3.09,0,1.65,1.65,0,0,1,.58-1.51h-1.41v-1.8Z"/><path class="cls-1" d="M288.54,136.46v1.87l-5.91,9.38h-2.31l6-9.38h-5.1v-1.87Z"/><path class="cls-1" d="M298,140.36c0,2.29-1.61,3.6-4,4.3-1.25.36-1.8.68-2,1.17h5.63v1.88h-8v-1.8c.43-1.49,1.71-2.37,3.85-3,1.55-.44,2.48-1.23,2.48-2.6a2.2,2.2,0,0,0-2.33-2.28,2.47,2.47,0,0,0-2.43,1.92l-1.57-1.38a4.49,4.49,0,0,1,4-2.38A4.09,4.09,0,0,1,298,140.36Z"/><path class="cls-1" d="M300,138.33v-1.87h6.57v1.87L304.9,140a4,4,0,0,1,2.63,3.86,4.17,4.17,0,0,1-4.31,4.14,4.46,4.46,0,0,1-4-2.39l1.57-1.38a2.46,2.46,0,0,0,2.43,1.92,2.3,2.3,0,1,0,0-4.59h-2.52l3.25-3.18Z"/></g></g></svg>