<svg width="1536" height="2008" viewBox="0 0 1536 2008" fill="none" xmlns="http://www.w3.org/2000/svg">
<path d="M713.375 1984.85C748.335 2006.17 866.813 1942.2 875.908 1943.71C885.002 1945.21 944.242 1987.86 959.427 1995.47C974.613 2003.08 1017.16 2004.58 1030.85 2009.18C1044.53 2013.78 1093.17 2051.83 1114.37 2062.45C1135.64 2073.07 1197.89 2080.68 1203.98 2085.28C1210.15 2089.88 1234.43 2103.6 1234.43 2103.6C1234.43 2103.6 1279.99 2210.22 1284.58 2236.06C1289.17 2261.98 1299.76 2286.31 1299.76 2286.31C1305.27 2300.7 1296.67 2636.53 1296.67 2647.15C1296.67 2657.85 1286.08 3265.3 1287.58 3306.78C1289.17 3348.25 1237.35 3690.11 1232.51 3694.46C1227.59 3698.72 1255.62 3713.02 1262.3 3711.01C1268.89 3709.01 1412.73 3711.01 1412.73 3711.01L1409.73 3639.77C1409.73 3639.77 1387.37 3526.12 1374.52 3506.05C1361.67 3485.98 1374.52 3290.47 1374.52 3290.47L1347.57 2511.68C1347.57 2511.68 1346.82 2255.87 1347.57 2237.64C1348.32 2219.41 1383.28 2150.84 1390.87 2143.23C1398.47 2135.62 1439.52 2077.76 1453.12 2070.15C1466.8 2062.54 1491.08 2029 1504.76 2007.76C1518.45 1986.44 1542.73 1971.22 1573.1 1959.01C1603.47 1946.8 1639.93 1888.93 1656.62 1878.31C1673.3 1867.61 1723.45 1835.66 1732.63 1837.17C1741.72 1838.67 1807.05 1826.55 1832.92 1820.44C1858.78 1814.34 1884.56 1812.84 1949.89 1818.94C2015.22 1825.04 1977.26 1799.12 1966.58 1782.4C1955.99 1765.67 1910.35 1773.28 1899.75 1773.28C1889.15 1773.28 1805.55 1770.27 1791.87 1774.79C1778.18 1779.39 1743.22 1777.8 1725.03 1796.11C1706.85 1814.34 1577.69 1820.44 1564 1822.03C1556.33 1822.87 1552.91 1797.53 1534.22 1801.88C1540.72 1796.95 1551.49 1791.85 1570.09 1787C1606.89 1777.46 1635.17 1800.96 1662.54 1806.98C1665.63 1807.65 1668.8 1808.15 1671.89 1808.32C1702.26 1809.82 1697.67 1770.27 1693.16 1767.18C1688.57 1764.17 1687.07 1736.74 1684.07 1723.02C1681.06 1709.31 1595.96 1684.97 1547.32 1672.77C1513.02 1664.15 1417.41 1686.65 1364.09 1700.61C1347.74 1653.28 1331.47 1613.23 1327.05 1604.19C1316.45 1582.87 1255.71 1561.55 1220.75 1560.04C1185.79 1558.54 1118.96 1599.59 1118.96 1616.32C1118.96 1633.04 1131.14 1633.04 1147.83 1646.76C1164.51 1660.47 1155.42 1668.08 1161.51 1677.2C1167.6 1686.31 1188.88 1697.02 1188.88 1690.91C1188.88 1684.81 1220.75 1645.25 1225.34 1645.25C1229.93 1645.25 1229.93 1690.91 1234.43 1712.24C1237.02 1724.11 1235.77 1768.26 1235.77 1808.4C1231.18 1783.65 1179.53 1736.4 1166.1 1725.87C1152.41 1715.25 1122.04 1661.89 1077.99 1632.96C1033.94 1604.19 708.786 1546.33 707.868 1563.05C706.95 1579.78 795.392 1648.35 813.581 1654.37C831.77 1660.47 970.024 1716.84 974.613 1719.85C979.202 1722.86 1049.04 1745.77 1041.44 1751.79C1033.85 1757.89 994.387 1753.3 960.929 1750.28C927.471 1747.27 885.003 1736.57 856.134 1750.28C827.265 1764 822.676 1788.33 822.676 1788.33C822.676 1788.33 846.956 1823.37 851.545 1837.09C856.134 1850.8 874.323 1869.03 886.504 1864.51C898.686 1859.92 906.279 1823.37 922.966 1817.35C939.653 1811.25 960.929 1820.36 971.609 1826.47C982.205 1832.57 989.881 1858.41 1003.82 1864.51C1017.83 1870.62 1020.25 1885.84 1003.82 1885.84C987.378 1885.84 888.006 1907.16 854.632 1905.66C821.174 1904.15 678.415 1963.53 713.375 1984.85ZM1422.83 1876.72C1422.83 1876.72 1392.46 1943.71 1386.37 1962.02C1382.95 1972.31 1367.35 2005.5 1354.5 2032.35C1353.91 2015.96 1353.16 1986.44 1352.83 1969.04C1371.1 1945.21 1396.13 1908.5 1403.06 1873.71C1403.72 1870.12 1404.06 1865.85 1404.06 1861.09C1414.32 1867.27 1422.83 1876.72 1422.83 1876.72ZM1349.91 2152.35C1349.91 2152.35 1356 2079.26 1357.5 2074.66C1359 2070.06 1438.02 1888.93 1441.02 1878.23C1444.02 1867.53 1468.39 1847.79 1478.98 1844.7C1481.74 1843.94 1485.74 1842.19 1490.25 1840.01C1480.15 1852.72 1468.39 1869.2 1454.7 1890.35C1359 2038.12 1368.1 2138.63 1368.1 2138.63L1349.91 2152.35ZM1333.22 1993.96C1334.64 1991.79 1338.81 1986.77 1344.4 1979.75C1345.57 1997.48 1347.82 2029.42 1348.91 2043.97C1341.65 2059.02 1336.22 2070.06 1336.22 2070.06C1336.22 2070.06 1327.13 2003.08 1333.22 1993.96ZM1275.48 2013.78C1269.39 2000.07 1243.61 1951.32 1242.02 1946.8C1240.52 1942.2 1245.03 1920.88 1251.12 1902.65C1251.45 1901.73 1251.62 1900.72 1251.79 1899.64C1260.38 1914.61 1269.81 1929.49 1273.9 1937.6C1279.99 1949.81 1319.45 1993.96 1319.45 1993.96V2140.14C1319.54 2140.14 1281.57 2027.5 1275.48 2013.78ZM1296.01 2157.2L1285.41 2133.7C1285.41 2133.7 1254.46 2054.01 1253.62 2052.67C1252.7 2051.33 1253.2 2043.39 1253.62 2040.71C1254.04 2038.03 1258.04 2011.02 1258.04 2011.02C1270.39 2010.61 1290.33 2091.39 1289 2084.11C1289 2084.11 1301.85 2152.35 1301.85 2153.69C1301.68 2154.94 1296.01 2157.2 1296.01 2157.2ZM1238.52 2097.83C1238.52 2094.31 1249.53 2065.04 1249.53 2065.04C1249.53 2065.04 1266.3 2108.03 1267.64 2111.12C1268.97 2114.22 1275.57 2140.39 1277.32 2141.64C1279.15 2142.98 1285.33 2160.71 1285.74 2166.9C1286.16 2173.09 1289.25 2180.19 1285.74 2180.19C1282.24 2180.19 1260.96 2139.89 1258.8 2135.87C1256.63 2131.86 1245.53 2107.94 1243.78 2107.11C1242.02 2106.27 1238.52 2101.34 1238.52 2097.83Z" fill="#305D0D"/>
<path d="M358.578 1990.8C358.578 1990.8 356.799 1928.71 358.578 1924.27C360.356 1919.82 367.447 1905.65 367.447 1895C367.447 1884.36 367.447 1877.27 367.447 1877.27L398.5 1869.29H440.222L468.608 1859.53L515.644 1849.78L548.475 1842.69H484.59C484.59 1842.69 440.136 1849.78 434.844 1850.67C429.575 1851.56 412.704 1853.33 412.704 1853.33C412.704 1853.33 388.742 1851.56 387.853 1848.89C386.964 1846.22 397.611 1839.13 401.167 1838.25C404.724 1837.36 410.037 1832.02 410.037 1832.02L414.482 1824.05L434.844 1808.96L457.072 1797.42L465.941 1792.11L473.921 1787.67L495.216 1778.8L540.473 1754.85L552.899 1746.87H548.453L485.479 1772.58L467.741 1779.67L459.761 1781.45L481.945 1762.82L495.259 1746.85L508.574 1729.11H502.35L467.741 1759.27C467.741 1759.27 460.737 1771.69 455.359 1774.36C449.981 1777.02 434.844 1789.45 434.844 1789.45C434.844 1789.45 409.169 1808.07 405.613 1813.4C402.056 1818.73 394.076 1828.49 394.076 1828.49L382.54 1832.93L378.983 1825.85L390.52 1779.71L400.278 1758.42L405.613 1744.22L412.704 1721.16L421.573 1693.65H414.482C414.482 1693.65 397.633 1729.13 397.633 1731.8C397.633 1734.47 389.653 1748.65 389.653 1748.65L386.096 1738C386.096 1738 386.096 1726.47 387.874 1722.91C389.652 1719.36 394.076 1703.4 394.076 1703.4L396.744 1693.65H390.542C390.542 1693.65 386.096 1704.29 384.34 1706.96C382.561 1709.62 381.672 1718.49 381.672 1718.49L378.029 1725.69L375.34 1726.36C375.34 1726.36 373.996 1722.33 372.326 1719.99C370.656 1717.64 360.247 1705.89 360.247 1705.89L352.202 1698.52L349.513 1702.56C349.513 1702.56 356.561 1712.96 358.231 1713.96C359.9 1714.96 365.278 1722 365.625 1723.35C365.951 1724.69 372.998 1732.73 372.998 1732.73C372.998 1732.73 375.015 1733.41 376.359 1736.09C377.704 1738.78 378.376 1738.78 378.376 1743.14C378.376 1747.5 376.034 1755.56 376.034 1755.56C376.034 1755.56 374.364 1758.92 374.364 1760.59C374.364 1762.26 372.695 1769.98 372.348 1773.01C372.001 1776.03 371.003 1786.11 370.678 1789.79C370.353 1793.48 368.336 1807.24 367.989 1809.59C367.664 1811.93 366.991 1821.66 366.645 1823.01C366.298 1824.35 367.317 1826.69 365.972 1831.72C364.628 1836.75 363.63 1842.8 362.611 1845.14C361.614 1847.48 349.86 1857.56 349.535 1856.54C349.188 1855.55 345.848 1850.17 345.848 1848.83C345.848 1847.48 344.851 1844.4 345.848 1842.26C346.868 1840.11 348.19 1836.42 348.19 1836.42C348.19 1836.42 351.205 1828.71 351.205 1824.35C351.205 1819.99 354.219 1815.96 354.566 1812.95C354.913 1809.93 355.563 1801.2 355.563 1801.2L357.905 1790.47L354.219 1788.8C354.219 1788.8 349.188 1808.94 348.516 1811.95C347.843 1814.96 345.371 1821.01 345.371 1821.01L343.81 1832.41C343.81 1832.41 335.418 1830.74 334.42 1830.4C333.423 1830.07 329.715 1826.04 328.717 1824.7C327.72 1823.35 324.358 1820.66 323.686 1817.65C323.014 1814.64 319.653 1807.92 319.653 1807.92C319.653 1807.92 317.636 1793.83 317.636 1791.81C317.636 1789.79 320.325 1779.39 320.325 1779.39L320.65 1766.64L317.636 1764.62C317.636 1764.62 315.966 1777.05 315.619 1778.04C315.294 1779.04 314.947 1785.41 313.949 1787.43C312.952 1789.45 314.947 1797.16 313.949 1798.16C312.952 1799.16 314.036 1807.9 313.668 1808.89C313.299 1809.89 310.263 1810.24 310.263 1810.24L298.857 1802.52L292.481 1797.14C292.481 1797.14 288.122 1792.44 286.431 1791.77C284.761 1791.09 283.07 1787.73 281.725 1784.39C280.381 1781.03 278.711 1771.65 278.711 1770.63C278.711 1769.61 277.713 1757.88 278.711 1756.88C279.709 1755.89 279.709 1743.12 279.709 1743.12L278.256 1734.4L273.333 1734.06C273.333 1734.06 271.642 1748.49 271.642 1749.49C271.642 1750.49 273.984 1768.61 273.984 1769.63C273.984 1770.63 274.981 1779.02 274.981 1779.02L275.979 1787.41L274.634 1792.78C274.634 1792.78 263.553 1788.08 262.556 1787.41C261.536 1786.74 253.838 1781.71 251.474 1780.36C249.132 1779.02 243.082 1775.66 241.738 1775.66C240.393 1775.66 234.018 1772.64 234.018 1772.64L227.317 1770.28L225.647 1773.97L243.104 1784.03C243.104 1784.03 259.541 1795.1 260.561 1795.43C261.558 1795.78 274.981 1801.8 276.998 1802.8C279.015 1803.82 286.388 1809.85 289.077 1812.53C291.766 1815.22 301.502 1821.6 302.825 1822.59C304.169 1823.59 314.231 1834 312.887 1835.02C311.542 1836.01 307.184 1837.36 305.839 1835.69C304.495 1834.02 293.088 1830.33 292.091 1830.33C291.093 1830.33 282.354 1828.32 281.682 1827.32C281.01 1826.32 273.29 1823.29 273.29 1823.29L258.522 1822.62C258.522 1822.62 253.491 1819.25 252.147 1818.93C250.802 1818.58 249.458 1816.91 247.116 1816.91C244.774 1816.91 232.695 1811.88 232.695 1811.88L232.348 1819.28C232.348 1819.28 238.724 1821.29 241.738 1823.31C244.752 1825.33 246.769 1826.32 249.111 1827.34C251.453 1828.34 257.156 1829.01 257.156 1829.01C257.156 1829.01 264.876 1828.01 267.89 1829.36C270.904 1830.7 279.297 1837.08 281.985 1838.07C284.674 1839.07 298.423 1843.77 301.437 1846.46C304.451 1849.15 321.236 1859.21 321.236 1859.21L323.578 1862.9L324.922 1868.27L321.908 1870.96L308.485 1870.29C308.485 1870.29 301.784 1869.29 301.784 1868.27C301.784 1867.27 302.109 1865.26 297.078 1865.26C292.047 1865.26 285.325 1864.93 283.33 1864.26C281.313 1863.59 277.627 1861.57 274.938 1861.25C272.249 1860.9 265.201 1860.9 262.512 1861.25C259.823 1861.57 257.134 1861.57 255.139 1861.57C253.122 1861.57 242.388 1859.23 241.369 1859.23C240.372 1859.23 234.994 1859.23 234.994 1859.23L235.666 1863.26C235.666 1863.26 245.056 1865.95 251.778 1865.95C258.479 1865.95 269.235 1865.63 269.235 1865.63L282.658 1867.97L296.753 1871.33L302.803 1876.7C302.803 1876.7 309.179 1878.37 310.198 1879.05C311.195 1879.72 319.588 1883.75 320.932 1884.75C322.277 1885.74 326.635 1891.45 326.635 1891.45L329.997 1920.3L328.327 2021.95L327.329 2078.65L326.657 2171.58L325.985 2250.43C325.985 2250.43 325.313 2303.11 325.985 2304.11C326.657 2305.11 326.657 2333.29 326.657 2335.98C326.657 2338.67 325.312 2357.79 325.659 2359.8C326.006 2361.82 328.674 2377.58 328.674 2377.58L327.676 2401.06L325.334 2436.29C325.334 2436.29 320.975 2449.38 319.956 2451.38C318.959 2453.39 307.878 2468.83 307.531 2471.17C307.205 2473.51 304.169 2485.26 303.844 2486.26C303.519 2487.25 297.469 2497.33 297.469 2497.33L298.813 2506.72H328.348C328.348 2506.72 358.881 2507.39 361.57 2506.72C364.259 2506.05 388.828 2493.63 389.284 2492.28C389.761 2490.94 379.352 2468.46 377.682 2464.1C376.013 2459.74 377.01 2450.36 373.324 2445.65C369.637 2440.95 366.276 2427.53 364.931 2424.51C363.587 2421.5 361.57 2405.39 361.57 2404.37C361.57 2403.38 362.568 2377.86 362.242 2375.52C361.895 2373.18 358.209 2298.02 358.209 2296.35C358.209 2294.68 365.257 2239.98 364.259 2238.98C363.24 2237.99 362.915 2227.91 362.589 2225.91C362.264 2223.9 362.242 2161.83 362.242 2160.83C362.242 2159.83 363.912 2133 363.24 2130.63C362.568 2128.27 358.209 2111.51 358.209 2110.17C358.209 2108.82 359.553 2091.05 359.553 2091.05L356.864 2031.99L358.578 1990.8Z" fill="#264C04"/>
<path d="M258.435 1846.31C259.823 1846.77 266.719 1851.84 268.562 1852.29C270.406 1852.75 278.733 1851.25 277.779 1856.43C276.824 1861.62 275.935 1869.33 274.547 1871.63C273.16 1873.93 276.846 1876.7 270.861 1881.76C264.876 1886.83 245.056 1885.9 241.391 1888.67C237.704 1891.42 239.092 1897.43 234.95 1898.34C230.808 1899.25 219.749 1885.92 211.465 1890.06C203.181 1894.2 214.241 1890.51 194.421 1893.74C174.622 1896.97 175.077 1887.31 170.458 1887.31C165.861 1887.31 163.086 1884.08 158.011 1883.17C152.937 1882.25 139.579 1876.73 137.736 1876.73C135.892 1876.73 128.975 1872.63 126.676 1872.37C124.377 1872.11 117.46 1860.14 116.094 1860.14C114.706 1860.14 109.653 1857.39 105.967 1859.69C102.28 1861.98 98.1384 1853.23 95.8397 1852.77C93.5411 1852.32 90.7654 1845.4 88.4668 1846.33C86.1681 1847.24 82.937 1842.19 82.937 1842.19V1840.35C82.937 1840.35 76.0194 1826.99 82.937 1824.22C89.8546 1821.47 96.7505 1818.69 96.7505 1817.3C96.7505 1815.92 96.2951 1810.39 96.7505 1809.02C97.2059 1807.63 101.825 1797.06 103.191 1797.06C104.579 1797.06 115.161 1775.87 118.848 1777.72C122.534 1779.56 133.138 1777.26 131.273 1774.49C129.43 1771.73 142.788 1753.31 145.564 1753.31C148.318 1753.31 159.377 1756.99 159.377 1751.01C159.377 1745.03 160.765 1734.88 159.377 1732.13C157.989 1729.35 141.422 1725.21 157.079 1718.32C172.735 1711.4 178.851 1701.73 178.851 1701.73C178.851 1701.73 183.578 1693.41 178.851 1693.65C174.123 1693.91 169.526 1701.67 169.526 1693.65C169.526 1685.62 169.981 1681.01 169.981 1681.01C169.981 1681.01 188.869 1676.87 190.257 1676.87C191.645 1676.87 215.585 1657.07 217.429 1657.53C219.272 1657.98 242.302 1649.7 245.056 1641.88C247.81 1634.05 242.302 1619.76 253.816 1625.29C265.331 1630.82 254.272 1640.49 267.63 1632.21C281.01 1623.88 293.891 1616.06 293.891 1616.06H307.249V1614.67L318.764 1621.58C318.764 1621.58 328.435 1612.83 329.823 1614.67C331.211 1616.51 343.181 1615.58 343.181 1618.35C343.181 1621.11 355.628 1612.78 356.995 1614.41C358.382 1616.06 377.726 1614.19 377.726 1614.19L395.226 1605V1612.37L402.143 1605L407.217 1614.67C407.217 1614.67 410.449 1612.83 413.203 1614.67C415.957 1616.51 436.666 1619.26 434.844 1620.65C433.001 1622.04 441.307 1618.81 445.904 1621.58C450.523 1624.34 453.277 1628.5 453.277 1628.5C453.277 1628.5 453.732 1626.66 458.807 1628.04C463.881 1629.43 471.254 1635.42 470.777 1638.17C470.321 1640.92 457.874 1632.19 470.321 1640.92C482.769 1649.68 495.65 1650.14 495.65 1650.14C495.65 1650.14 510.851 1637.24 514.082 1637.69C517.313 1638.15 533.425 1639.08 533.425 1642.77C533.425 1646.45 549.082 1653.37 549.082 1653.37L556 1655.66C556 1655.66 561.529 1647.38 561.529 1652.91C561.529 1658.44 561.985 1660.74 564.305 1660.74C566.604 1660.74 578.119 1660.28 579.506 1661.19C580.894 1662.1 586.402 1665.79 586.402 1665.79C586.402 1665.79 588.701 1668.54 595.163 1668.54C601.604 1668.54 604.379 1668.54 604.379 1668.54C604.379 1668.54 601.148 1669 604.379 1673.61C607.61 1678.21 618.193 1677.76 618.193 1677.76C618.193 1677.76 623.267 1679.12 623.267 1680.99C623.267 1682.83 628.341 1682.83 628.341 1682.83C628.341 1682.83 632.483 1691.52 631.573 1693.62C630.64 1695.73 623.289 1694.79 630.64 1695.73C638.013 1696.66 637.558 1696.66 638.924 1698.96C640.312 1701.26 649.528 1708.17 648.595 1713.7C647.663 1719.23 640.767 1709.1 645.82 1720.61C650.894 1732.13 650.894 1729.37 654.125 1734.42C657.356 1739.5 662.409 1750.12 662.409 1751.72C662.409 1753.31 653.648 1750.55 657.812 1754.69C661.953 1758.84 670.259 1767.12 670.259 1767.12C670.259 1767.12 681.318 1761.59 681.318 1763.43C681.318 1765.27 683.162 1768.5 681.318 1772.17C679.475 1775.85 671.647 1776.76 670.714 1778.61C669.804 1780.45 662.431 1781.36 661.953 1782.75C661.498 1784.13 660.566 1791.51 660.566 1792.87C660.566 1794.26 649.051 1784.59 652.282 1797.94C655.513 1811.3 655.513 1811.3 655.513 1811.3C655.513 1811.3 646.752 1809.46 645.386 1817.28C643.998 1825.11 641.244 1829.73 636.625 1832.48C632.028 1835.23 615.439 1842.15 615.439 1842.15L608.998 1848.13C608.998 1848.13 608.543 1843.54 605.312 1848.59C602.081 1853.66 592.409 1849.52 591.498 1852.27C590.566 1855.03 589.655 1856.41 589.655 1858.71C589.655 1861.01 583.215 1858.26 581.371 1859.17C579.528 1860.08 571.244 1858.26 571.244 1861.92C571.244 1865.6 562.484 1859.17 561.117 1863.31C559.729 1867.45 554.482 1861.92 552.964 1864.69C551.446 1867.45 541.774 1861.46 539.476 1865.15C537.177 1868.84 542.707 1856.87 533.035 1863.76C523.363 1870.68 515.08 1864.22 515.08 1864.22C515.08 1864.22 506.319 1857.3 505.408 1858.69C504.497 1860.08 502.654 1856.39 499.878 1857.76C497.103 1859.14 497.58 1854.53 493.438 1859.6C489.296 1864.67 486.997 1862.83 479.624 1866.52C472.251 1870.2 466.722 1869.27 466.722 1869.27L459.804 1866.52C459.804 1866.52 450.133 1861.92 446.446 1861.92C442.76 1861.92 440.006 1859.17 440.006 1859.17L436.102 1850.41C436.102 1850.41 440.006 1842.58 437.23 1841.19C434.476 1839.81 433.543 1825.09 432.155 1825.09C430.768 1825.09 428.014 1821.86 428.014 1821.86V1818.63C428.014 1818.63 429.401 1812.99 432.155 1810.95C434.91 1808.91 442.304 1794.69 445.058 1795.6C447.812 1796.51 461.018 1789.16 463.165 1793.76C465.312 1798.36 465.312 1795.6 470.386 1794.22C475.461 1792.83 483.745 1792.37 483.745 1792.37C483.745 1792.37 493.243 1789.03 491.573 1785C489.903 1780.97 497.103 1785.46 494.327 1775.79C491.573 1766.12 492.028 1758.75 492.028 1758.75L484.2 1754.15C484.2 1754.15 483.831 1753.07 480.969 1751.64C478.106 1750.21 468.999 1754.15 468.999 1754.15L464.857 1751.64C464.857 1751.64 466.7 1738.02 460.715 1741.25C454.73 1744.48 455.185 1720.53 448.268 1728.35C441.35 1736.18 442.282 1725.12 438.141 1726.06C433.999 1726.97 433.543 1716.39 431.245 1723.76C428.946 1731.13 431.7 1738.04 428.946 1731.13C426.192 1724.21 428.035 1720.07 426.192 1720.55C424.349 1721.01 427.103 1738.98 425.737 1742.66C424.349 1746.35 426.192 1749.58 429.423 1748.65C432.654 1747.71 436.319 1750.94 434.931 1753.24C433.565 1755.54 437.707 1755.08 439.095 1755.08C440.483 1755.08 447.378 1759.68 445.08 1760.61C442.781 1761.52 441.393 1757.38 442.781 1761.52C444.169 1765.66 434.953 1757.38 437.251 1765.66C439.55 1773.95 437.251 1771.19 437.251 1771.19C437.251 1771.19 434.476 1763.82 434.931 1771.65C435.408 1779.47 429.879 1776.24 429.879 1776.24C429.879 1776.24 426.192 1776.7 427.103 1779.93C428.014 1783.16 423.416 1780.86 422.506 1784.07C421.595 1787.3 422.05 1796.49 419.752 1793.28C417.453 1790.05 416.065 1782.23 414.677 1787.76C413.289 1793.28 416.065 1792.83 413.289 1793.28C410.514 1793.74 409.603 1785.46 407.76 1787.3C405.916 1789.14 403.618 1792.37 401.297 1790.05C398.999 1787.76 397.156 1785.91 397.156 1789.6C397.156 1793.28 398.999 1794.65 397.156 1796.04C395.312 1797.42 391.17 1790.99 392.081 1797.88C392.992 1804.79 388.004 1796.95 389.349 1805.71C390.693 1814.44 392.602 1804.32 389.349 1812.62C386.096 1820.9 379.656 1804.79 378.268 1813.08C376.88 1821.36 372.348 1814.53 369.507 1819.99C366.688 1825.46 365.365 1834.73 361.679 1831.96C357.992 1829.18 353.395 1829.66 355.238 1825.52C357.081 1821.38 354.306 1816.89 351.552 1821.66C348.798 1826.43 349.426 1819.45 345.415 1820.88C341.425 1822.29 345.566 1802.5 340.492 1810.32C335.418 1818.15 336.806 1811.23 330.365 1809.39C323.925 1807.55 322.537 1798.81 322.537 1798.81C322.537 1798.81 326.57 1795.62 324.835 1798.36C323.101 1801.09 320.694 1790.07 324.38 1787.3C328.067 1784.55 327.134 1788.23 328.067 1784.55C328.977 1780.86 333.596 1773.97 328.977 1777.18C324.38 1780.41 320.563 1771.34 320.455 1775.31C320.347 1779.28 321.561 1757.4 317.658 1764.52C313.754 1771.65 304.538 1772.1 304.538 1772.1C304.538 1772.1 308.68 1762.89 306.381 1764.28C304.083 1765.66 301.784 1772.1 301.307 1765.19C300.852 1758.27 304.538 1755.52 302.695 1756.91C300.852 1758.29 292.568 1768.42 294.866 1758.75C297.165 1749.08 301.307 1746.78 297.165 1749.08C293.023 1751.38 299.008 1750.97 287.038 1751.64C275.068 1752.31 271.685 1749.43 271.685 1749.43C271.685 1749.43 287.016 1751.85 283.373 1748.62C279.73 1745.39 273.116 1735.47 272.401 1742.45C271.685 1749.43 272.314 1754.15 269.538 1749.08C266.784 1744.01 265.852 1733.88 264.008 1739.87C262.165 1745.85 261.71 1756.91 259.867 1749.53C258.023 1742.16 254.792 1735.25 253.881 1740.32C252.949 1745.39 256.18 1743.55 252.949 1745.39C249.718 1747.24 246.053 1732.95 245.576 1740.32C245.121 1747.69 248.807 1750.97 245.576 1751.62C242.345 1752.29 226.233 1746.35 231.307 1751.62C236.382 1756.88 231.307 1758.73 231.307 1758.73C231.307 1758.73 220.248 1753.2 229.009 1760.11C237.769 1767.03 238.225 1769.78 238.225 1769.78C238.225 1769.78 242.67 1765.64 244.665 1771.63C246.682 1777.61 251.583 1771.63 254.337 1774.86C257.091 1778.09 256.354 1783.27 257.611 1784.07C258.869 1784.87 262.317 1779.84 264.486 1784.52C266.654 1789.21 255.725 1793.11 264.117 1796.88C272.509 1800.65 275.935 1802.22 274.222 1801.43C272.509 1800.65 263.098 1793.74 260.799 1801.11C258.5 1808.48 260.799 1807.09 254.359 1807.55C247.918 1808 244.687 1803.41 247.918 1808C251.149 1812.6 258.761 1813.9 252.992 1815.37C247.224 1816.85 246.096 1818.15 248.395 1821.36C250.694 1824.59 253.773 1825.28 249.241 1827.23C244.709 1829.18 244.709 1832.87 247.007 1833.32C249.306 1833.78 250.694 1825.95 251.149 1834.24C251.605 1842.52 258.977 1834.24 257.59 1839.76C256.202 1845.29 256.202 1845.29 256.202 1845.29" fill="#264C04"/>
<path d="M415.892 1999.19C428.556 1999.19 439.854 1994.92 449.569 1986.42C491.269 1949.94 490.12 1847.89 490.055 1843.56L483.159 1843.67C483.181 1844.68 484.33 1946.84 445.036 1981.22C434.649 1990.3 422.159 1993.79 407.846 1991.65C330.018 1979.94 342.812 1806.88 342.964 1805.14L336.068 1804.6C336.025 1805.06 332.599 1850 339.278 1895.85C348.299 1957.7 371.654 1993.19 406.806 1998.48C409.906 1998.95 412.942 1999.19 415.892 1999.19Z" fill="#264C04"/>
<path d="M502.567 1962.47C556.824 1962.47 609.909 1827.15 612.229 1821.1L605.789 1818.6C605.637 1818.97 590.869 1856.91 569.661 1892.55C550.578 1924.64 522.366 1961.49 496.235 1954.75C446.338 1941.87 416.434 1724.19 416.022 1710.62L409.126 1710.64C409.104 1713.94 416.347 1772.84 430.139 1831.85C448.766 1911.61 470.43 1955.2 494.522 1961.43C497.211 1962.12 499.878 1962.47 502.567 1962.47Z" fill="#264C04"/>
<path d="M247.137 1971.25C247.419 1971.25 247.723 1971.25 248.005 1971.23C271.468 1970.42 287.689 1941.42 296.254 1884.99C302.456 1844.1 302.261 1802.87 302.261 1802.45L295.344 1802.5C295.625 1847.05 287.624 1962.97 247.766 1964.31C247.571 1964.31 247.354 1964.33 247.159 1964.33C207.735 1964.33 191.667 1834.67 188.804 1784.42L181.908 1784.81C181.93 1785.26 184.662 1831.81 193.748 1877.53C206.087 1939.73 224.064 1971.25 247.137 1971.25Z" fill="#264C04"/>
<path d="M149.229 1938.66C151.137 1938.66 152.677 1937.12 152.677 1935.22V1856.85C152.677 1854.94 151.137 1853.4 149.229 1853.4C147.32 1853.4 145.781 1854.94 145.781 1856.85V1935.22C145.781 1937.1 147.32 1938.66 149.229 1938.66Z" fill="#264C04"/>
<path d="M525.337 2070.73C527.245 2070.73 528.785 2069.19 528.785 2067.29V1834.84C528.785 1832.93 527.245 1831.4 525.337 1831.4C523.428 1831.4 521.889 1832.93 521.889 1834.84V2067.29C521.889 2069.19 523.428 2070.73 525.337 2070.73Z" fill="#264C04"/>
<path d="M429.336 2028.46C431.245 2028.46 432.784 2026.92 432.784 2025.01V1862.98C432.784 1861.07 431.245 1859.53 429.336 1859.53C427.428 1859.53 425.888 1861.07 425.888 1862.98V2025.01C425.867 2026.92 427.428 2028.46 429.336 2028.46Z" fill="#264C04"/>
</svg>
