<svg xmlns="http://www.w3.org/2000/svg" viewBox="0 0 155.48 56.31"><defs><style>.cls-1{fill:#ffe600;}</style></defs><title>1876</title><g id="Layer_2" data-name="Layer 2"><g id="Layer_1-2" data-name="Layer 1"><path class="cls-1" d="M20.88,18.72,9.72,46.23H0L19.3,1.15H30.17v54H20.88Z"/><path class="cls-1" d="M45.94,27.36A15.56,15.56,0,0,1,41,15.91,16.1,16.1,0,1,1,68.33,27.36,16,16,0,0,1,74,39.6a16.89,16.89,0,0,1-33.77,0A16,16,0,0,1,45.94,27.36ZM49.68,39.6a7.46,7.46,0,1,0,14.91,0,7.46,7.46,0,1,0-14.91,0Zm14.4-23.69a6.95,6.95,0,1,0-13.89,0,6.95,6.95,0,1,0,13.89,0Z"/><path class="cls-1" d="M116.23,1.15v9l-28.37,45H76.77l28.73-45H81v-9Z"/><path class="cls-1" d="M132.07,1.15h10.52l-9.29,13.9a7.14,7.14,0,0,1,1.22-.07,20.67,20.67,0,1,1-20.74,20.59A21.34,21.34,0,0,1,117.31,24Zm2.45,46.3c6.77,0,11.52-5.25,11.52-12a11.49,11.49,0,1,0-23,0C123.07,42.12,127.9,47.45,134.52,47.45Z"/></g></g></svg>