<svg xmlns="http://www.w3.org/2000/svg" viewBox="0 0 158.62 56.31"><defs><style>.cls-1{fill:#ffe600;}</style></defs><title>1885</title><g id="Layer_2" data-name="Layer 2"><g id="Layer_1-2" data-name="Layer 1"><path class="cls-1" d="M20.88,18.72,9.72,46.23H0L19.3,1.15H30.17v54H20.88Z"/><path class="cls-1" d="M45.94,27.36A15.56,15.56,0,0,1,41,15.91,16.1,16.1,0,1,1,68.33,27.36,16,16,0,0,1,74,39.6a16.89,16.89,0,0,1-33.77,0A16,16,0,0,1,45.94,27.36ZM49.68,39.6a7.46,7.46,0,1,0,14.91,0,7.46,7.46,0,1,0-14.91,0Zm14.4-23.69a6.95,6.95,0,1,0-13.89,0,6.95,6.95,0,1,0,13.89,0Z"/><path class="cls-1" d="M85.18,27.36a15.56,15.56,0,0,1-4.9-11.45,16.1,16.1,0,1,1,27.29,11.45,16,16,0,0,1,5.69,12.24,16.89,16.89,0,0,1-33.77,0A16,16,0,0,1,85.18,27.36ZM88.92,39.6a7.46,7.46,0,1,0,14.91,0,7.46,7.46,0,1,0-14.91,0Zm14.4-23.69a7,7,0,1,0-13.9,0,7,7,0,1,0,13.9,0Z"/><path class="cls-1" d="M126.36,1.15h27.51v9H131.76l-3.53,6.34h10c11.38,0,20.38,8.06,20.38,20,0,11.44-9.29,19.87-20.67,19.87-8.13,0-15.77-4.47-19.22-11.45l7.56-6.62A11.8,11.8,0,0,0,138,47.45c6.41,0,11.24-4.39,11.24-11.09,0-6.55-4.9-10.94-11.53-10.94H118.73V16.56Z"/></g></g></svg>