<svg xmlns="http://www.w3.org/2000/svg" width="609.61" height="148.02" viewBox="0 0 609.61 148.02"><defs><style>.cls-1{fill:#1bafa3;}</style></defs><title>Asset 19</title><g id="Layer_2" data-name="Layer 2"><g id="Layer_1-2" data-name="Layer 1"><path class="cls-1" d="M1.14,1.15h33.7v9H10.65V23.62H34.84v9H10.65V46.16H34.84v9H1.14Z"/><path class="cls-1" d="M70.41,1.15h9.36v54H69.54L49.67,18.79V55.16H40.31v-54h10.3l19.8,36.44Z"/><path class="cls-1" d="M85.24,1.15H97.62c15.48,0,28.44,11.09,28.44,27s-13,27-28.44,27H85.24Zm12.6,45c11,.07,18.79-7.06,18.79-18s-7.77-18-18.79-18h-3.1v36Z"/><path class="cls-1" d="M151.55,46.16v9H124.62v-9l28.87-45h10.59v54h-9.51V16.27L135.71,46.16Z"/><path class="cls-1" d="M199.65,1.15H209v54H198.78L178.91,18.79V55.16h-9.36v-54h10.29l19.81,36.44Z"/><path class="cls-1" d="M213.76,28.15A27.92,27.92,0,0,1,241.91,0a27.49,27.49,0,0,1,22.61,11.45l-6.62,6.62a17.79,17.79,0,0,0-16-9.21c-10.87,0-19.08,8.42-19.08,19.29h44.43v27h-9.44V51.05a27.51,27.51,0,0,1-15.91,5.26A27.92,27.92,0,0,1,213.76,28.15ZM258,38.23V37h-33.2a18.61,18.61,0,0,0,17.07,10.37C249.11,47.38,255.38,43.92,258,38.23Z"/><path class="cls-1" d="M272.72,1.15h33.7v9H282.23V23.62h24.19v9H282.23V46.16h24.19v9h-33.7Z"/><path class="cls-1" d="M321.4,32.62V55.16h-9.51v-54h22c9.21,0,17.2,6,17.2,15.7a14.9,14.9,0,0,1-5.68,11.66c3.09,2.45,5.61,5.91,6.4,13.4.29,2.66.8,6.69,2.09,13.25h-9.86c-1.15-6.41-1.66-11.09-1.87-13-.58-5.47-2.67-9.5-8.28-9.5Zm12.74-22.47H321.4V23.62h12.74c4.11,0,7.49-2.31,7.49-6.77S338.25,10.15,334.14,10.15Z"/><path class="cls-1" d="M356.82,1.15h9.5v54h-9.5Z"/><path class="cls-1" d="M401.89,1.15h9.36v54H401L381.16,18.79V55.16h-9.37v-54h10.3l19.8,36.44Z"/><path class="cls-1" d="M416,28.15A27.92,27.92,0,0,1,444.16,0a27.5,27.5,0,0,1,22.61,11.45l-6.63,6.62a17.78,17.78,0,0,0-16-9.21c-10.88,0-19.08,8.42-19.08,19.29H469.5v27h-9.43V51.05a27.54,27.54,0,0,1-15.91,5.26A27.92,27.92,0,0,1,416,28.15Zm44.29,10.08V37h-33.2a18.6,18.6,0,0,0,17.07,10.37C451.36,47.38,457.62,43.92,460.29,38.23Z"/><path class="cls-1" d="M1.14,63.15h38v9H24.9v45H15.4v-45H1.14Z"/><path class="cls-1" d="M73.14,63.15h9.51v54H73.14V94.62h-19v22.54h-9.5v-54h9.5V85.62h19Z"/><path class="cls-1" d="M88.12,63.15h33.7v9H97.62V85.62h24.2v9H97.62v13.54h24.2v9H88.12Z"/><path class="cls-1" d="M145.28,63.15H179v9H154.79V85.62H179v9H154.79v13.54H179v9h-33.7Z"/><path class="cls-1" d="M214.55,63.15h9.36v54H213.69L193.81,80.79v36.37h-9.36v-54h10.3l19.8,36.44Z"/><path class="cls-1" d="M227.51,63.15h10l11.59,40.18,11.66-40.18h10l-16.7,54h-9.94Z"/><path class="cls-1" d="M274.38,63.15h9.5v54h-9.5Z"/><path class="cls-1" d="M298.86,94.62v22.54h-9.51v-54h22c9.22,0,17.21,6,17.21,15.7a14.91,14.91,0,0,1-5.69,11.66c3.1,2.45,5.62,5.91,6.41,13.4.29,2.66.79,6.69,2.09,13.25h-9.87c-1.15-6.41-1.65-11.09-1.87-13-.58-5.47-2.66-9.5-8.28-9.5ZM311.6,72.15H298.86V85.62H311.6c4.11,0,7.49-2.31,7.49-6.77S315.71,72.15,311.6,72.15Z"/><path class="cls-1" d="M361,62a28.16,28.16,0,1,1-28.16,28.15A27.92,27.92,0,0,1,361,62Zm0,47.38a19.26,19.26,0,1,0-19.16-19.23A19,19,0,0,0,361,109.38Z"/><path class="cls-1" d="M422.85,63.15h9.36v54H422L402.11,80.79v36.37h-9.36v-54H403l19.81,36.44Z"/><path class="cls-1" d="M459.85,96.06l6.77-32.91H482v54h-9.29V77.41l-8.85,39.75h-8.07L447,77.41v39.75h-9.29v-54h15.41Z"/><path class="cls-1" d="M487.5,63.15h33.7v9H497V85.62h24.2v9H497v13.54h24.2v9H487.5Z"/><path class="cls-1" d="M556.77,63.15h9.36v54H555.9L536,80.79v36.37h-9.36v-54H537l19.81,36.44Z"/><path class="cls-1" d="M571.59,63.15h38v9H595.36v45h-9.51v-45H571.59Z"/><path class="cls-1" d="M9.19,144.26l1.39,1.37A5.81,5.81,0,0,1,5.87,148a5.87,5.87,0,1,1,0-11.73,5.75,5.75,0,0,1,4.71,2.39l-1.39,1.38a3.68,3.68,0,0,0-3.32-1.92,4,4,0,0,0,0,8A3.66,3.66,0,0,0,9.19,144.26Z"/><path class="cls-1" d="M17.1,136.29a5.87,5.87,0,1,1-5.87,5.87A5.81,5.81,0,0,1,17.1,136.29Zm0,9.87a4,4,0,1,0-4-4A4,4,0,0,0,17.1,146.16Z"/><path class="cls-1" d="M24.07,136.53h2.58a5.63,5.63,0,1,1,0,11.25H24.07Zm2.63,9.38a3.75,3.75,0,1,0,0-7.5h-.65v7.5Z"/><path class="cls-1" d="M33.54,136.53h7v1.88h-5v2.8h5v1.88h-5v2.82h5v1.87h-7Z"/><path class="cls-1" d="M47.94,136.53h2v11.25H47.76l-4.14-7.57v7.57H41.67V136.53h2.15l4.12,7.59Z"/><path class="cls-1" d="M62.64,147.78H60.55L59,144.15l-6,3.63H51l4.79-11.25h2.06ZM54.2,145l4-2.68L56.8,139Z"/><path class="cls-1" d="M68.37,143.38l1.41-6.85H73v11.25H71.05V139.5l-1.84,8.28H67.53l-1.84-8.28v8.28H63.75V136.53H67Z"/><path class="cls-1" d="M74.1,136.53h7v1.88h-5v2.8h5v1.88h-5v2.82h5v1.87h-7Z"/><path class="cls-1" d="M85.28,141l-1.53,1.1L82.23,141l.57-1.75h1.89Zm0,5-1.53-1.1L82.23,146l.57,1.75h1.89Z"/><path class="cls-1" d="M93,139.58c0,.82,1,1.29,2.16,1.83,1.32.64,2.84,1.44,2.84,3.31A3.27,3.27,0,0,1,94.46,148a4.34,4.34,0,0,1-3.58-2.38l1.43-1.37c.4.85,1.21,1.84,2.17,1.84a1.35,1.35,0,0,0,1.5-1.33c0-.74-.86-1.13-1.9-1.65-1.33-.68-3.06-1.5-3.06-3.53a3.26,3.26,0,0,1,3.45-3.28A4.19,4.19,0,0,1,98,138.66L96.52,140c-.42-.84-1.12-1.84-2.08-1.84A1.34,1.34,0,0,0,93,139.58Z"/><path class="cls-1" d="M110.14,147.78h-2.08l-1.55-3.63-6,3.63h-2l4.79-11.25h2.07ZM101.7,145l4-2.68L104.31,139Z"/><path class="cls-1" d="M115.88,143.38l1.41-6.85h3.21v11.25h-1.94V139.5l-1.84,8.28H115l-1.85-8.28v8.28h-1.93V136.53h3.21Z"/><path class="cls-1" d="M129.53,144.2a4,4,0,0,1-7.92,0v-7.67h2v7.7a2,2,0,0,0,4,0v-7.7h2Z"/><path class="cls-1" d="M130.63,136.53h7v1.88h-5v2.8h5v1.88h-5v2.82h5v1.87h-7Z"/><path class="cls-1" d="M138.76,136.53h2v9l5.21-3.3v2.22l-5.21,3.33h-2Z"/><path class="cls-1" d="M160.77,144.26l1.38,1.37a5.86,5.86,0,1,1-4.71-9.34,5.73,5.73,0,0,1,4.71,2.39l-1.38,1.38a3.7,3.7,0,0,0-3.33-1.92,4,4,0,0,0,0,8A3.69,3.69,0,0,0,160.77,144.26Z"/><path class="cls-1" d="M171.18,144.2a4,4,0,0,1-7.92,0v-7.67h2v7.7a2,2,0,0,0,4,0v-7.7h2Z"/><path class="cls-1" d="M172.29,136.53h2v9l5.22-3.3v2.22l-5.22,3.33h-2Z"/><path class="cls-1" d="M182.58,143.09v4.69h-2V136.53H185a3.29,3.29,0,1,1,0,6.56Zm2.5-4.68h-2.5v2.8h2.5a1.42,1.42,0,0,0,1.56-1.41A1.39,1.39,0,0,0,185.08,138.41Z"/><path class="cls-1" d="M189.73,136.53h7v1.88h-5v2.8h5v1.88h-5v2.82h5v1.87h-7Z"/><path class="cls-1" d="M199.84,143.09v4.69h-2V136.53h4.59A3.34,3.34,0,0,1,206,139.8a3.11,3.11,0,0,1-1.19,2.43,3.66,3.66,0,0,1,1.34,2.79c.06.56.16,1.4.43,2.76h-2.05c-.24-1.33-.35-2.31-.39-2.71-.12-1.14-.56-2-1.73-2Zm2.66-4.68h-2.66v2.8h2.66a1.41,1.41,0,0,0,1.56-1.41A1.39,1.39,0,0,0,202.5,138.41Z"/><path class="cls-1" d="M216.19,144a3.61,3.61,0,0,1-4,3.78v-1.87a1.7,1.7,0,0,0,2-1.82v-7.56h2Z"/><path class="cls-1" d="M225.22,144.2a4,4,0,0,1-7.92,0v-7.67h2v7.7a2,2,0,0,0,4,0v-7.7h2Z"/><path class="cls-1" d="M232.6,136.53h2v11.25h-2.13l-4.14-7.57v7.57h-1.95V136.53h2.15l4.12,7.59Z"/><path class="cls-1" d="M235.66,136.53h2v11.25h-2Z"/><path class="cls-1" d="M244.62,136.29a5.87,5.87,0,1,1-5.87,5.87A5.81,5.81,0,0,1,244.62,136.29Zm0,9.87a4,4,0,1,0-4-4A4,4,0,0,0,244.62,146.16Z"/><path class="cls-1" d="M253.57,143.09v4.69h-2V136.53h4.59a3.34,3.34,0,0,1,3.59,3.27,3.11,3.11,0,0,1-1.19,2.43,3.66,3.66,0,0,1,1.34,2.79c.06.56.16,1.4.43,2.76H258.3c-.24-1.33-.35-2.31-.39-2.71-.12-1.14-.56-2-1.73-2Zm2.66-4.68h-2.66v2.8h2.66a1.41,1.41,0,0,0,1.56-1.41A1.39,1.39,0,0,0,256.23,138.41Z"/><path class="cls-1" d="M275.22,141.21v1.86h-.78a1.36,1.36,0,0,0-1.46,1.47,3.51,3.51,0,0,1-7,0,3.23,3.23,0,0,1,1.19-2.5,3.32,3.32,0,0,1-1-2.4,3.26,3.26,0,0,1,3.34-3.35,3.36,3.36,0,0,1,2.81,1.52l-1.41,1.39a1.45,1.45,0,0,0-2.84.44,1.54,1.54,0,0,0,1.44,1.57h.09V143h-.09a1.48,1.48,0,0,0-1.54,1.53,1.53,1.53,0,0,0,1.54,1.58,1.55,1.55,0,0,0,1.55-1.59,1.67,1.67,0,0,1,.58-1.52h-1.41v-1.8Z"/><path class="cls-1" d="M288.54,136.53v1.88l-5.91,9.37h-2.31l6-9.37h-5.1v-1.88Z"/><path class="cls-1" d="M298,140.43c0,2.3-1.61,3.6-4,4.31-1.25.36-1.8.67-2,1.17h5.63v1.87h-8V146c.43-1.48,1.71-2.37,3.85-3,1.55-.43,2.48-1.23,2.48-2.59a2.19,2.19,0,0,0-2.33-2.28,2.46,2.46,0,0,0-2.43,1.92l-1.57-1.38a4.48,4.48,0,0,1,4-2.39A4.1,4.1,0,0,1,298,140.43Z"/><path class="cls-1" d="M300,138.41v-1.88h6.57v1.88L304.9,140a4,4,0,0,1,2.63,3.85,4.17,4.17,0,0,1-4.31,4.14,4.46,4.46,0,0,1-4-2.39l1.57-1.37a2.47,2.47,0,0,0,2.43,1.92,2.3,2.3,0,1,0,0-4.59h-2.52l3.25-3.18Z"/></g></g></svg>