<svg xmlns="http://www.w3.org/2000/svg" width="417.66" height="148.02" viewBox="0 0 417.66 148.02">
    <defs>
        <style>
            .cls-1 {
                fill: #1bafa3;
            }
        </style>
    </defs>
    <title>Asset 21</title>
    <g id="Layer_2" data-name="Layer 2">
        <g id="Layer_1-2" data-name="Layer 1">
            <path class="cls-1"
                d="M57,32.83l-7.93,3.82L57,55.16H47l-6.2-14.48L10.72,55.16H1.14l23-54h9.94L45.78,28.8,57,23.33ZM16,43.06l21.39-10.3L29,12.82Z" />
            <path class="cls-1"
                d="M76.16,28.15A27.92,27.92,0,0,1,104.32,0a27.5,27.5,0,0,1,22.61,11.45l-6.63,6.62a17.78,17.78,0,0,0-16-9.21c-10.88,0-19.08,8.42-19.08,19.29h44.42v27h-9.43V51.05a27.54,27.54,0,0,1-15.91,5.26A27.92,27.92,0,0,1,76.16,28.15Zm44.29,10.08V37H87.25a18.6,18.6,0,0,0,17.07,10.37C111.52,47.38,117.78,43.92,120.45,38.23Z" />
            <path class="cls-1"
                d="M144.63,32.62V55.16h-9.5v-54h22c9.22,0,17.21,6,17.21,15.7a14.88,14.88,0,0,1-5.69,11.66c3.1,2.45,5.62,5.91,6.41,13.4.29,2.66.8,6.69,2.09,13.25h-9.86c-1.16-6.41-1.66-11.09-1.88-13-.57-5.47-2.66-9.5-8.28-9.5Zm12.75-22.47H144.63V23.62h12.75c4.1,0,7.49-2.31,7.49-6.77S161.48,10.15,157.38,10.15Z" />
            <path class="cls-1"
                d="M206.77,0a27.92,27.92,0,0,1,28.16,28.15,28.16,28.16,0,1,1-56.31,0A27.92,27.92,0,0,1,206.77,0Zm0,47.38A19,19,0,0,0,226,28.15a19.19,19.19,0,1,0-38.38,0A19,19,0,0,0,206.77,47.38Z" />
            <path class="cls-1"
                d="M279.57,55.16h-9.51l-3-14.91-3,14.91h-9.51l-21.82-54h10.3l15.26,39.53,3.1-17.06h11.31l3.09,17.06L291.09,1.15h10.29Z" />
            <path class="cls-1" d="M305,1.15h9.5v54H305Z" />
            <path class="cls-1" d="M350.05,1.15h9.36v54H349.19L329.31,18.79V55.16H320v-54h10.3l19.8,36.44Z" />
            <path class="cls-1"
                d="M364.16,28.15A27.92,27.92,0,0,1,392.32,0a27.5,27.5,0,0,1,22.61,11.45l-6.63,6.62a17.78,17.78,0,0,0-16-9.21,18.85,18.85,0,0,0-19.09,19.29h44.43v27h-9.43V51.05a27.54,27.54,0,0,1-15.91,5.26A27.92,27.92,0,0,1,364.16,28.15Zm44.29,10.08V37h-33.2a18.6,18.6,0,0,0,17.07,10.37C399.52,47.38,405.78,43.92,408.45,38.23Z" />
            <path class="cls-1"
                d="M45.28,100.23l6.62,6.63a27.9,27.9,0,0,1-22.61,11.45,28.16,28.16,0,0,1,0-56.31A27.48,27.48,0,0,1,51.9,73.45l-6.62,6.62a17.79,17.79,0,0,0-16-9.21c-10.87,0-19.08,8.42-19.08,19.29a18.79,18.79,0,0,0,19.08,19.23A17.72,17.72,0,0,0,45.28,100.23Z" />
            <path class="cls-1"
                d="M81.49,62A28.16,28.16,0,1,1,53.34,90.15,27.92,27.92,0,0,1,81.49,62Zm0,47.38A19.26,19.26,0,1,0,62.34,90.15,19,19,0,0,0,81.49,109.38Z" />
            <path class="cls-1" d="M143.34,63.15h9.36v54H142.48L122.6,80.79v36.37h-9.36v-54h10.3l19.8,36.44Z" />
            <path class="cls-1"
                d="M202.31,100.23l6.62,6.63A28.14,28.14,0,1,1,186.32,62a27.48,27.48,0,0,1,22.61,11.45l-6.62,6.62a17.79,17.79,0,0,0-16-9.21c-10.87,0-19.08,8.42-19.08,19.29a18.79,18.79,0,0,0,19.08,19.23A17.72,17.72,0,0,0,202.31,100.23Z" />
            <path class="cls-1" d="M212.53,63.15h33.7v9H222V85.62h24.2v9H222v13.54h24.2v9h-33.7Z" />
            <path class="cls-1"
                d="M261.2,94.62v22.54h-9.5v-54h22c9.22,0,17.21,6,17.21,15.7a14.91,14.91,0,0,1-5.69,11.66c3.1,2.45,5.62,5.91,6.41,13.4.29,2.66.79,6.69,2.09,13.25h-9.87c-1.15-6.41-1.65-11.09-1.87-13-.57-5.47-2.66-9.5-8.28-9.5ZM274,72.15H261.2V85.62H274c4.1,0,7.49-2.31,7.49-6.77S278.05,72.15,274,72.15Z" />
            <path class="cls-1" d="M327.44,63.15h9.36v54H326.58L306.7,80.79v36.37h-9.36v-54h10.3l19.8,36.44Z" />
        </g>
    </g>
</svg>