<svg xmlns="http://www.w3.org/2000/svg" width="507.37" height="147.95" viewBox="0 0 507.37 147.95">
    <defs>
        <style>
            .cls-1 {
                fill: #1bafa3;
            }
        </style>
    </defs>
    <title>Asset 20</title>
    <g id="Layer_2" data-name="Layer 2">
        <g id="Layer_1-2" data-name="Layer 1">
            <path class="cls-1" d="M28.07,46.08v9H1.14v-9L30,1.08H40.6v54H31.1V16.2L12.23,46.08Z" />
            <path class="cls-1"
                d="M56.22,15.7c0,4,5,6.19,10.37,8.78,6.34,3.1,13.61,6.91,13.61,15.91,0,9.37-7,15.77-17,15.77-7.06,0-14.48-5.54-17.14-11.37l6.84-6.63C54.85,42.27,58.74,47,63.35,47c4,0,7.2-2.23,7.2-6.41,0-3.53-4.17-5.4-9.14-7.92C55,29.45,46.72,25.49,46.72,15.77,46.72,6.77,53.56,0,63.28,0c7.06,0,14.11,5.54,16.78,11.3l-6.92,6.63c-2-4-5.4-8.86-10-8.86C59.25,9.07,56.22,11.59,56.22,15.7Z" />
            <path class="cls-1" d="M103.67,1.08h33.7v9h-24.2V23.54h24.2v9h-24.2V55.08h-9.5Z" />
            <path class="cls-1" d="M161.77,46.08v9H134.84v-9l28.88-45H174.3v54h-9.5V16.2L145.93,46.08Z" />
            <path class="cls-1"
                d="M189.28,32.55V55.08h-9.51v-54h22c9.21,0,17.21,6,17.21,15.7a14.91,14.91,0,0,1-5.69,11.66c3.09,2.45,5.61,5.91,6.41,13.4.28,2.66.79,6.69,2.08,13.24H212c-1.15-6.4-1.66-11.08-1.87-13-.58-5.47-2.67-9.5-8.28-9.5ZM202,10.08H189.28V23.54H202c4.11,0,7.49-2.3,7.49-6.76S206.13,10.08,202,10.08Z" />
            <path class="cls-1" d="M268.62,46.08v9H241.69v-9l28.88-45h10.58v54h-9.5V16.2L252.78,46.08Z" />
            <path class="cls-1"
                d="M296.77,15.7c0,4,5,6.19,10.37,8.78,6.34,3.1,13.61,6.91,13.61,15.91,0,9.37-7,15.77-17,15.77-7.06,0-14.48-5.54-17.14-11.37l6.84-6.63C295.4,42.27,299.29,47,303.9,47c4,0,7.2-2.23,7.2-6.41,0-3.53-4.17-5.4-9.14-7.92-6.41-3.24-14.69-7.2-14.69-16.92,0-9,6.84-15.77,16.56-15.77,7.06,0,14.11,5.54,16.78,11.3l-6.92,6.63c-2-4-5.4-8.86-10-8.86C299.8,9.07,296.77,11.59,296.77,15.7Z" />
            <path class="cls-1" d="M340.62,1.08h38v9H364.38v45h-9.5v-45H340.62Z" />
            <path class="cls-1" d="M412.62,1.08h9.51v54h-9.51V32.55h-19V55.08h-9.5v-54h9.5V23.54h19Z" />
            <path class="cls-1" d="M427.59,1.08h33.7v9H437.1V23.54h24.19v9H437.1V46.08h24.19v9h-33.7Z" />
            <path class="cls-1" d="M1.14,63.08h33.7v9H10.65V85.54H34.84v9H10.65v13.53H34.84v9H1.14Z" />
            <path class="cls-1" d="M40.31,63.08H50.46L58,83.46l8-20.38H76.38l-23,54H43.48l9.65-22.53Z" />
            <path class="cls-1" d="M80,63.08h33.7v9H89.48V85.54h24.2v9H89.48v13.53h24.2v9H80Z" />
            <path class="cls-1"
                d="M181.29,100.16l6.62,6.63A28.14,28.14,0,1,1,165.3,61.93a27.49,27.49,0,0,1,22.61,11.45L181.29,80a17.77,17.77,0,0,0-16-9.21c-10.87,0-19.08,8.42-19.08,19.29a18.79,18.79,0,0,0,19.08,19.23A17.72,17.72,0,0,0,181.29,100.16Z" />
            <path class="cls-1"
                d="M216.78,61.93a28.16,28.16,0,1,1-28.15,28.15A27.92,27.92,0,0,1,216.78,61.93Zm0,47.38a19.26,19.26,0,1,0-19.15-19.23A19,19,0,0,0,216.78,109.31Z" />
            <path class="cls-1"
                d="M285.83,99.88c0,10.87-8.5,18.36-19,18.36s-19-7.49-19-18.36V63.08h9.5V100c0,5.54,4,9.36,9.51,9.36s9.5-3.82,9.5-9.36V63.08h9.51Z" />
            <path class="cls-1" d="M291.3,63.08h9.5v43.2l25.06-15.84V101.1l-25.06,16h-9.5Z" />
            <path class="cls-1"
                d="M331.33,63.08h12.38c15.49,0,28.45,11.09,28.45,27s-13,27-28.45,27H331.33Zm12.6,45c11,.08,18.79-7,18.79-18s-7.77-18-18.79-18h-3.1v36Z" />
            <path class="cls-1"
                d="M405.06,77.7c0,4,5,6.19,10.37,8.78,6.33,3.1,13.61,6.91,13.61,15.91,0,9.37-7,15.77-17,15.77-7.05,0-14.47-5.54-17.14-11.37l6.85-6.63c1.94,4.11,5.83,8.86,10.44,8.86,4,0,7.2-2.23,7.2-6.41,0-3.53-4.18-5.4-9.15-7.92-6.41-3.24-14.69-7.2-14.69-16.92,0-9,6.84-15.77,16.56-15.77,7.06,0,14.12,5.54,16.78,11.3L422,79.93c-2-4-5.4-8.86-10-8.86C408.08,71.07,405.06,73.59,405.06,77.7Z" />
            <path class="cls-1" d="M434.5,63.08h33.7v9H444V85.54H468.2v9H444v13.53H468.2v9H434.5Z" />
            <path class="cls-1" d="M473.67,63.08h33.7v9H483.18V85.54h24.19v9H483.18v13.53h24.19v9h-33.7Z" />
                    </g>
    </g>
</svg>