<svg xmlns="http://www.w3.org/2000/svg" width="417.66" height="148.02" viewBox="0 0 417.66 148.02"><defs><style>.cls-1{fill:#1bafa3;}</style></defs><title>Asset 21</title><g id="Layer_2" data-name="Layer 2"><g id="Layer_1-2" data-name="Layer 1"><path class="cls-1" d="M57,32.83l-7.93,3.82L57,55.16H47l-6.2-14.48L10.72,55.16H1.14l23-54h9.94L45.78,28.8,57,23.33ZM16,43.06l21.39-10.3L29,12.82Z"/><path class="cls-1" d="M76.16,28.15A27.92,27.92,0,0,1,104.32,0a27.5,27.5,0,0,1,22.61,11.45l-6.63,6.62a17.78,17.78,0,0,0-16-9.21c-10.88,0-19.08,8.42-19.08,19.29h44.42v27h-9.43V51.05a27.54,27.54,0,0,1-15.91,5.26A27.92,27.92,0,0,1,76.16,28.15Zm44.29,10.08V37H87.25a18.6,18.6,0,0,0,17.07,10.37C111.52,47.38,117.78,43.92,120.45,38.23Z"/><path class="cls-1" d="M144.63,32.62V55.16h-9.5v-54h22c9.22,0,17.21,6,17.21,15.7a14.88,14.88,0,0,1-5.69,11.66c3.1,2.45,5.62,5.91,6.41,13.4.29,2.66.8,6.69,2.09,13.25h-9.86c-1.16-6.41-1.66-11.09-1.88-13-.57-5.47-2.66-9.5-8.28-9.5Zm12.75-22.47H144.63V23.62h12.75c4.1,0,7.49-2.31,7.49-6.77S161.48,10.15,157.38,10.15Z"/><path class="cls-1" d="M206.77,0a27.92,27.92,0,0,1,28.16,28.15,28.16,28.16,0,1,1-56.31,0A27.92,27.92,0,0,1,206.77,0Zm0,47.38A19,19,0,0,0,226,28.15a19.19,19.19,0,1,0-38.38,0A19,19,0,0,0,206.77,47.38Z"/><path class="cls-1" d="M279.57,55.16h-9.51l-3-14.91-3,14.91h-9.51l-21.82-54h10.3l15.26,39.53,3.1-17.06h11.31l3.09,17.06L291.09,1.15h10.29Z"/><path class="cls-1" d="M305,1.15h9.5v54H305Z"/><path class="cls-1" d="M350.05,1.15h9.36v54H349.19L329.31,18.79V55.16H320v-54h10.3l19.8,36.44Z"/><path class="cls-1" d="M364.16,28.15A27.92,27.92,0,0,1,392.32,0a27.5,27.5,0,0,1,22.61,11.45l-6.63,6.62a17.78,17.78,0,0,0-16-9.21,18.85,18.85,0,0,0-19.09,19.29h44.43v27h-9.43V51.05a27.54,27.54,0,0,1-15.91,5.26A27.92,27.92,0,0,1,364.16,28.15Zm44.29,10.08V37h-33.2a18.6,18.6,0,0,0,17.07,10.37C399.52,47.38,405.78,43.92,408.45,38.23Z"/><path class="cls-1" d="M45.28,100.23l6.62,6.63a27.9,27.9,0,0,1-22.61,11.45,28.16,28.16,0,0,1,0-56.31A27.48,27.48,0,0,1,51.9,73.45l-6.62,6.62a17.79,17.79,0,0,0-16-9.21c-10.87,0-19.08,8.42-19.08,19.29a18.79,18.79,0,0,0,19.08,19.23A17.72,17.72,0,0,0,45.28,100.23Z"/><path class="cls-1" d="M81.49,62A28.16,28.16,0,1,1,53.34,90.15,27.92,27.92,0,0,1,81.49,62Zm0,47.38A19.26,19.26,0,1,0,62.34,90.15,19,19,0,0,0,81.49,109.38Z"/><path class="cls-1" d="M143.34,63.15h9.36v54H142.48L122.6,80.79v36.37h-9.36v-54h10.3l19.8,36.44Z"/><path class="cls-1" d="M202.31,100.23l6.62,6.63A28.14,28.14,0,1,1,186.32,62a27.48,27.48,0,0,1,22.61,11.45l-6.62,6.62a17.79,17.79,0,0,0-16-9.21c-10.87,0-19.08,8.42-19.08,19.29a18.79,18.79,0,0,0,19.08,19.23A17.72,17.72,0,0,0,202.31,100.23Z"/><path class="cls-1" d="M212.53,63.15h33.7v9H222V85.62h24.2v9H222v13.54h24.2v9h-33.7Z"/><path class="cls-1" d="M261.2,94.62v22.54h-9.5v-54h22c9.22,0,17.21,6,17.21,15.7a14.91,14.91,0,0,1-5.69,11.66c3.1,2.45,5.62,5.91,6.41,13.4.29,2.66.79,6.69,2.09,13.25h-9.87c-1.15-6.41-1.65-11.09-1.87-13-.57-5.47-2.66-9.5-8.28-9.5ZM274,72.15H261.2V85.62H274c4.1,0,7.49-2.31,7.49-6.77S278.05,72.15,274,72.15Z"/><path class="cls-1" d="M327.44,63.15h9.36v54H326.58L306.7,80.79v36.37h-9.36v-54h10.3l19.8,36.44Z"/><path class="cls-1" d="M9.19,144.25l1.39,1.38A5.81,5.81,0,0,1,5.87,148a5.87,5.87,0,1,1,0-11.73,5.74,5.74,0,0,1,4.71,2.38l-1.39,1.38a3.68,3.68,0,0,0-3.32-1.92,4,4,0,0,0,0,8A3.67,3.67,0,0,0,9.19,144.25Z"/><path class="cls-1" d="M17.1,136.29a5.87,5.87,0,1,1-5.87,5.86A5.81,5.81,0,0,1,17.1,136.29Zm0,9.87a4,4,0,1,0-4-4A4,4,0,0,0,17.1,146.16Z"/><path class="cls-1" d="M24.07,136.53h2.58a5.63,5.63,0,1,1,0,11.25H24.07Zm2.63,9.37a3.75,3.75,0,1,0,0-7.5h-.65v7.5Z"/><path class="cls-1" d="M33.54,136.53h7v1.87h-5v2.81h5v1.87h-5v2.82h5v1.88h-7Z"/><path class="cls-1" d="M47.94,136.53h2v11.25H47.76l-4.14-7.58v7.58H41.67V136.53h2.15l4.12,7.59Z"/><path class="cls-1" d="M62.64,147.78H60.55L59,144.15l-6,3.63H51l4.79-11.25h2.06ZM54.2,145l4-2.69L56.8,139Z"/><path class="cls-1" d="M68.37,143.38l1.41-6.85H73v11.25H71.05V139.5l-1.84,8.28H67.53l-1.84-8.28v8.28H63.75V136.53H67Z"/><path class="cls-1" d="M74.1,136.53h7v1.87h-5v2.81h5v1.87h-5v2.82h5v1.88h-7Z"/><path class="cls-1" d="M85.28,141l-1.53,1.09L82.23,141l.57-1.76h1.89Zm0,5-1.53-1.09L82.23,146l.57,1.76h1.89Z"/><path class="cls-1" d="M93,139.57c0,.83,1,1.29,2.16,1.83,1.32.65,2.84,1.44,2.84,3.32A3.26,3.26,0,0,1,94.46,148a4.33,4.33,0,0,1-3.58-2.37l1.43-1.38c.4.86,1.21,1.85,2.17,1.85a1.35,1.35,0,0,0,1.5-1.34c0-.73-.86-1.12-1.9-1.65-1.33-.67-3.06-1.5-3.06-3.52a3.27,3.27,0,0,1,3.45-3.29A4.2,4.2,0,0,1,98,138.66L96.52,140c-.42-.84-1.12-1.85-2.08-1.85A1.35,1.35,0,0,0,93,139.57Z"/><path class="cls-1" d="M110.14,147.78h-2.08l-1.55-3.63-6,3.63h-2l4.79-11.25h2.07ZM101.7,145l4-2.69L104.31,139Z"/><path class="cls-1" d="M115.88,143.38l1.41-6.85h3.21v11.25h-1.94V139.5l-1.84,8.28H115l-1.85-8.28v8.28h-1.93V136.53h3.21Z"/><path class="cls-1" d="M129.53,144.19a4,4,0,0,1-7.92,0v-7.66h2v7.69a2,2,0,0,0,4,0v-7.69h2Z"/><path class="cls-1" d="M130.63,136.53h7v1.87h-5v2.81h5v1.87h-5v2.82h5v1.88h-7Z"/><path class="cls-1" d="M138.76,136.53h2v9l5.21-3.3v2.22l-5.21,3.33h-2Z"/><path class="cls-1" d="M160.77,144.25l1.38,1.38a5.86,5.86,0,1,1-4.71-9.34,5.72,5.72,0,0,1,4.71,2.38l-1.38,1.38a3.7,3.7,0,0,0-3.33-1.92,4,4,0,0,0,0,8A3.69,3.69,0,0,0,160.77,144.25Z"/><path class="cls-1" d="M171.18,144.19a4,4,0,0,1-7.92,0v-7.66h2v7.69a2,2,0,0,0,4,0v-7.69h2Z"/><path class="cls-1" d="M172.29,136.53h2v9l5.22-3.3v2.22l-5.22,3.33h-2Z"/><path class="cls-1" d="M182.58,143.08v4.7h-2V136.53H185a3.29,3.29,0,1,1,0,6.55Zm2.5-4.68h-2.5v2.81h2.5a1.42,1.42,0,0,0,1.56-1.41A1.39,1.39,0,0,0,185.08,138.4Z"/><path class="cls-1" d="M189.73,136.53h7v1.87h-5v2.81h5v1.87h-5v2.82h5v1.88h-7Z"/><path class="cls-1" d="M199.84,143.08v4.7h-2V136.53h4.59A3.34,3.34,0,0,1,206,139.8a3.12,3.12,0,0,1-1.19,2.43,3.66,3.66,0,0,1,1.34,2.79c.06.55.16,1.39.43,2.76h-2.05c-.24-1.34-.35-2.31-.39-2.72-.12-1.14-.56-2-1.73-2Zm2.66-4.68h-2.66v2.81h2.66a1.41,1.41,0,1,0,0-2.81Z"/><path class="cls-1" d="M216.19,144a3.62,3.62,0,0,1-4,3.78V145.9a1.68,1.68,0,0,0,2-1.81v-7.56h2Z"/><path class="cls-1" d="M225.22,144.19a4,4,0,0,1-7.92,0v-7.66h2v7.69a2,2,0,0,0,4,0v-7.69h2Z"/><path class="cls-1" d="M232.6,136.53h2v11.25h-2.13l-4.14-7.58v7.58h-1.95V136.53h2.15l4.12,7.59Z"/><path class="cls-1" d="M235.66,136.53h2v11.25h-2Z"/><path class="cls-1" d="M244.62,136.29a5.87,5.87,0,1,1-5.87,5.86A5.81,5.81,0,0,1,244.62,136.29Zm0,9.87a4,4,0,1,0-4-4A4,4,0,0,0,244.62,146.16Z"/><path class="cls-1" d="M253.57,143.08v4.7h-2V136.53h4.59a3.34,3.34,0,0,1,3.59,3.27,3.12,3.12,0,0,1-1.19,2.43,3.66,3.66,0,0,1,1.34,2.79c.06.55.16,1.39.43,2.76H258.3c-.24-1.34-.35-2.31-.39-2.72-.12-1.14-.56-2-1.73-2Zm2.66-4.68h-2.66v2.81h2.66a1.41,1.41,0,1,0,0-2.81Z"/><path class="cls-1" d="M275.22,141.21v1.86h-.78a1.36,1.36,0,0,0-1.46,1.47,3.51,3.51,0,0,1-7,0,3.25,3.25,0,0,1,1.19-2.51,3.32,3.32,0,0,1-1-2.4,3.25,3.25,0,0,1,3.34-3.34,3.38,3.38,0,0,1,2.81,1.51l-1.41,1.4a1.45,1.45,0,0,0-2.84.43,1.54,1.54,0,0,0,1.44,1.58h.09V143h-.09a1.47,1.47,0,0,0-1.54,1.53,1.55,1.55,0,1,0,3.09,0,1.65,1.65,0,0,1,.58-1.51h-1.41v-1.8Z"/><path class="cls-1" d="M288.54,136.53v1.87l-5.91,9.38h-2.31l6-9.38h-5.1v-1.87Z"/><path class="cls-1" d="M298,140.43c0,2.29-1.61,3.6-4,4.3-1.25.36-1.8.68-2,1.17h5.63v1.88h-8V146c.43-1.49,1.71-2.37,3.85-3,1.55-.44,2.48-1.23,2.48-2.6a2.2,2.2,0,0,0-2.33-2.28,2.47,2.47,0,0,0-2.43,1.92l-1.57-1.38a4.49,4.49,0,0,1,4-2.38A4.09,4.09,0,0,1,298,140.43Z"/><path class="cls-1" d="M300,138.4v-1.87h6.57v1.87L304.9,140a4,4,0,0,1,2.63,3.86,4.17,4.17,0,0,1-4.31,4.14,4.46,4.46,0,0,1-4-2.39l1.57-1.38a2.46,2.46,0,0,0,2.43,1.92,2.3,2.3,0,1,0,0-4.59h-2.52L304,138.4Z"/></g></g></svg>