<svg xmlns="http://www.w3.org/2000/svg" width="307.53" height="147.95" viewBox="0 0 307.53 147.95">
    <defs>
        <style>
            .cls-1 {
                fill: #fff;
            }
        </style>
    </defs>
    <title>Asset 25</title>
    <g id="Layer_2" data-name="Layer 2">
        <g id="Layer_1-2" data-name="Layer 1">
            <path class="cls-1" d="M1.14,1.08h33.7v9H10.64V23.55h24.2v9H10.64V55.08H1.14Z" />
            <path class="cls-1" d="M40.31,1.08h9.5v54h-9.5Z" />
            <path class="cls-1"
                d="M64.79,32.55V55.08H55.28v-54h22c9.21,0,17.21,6,17.21,15.7a14.91,14.91,0,0,1-5.69,11.66c3.09,2.45,5.61,5.91,6.41,13.4.28,2.66.79,6.69,2.08,13.24H87.47c-1.15-6.4-1.66-11.08-1.87-13-.58-5.47-2.67-9.5-8.28-9.5ZM77.53,10.08H64.79V23.55H77.53c4.11,0,7.49-2.31,7.49-6.77S81.64,10.08,77.53,10.08Z" />
            <path class="cls-1"
                d="M110.36,15.7c0,4,5,6.19,10.37,8.78,6.34,3.1,13.61,6.91,13.61,15.92,0,9.36-7,15.77-17,15.77-7.06,0-14.48-5.55-17.14-11.38l6.84-6.63C109,42.27,112.88,47,117.49,47c4,0,7.2-2.23,7.2-6.41,0-3.53-4.17-5.4-9.14-7.92-6.41-3.24-14.69-7.2-14.69-16.92,0-9,6.84-15.77,16.56-15.77,7.06,0,14.11,5.54,16.78,11.31l-6.92,6.62c-2-4-5.4-8.86-10-8.86C113.39,9.07,110.36,11.59,110.36,15.7Z" />
            <path class="cls-1" d="M138.37,1.08h38v9H162.13v45h-9.5v-45H138.37Z" />
            <path class="cls-1"
                d="M45.28,100.16l6.62,6.63a27.9,27.9,0,0,1-22.61,11.45,28.16,28.16,0,0,1,0-56.31A27.48,27.48,0,0,1,51.9,73.38L45.28,80a17.79,17.79,0,0,0-16-9.21c-10.87,0-19.08,8.42-19.08,19.29a18.79,18.79,0,0,0,19.08,19.23A17.72,17.72,0,0,0,45.28,100.16Z" />
            <path class="cls-1"
                d="M81.49,61.93A28.16,28.16,0,1,1,53.34,90.08,27.92,27.92,0,0,1,81.49,61.93Zm0,47.38A19.26,19.26,0,1,0,62.34,90.08,19,19,0,0,0,81.49,109.31Z" />
            <path class="cls-1" d="M113.24,63.08h9.51v43.2L147.8,90.44V101.1l-25.05,16h-9.51Z" />
            <path class="cls-1"
                d="M179.56,61.93A28.16,28.16,0,1,1,151.4,90.08,27.92,27.92,0,0,1,179.56,61.93Zm0,47.38A19.26,19.26,0,1,0,160.4,90.08,19,19,0,0,0,179.56,109.31Z" />
            <path class="cls-1" d="M241.4,63.08h9.36v54H240.54L220.66,80.72v36.36H211.3v-54h10.3l19.8,36.44Z" />
            <path class="cls-1" d="M256.23,63.08h10.16L274,83.46l8-20.38h10.37l-23,54H259.4l9.65-22.53Z" />
        </g>
    </g>
</svg>