<svg xmlns="http://www.w3.org/2000/svg" width="402.98" height="56.31" viewBox="0 0 402.98 56.31"><defs><style>.cls-1{fill:#fff;}</style></defs><title>Asset 26</title><g id="Layer_2" data-name="Layer 2"><g id="Layer_1-2" data-name="Layer 1"><path class="cls-1" d="M0,1.15H38v9H23.76v45h-9.5v-45H0Z"/><path class="cls-1" d="M72,1.15h9.51v54H72V32.62H53V55.16h-9.5v-54H53V23.62H72Z"/><path class="cls-1" d="M87,1.15h33.69v9H96.48V23.62h24.19v9H96.48V46.16h24.19v9H87Z"/><path class="cls-1" d="M144.14,1.15h10l11.59,40.18L177.41,1.15h10l-16.71,54h-9.93Z"/><path class="cls-1" d="M214.13,0a27.92,27.92,0,0,1,28.15,28.16,28.16,28.16,0,0,1-56.31,0A27.93,27.93,0,0,1,214.13,0Zm0,47.38a19,19,0,0,0,19.22-19.22,19.19,19.19,0,1,0-38.37,0A19,19,0,0,0,214.13,47.38Z"/><path class="cls-1" d="M241.56,1.15h10.15l7.56,20.38,8-20.38h10.37l-23,54h-9.93l9.65-22.54Z"/><path class="cls-1" d="M293,46.16v9H266.11v-9L295,1.15h10.59v54h-9.51V16.27L277.2,46.16Z"/><path class="cls-1" d="M310.32,28.16A27.92,27.92,0,0,1,338.47,0a27.49,27.49,0,0,1,22.61,11.45l-6.62,6.62a17.79,17.79,0,0,0-16-9.21c-10.87,0-19.08,8.42-19.08,19.3h44.43v27h-9.43V51.05a27.57,27.57,0,0,1-15.92,5.26A27.92,27.92,0,0,1,310.32,28.16ZM354.6,38.24V37H321.41a18.58,18.58,0,0,0,17.06,10.37C345.67,47.38,351.94,43.92,354.6,38.24Z"/><path class="cls-1" d="M369.28,1.15H403v9H378.79V23.62H403v9H378.79V46.16H403v9h-33.7Z"/></g></g></svg>