<svg xmlns="http://www.w3.org/2000/svg" width="307.53" height="146.87" viewBox="0 0 307.53 146.87">
    <defs>
        <style>
            .cls-1 {
                fill: #fff;
            }
        </style>
    </defs>
    <title>Asset 23</title>
    <g id="Layer_2" data-name="Layer 2">
        <g id="Layer_1-2" data-name="Layer 1">
            <path class="cls-1"
                d="M10.64,31.47V54H1.14V0H22.45c9.22,0,17.21,6,17.21,15.7s-8,15.77-17.21,15.77ZM22.67,9h-12V22.47h12c4.1,0,7.49-2.45,7.49-6.77S26.77,9,22.67,9Z" />
            <path class="cls-1" d="M45.13,0h33.7V9H54.64V22.47H78.83v9H54.64V45H78.83v9H45.13Z" />
            <path class="cls-1" d="M114.4,0h9.36V54H113.53L93.66,17.64V54H84.3V0H94.6l19.8,36.44Z" />
            <path class="cls-1" d="M155,45v9H128.07V45L157,0h10.58V54H158V15.12L139.16,45Z" />
            <path class="cls-1" d="M173,0h9.51V43.2l25.05-15.84V38L182.51,54H173Z" />
            <path class="cls-1"
                d="M45.28,99.08l6.62,6.63a27.9,27.9,0,0,1-22.61,11.45,28.16,28.16,0,0,1,0-56.31A27.48,27.48,0,0,1,51.9,72.3l-6.62,6.62a17.79,17.79,0,0,0-16-9.21c-10.87,0-19.08,8.42-19.08,19.29a18.79,18.79,0,0,0,19.08,19.23A17.72,17.72,0,0,0,45.28,99.08Z" />
            <path class="cls-1"
                d="M81.49,60.85A28.16,28.16,0,1,1,53.34,89,27.92,27.92,0,0,1,81.49,60.85Zm0,47.38A19.26,19.26,0,1,0,62.34,89,19,19,0,0,0,81.49,108.23Z" />
            <path class="cls-1" d="M113.24,62h9.51v43.2L147.8,89.36V100l-25.05,16h-9.51Z" />
            <path class="cls-1"
                d="M179.56,60.85A28.16,28.16,0,1,1,151.4,89,27.92,27.92,0,0,1,179.56,60.85Zm0,47.38A19.26,19.26,0,1,0,160.4,89,19,19,0,0,0,179.56,108.23Z" />
            <path class="cls-1" d="M241.4,62h9.36v54H240.54L220.67,79.64V116H211.3V62h10.3l19.8,36.44Z" />
            <path class="cls-1" d="M256.23,62h10.16L274,82.38l8-20.38h10.37l-23,54H259.4l9.65-22.53Z" />
        </g>
    </g>
</svg>