<svg id="Layer_1" data-name="Layer 1" xmlns="http://www.w3.org/2000/svg" viewBox="0 0 240.34 700.05"><defs><style>.cls-1{fill:none;stroke:#000;stroke-miterlimit:10;stroke-width:2px;}</style></defs><title>Khari3D_tooltips</title><path d="M473.93,795.76v-4.5h4.75V775.1l-4.75,4.82v-6.15l4.86-5h4.65v22.5h4.75v4.5Z" transform="translate(-403.47 -103.68)"/><path d="M491.75,773.26v-4.5h15.77v4.5l-3.89,3.89a9.58,9.58,0,0,1,6.3,9.25,10,10,0,0,1-10.33,9.94,10.71,10.71,0,0,1-9.61-5.73l3.78-3.31a5.9,5.9,0,0,0,5.83,4.61,5.51,5.51,0,1,0,.11-11h-6l7.81-7.63Z" transform="translate(-403.47 -103.68)"/><path d="M523.43,795.76h-5.25l4.64-7a3.13,3.13,0,0,1-.61,0,10.33,10.33,0,1,1,10.36-10.3,10.68,10.68,0,0,1-1.76,5.8Zm-1.22-23.14a5.92,5.92,0,1,0,5.72,6A5.71,5.71,0,0,0,522.21,772.62Z" transform="translate(-403.47 -103.68)"/><path d="M544.42,791.91c3.42,0,5.69-4.36,5.69-9.65s-2.23-9.64-5.69-9.64v-4.43c6.05,0,10.4,6.3,10.4,14.07s-4.39,14.08-10.4,14.08S534,790,534,782.26c0-6.37,3-11.77,7.34-13.5l3.06,3.86c-3.46,0-5.69,4.35-5.69,9.64S541,791.91,544.42,791.91Z" transform="translate(-403.47 -103.68)"/><path d="M556.26,780h11v4.5h-11Z" transform="translate(-403.47 -103.68)"/><path d="M568.68,795.76v-4.5h4.76V775.1l-4.76,4.82v-6.15l4.86-5h4.65v22.5h4.75v4.5Z" transform="translate(-403.47 -103.68)"/><path d="M587.22,781.87a7.79,7.79,0,0,1-2.44-5.73,8,8,0,1,1,13.64,5.73,8,8,0,0,1,2.84,6.12,8.44,8.44,0,0,1-16.88,0A8,8,0,0,1,587.22,781.87ZM589.1,788a3.73,3.73,0,1,0,3.74-3.82A3.68,3.68,0,0,0,589.1,788Zm7.19-11.85a3.47,3.47,0,1,0-6.94,0,3.47,3.47,0,1,0,6.94,0Z" transform="translate(-403.47 -103.68)"/><path d="M606.52,768.76h13.75v4.5h-11l-1.76,3.17h5c5.69,0,10.18,4,10.18,10a10,10,0,0,1-10.33,9.94,10.72,10.72,0,0,1-9.61-5.73l3.78-3.31a5.9,5.9,0,0,0,5.83,4.61,5.35,5.35,0,0,0,5.62-5.54c0-3.28-2.45-5.48-5.76-5.48H602.7v-4.42Z" transform="translate(-403.47 -103.68)"/><path d="M643.81,768.76v4.5l-14.18,22.5h-5.54l14.36-22.5H626.21v-4.5Z" transform="translate(-403.47 -103.68)"/><path d="M473.93,733v-4.5h4.75V712.33l-4.75,4.83V711l4.86-5h4.65v22.5h4.75V733Z" transform="translate(-403.47 -103.68)"/><path d="M492.47,719.1a7.79,7.79,0,0,1-2.44-5.72,8,8,0,1,1,13.64,5.72,8,8,0,0,1,2.84,6.12,8.44,8.44,0,0,1-16.88,0A8,8,0,0,1,492.47,719.1Zm1.87,6.12a3.73,3.73,0,1,0,3.75-3.81A3.69,3.69,0,0,0,494.34,725.22Zm7.2-11.84a3.47,3.47,0,1,0-6.94,0,3.47,3.47,0,1,0,6.94,0Z" transform="translate(-403.47 -103.68)"/><path d="M511.77,706h13.75v4.5h-11l-1.77,3.17h5c5.68,0,10.18,4,10.18,10a10,10,0,0,1-10.33,9.93,10.73,10.73,0,0,1-9.61-5.72l3.78-3.31a5.9,5.9,0,0,0,5.83,4.6,5.34,5.34,0,0,0,5.62-5.54c0-3.27-2.45-5.47-5.76-5.47H508V713.7Z" transform="translate(-403.47 -103.68)"/><path d="M549.06,706v4.5L534.88,733h-5.54l14.36-22.5H531.46V706Z" transform="translate(-403.47 -103.68)"/><path d="M473.93,675.15v-4.5h4.75V654.49l-4.75,4.83v-6.16l4.86-5h4.65v22.49h4.75v4.5Z" transform="translate(-403.47 -103.68)"/><path d="M492.47,661.26a7.79,7.79,0,0,1-2.44-5.73,8,8,0,1,1,13.64,5.73,8,8,0,0,1,2.84,6.12,8.44,8.44,0,0,1-16.88,0A8,8,0,0,1,492.47,661.26Zm1.87,6.12a3.73,3.73,0,1,0,3.75-3.82A3.69,3.69,0,0,0,494.34,667.38Zm7.2-11.85a3.47,3.47,0,1,0-6.94,0,3.47,3.47,0,1,0,6.94,0Z" transform="translate(-403.47 -103.68)"/><path d="M527.32,648.16v4.5l-14.18,22.49h-5.55L522,652.66H509.72v-4.5Z" transform="translate(-403.47 -103.68)"/><path d="M539.16,671.3c3.42,0,5.69-4.35,5.69-9.65s-2.23-9.64-5.69-9.64v-4.43c6.05,0,10.41,6.3,10.41,14.07s-4.4,14.08-10.41,14.08-10.4-6.3-10.4-14.08c0-6.37,3-11.77,7.34-13.49l3.06,3.85c-3.45,0-5.68,4.35-5.68,9.64S535.74,671.3,539.16,671.3Z" transform="translate(-403.47 -103.68)"/><path d="M473.93,617.06v-4.5h4.75V596.4l-4.75,4.82v-6.15l4.86-5h4.65v22.5h4.75v4.5Z" transform="translate(-403.47 -103.68)"/><path d="M492.47,603.17a7.79,7.79,0,0,1-2.44-5.73,8,8,0,1,1,13.64,5.73,8,8,0,0,1,2.84,6.12,8.44,8.44,0,0,1-16.88,0A8,8,0,0,1,492.47,603.17Zm1.87,6.12a3.73,3.73,0,1,0,3.75-3.82A3.68,3.68,0,0,0,494.34,609.29Zm7.2-11.85a3.47,3.47,0,1,0-6.94,0,3.47,3.47,0,1,0,6.94,0Z" transform="translate(-403.47 -103.68)"/><path d="M527.32,590.06v4.5l-14.18,22.5h-5.55L522,594.56H509.72v-4.5Z" transform="translate(-403.47 -103.68)"/><path d="M542.08,608.53v8.53H537.4v-8.53H525.88v-4.46l11.16-14h5v14h4v4.46Zm-4.61-4.46v-8l-6.44,8Z" transform="translate(-403.47 -103.68)"/><path d="M473.93,557.49V553h4.76V536.83l-4.76,4.83V535.5l4.86-5h4.65V553h4.75v4.5Z" transform="translate(-403.47 -103.68)"/><path d="M492.47,543.6a7.79,7.79,0,0,1-2.44-5.72,8,8,0,1,1,13.64,5.72,8,8,0,0,1,2.84,6.12,8.44,8.44,0,0,1-16.88,0A8,8,0,0,1,492.47,543.6Zm1.88,6.12a3.72,3.72,0,1,0,3.74-3.82A3.68,3.68,0,0,0,494.35,549.72Zm7.19-11.84a3.47,3.47,0,1,0-6.94,0,3.47,3.47,0,1,0,6.94,0Z" transform="translate(-403.47 -103.68)"/><path d="M527.32,530.5V535l-14.18,22.49h-5.55L522,535H509.72v-4.5Z" transform="translate(-403.47 -103.68)"/><path d="M535.74,530.5H541l-4.64,6.94a4.16,4.16,0,0,1,.61,0A10.33,10.33,0,1,1,526.6,547.7a10.66,10.66,0,0,1,1.77-5.79ZM537,553.64a5.92,5.92,0,1,0-5.73-6A5.72,5.72,0,0,0,537,553.64Z" transform="translate(-403.47 -103.68)"/><path d="M473.93,497.19v-4.5h4.75V476.53l-4.75,4.82v-6.16l4.86-5h4.65v22.5h4.75v4.5Z" transform="translate(-403.47 -103.68)"/><path d="M492.47,483.29a7.79,7.79,0,0,1-2.44-5.72,8,8,0,1,1,13.64,5.72,8,8,0,0,1,2.84,6.12,8.44,8.44,0,0,1-16.88,0A8,8,0,0,1,492.47,483.29Zm1.87,6.12a3.73,3.73,0,1,0,3.75-3.81A3.68,3.68,0,0,0,494.34,489.41Zm7.2-11.84a3.47,3.47,0,1,0-6.94,0,3.47,3.47,0,1,0,6.94,0Z" transform="translate(-403.47 -103.68)"/><path d="M510.8,483.29a7.8,7.8,0,0,1-2.45-5.72,8,8,0,0,1,16.09,0,7.91,7.91,0,0,1-2.45,5.72,8,8,0,0,1,2.84,6.12,8.44,8.44,0,0,1-16.88,0A8,8,0,0,1,510.8,483.29Zm1.87,6.12a3.73,3.73,0,1,0,3.74-3.81A3.68,3.68,0,0,0,512.67,489.41Zm7.2-11.84a3.48,3.48,0,1,0-7,0,3.48,3.48,0,1,0,7,0Z" transform="translate(-403.47 -103.68)"/><path d="M542.47,488.66v8.53h-4.68v-8.53H526.28v-4.47l11.16-14h5v14h4v4.47Zm-4.6-4.47v-8l-6.45,8Z" transform="translate(-403.47 -103.68)"/><path d="M473.93,436.88v-4.5h4.75V416.22L473.93,421v-6.15l4.86-5h4.65v22.49h4.75v4.5Z" transform="translate(-403.47 -103.68)"/><path d="M492.47,423a7.79,7.79,0,0,1-2.44-5.72A8,8,0,1,1,503.67,423a8,8,0,0,1,2.84,6.12,8.44,8.44,0,0,1-16.88,0A8,8,0,0,1,492.47,423Zm1.87,6.12a3.73,3.73,0,1,0,3.75-3.82A3.69,3.69,0,0,0,494.34,429.11Zm7.2-11.84a3.47,3.47,0,1,0-6.94,0,3.47,3.47,0,1,0,6.94,0Z" transform="translate(-403.47 -103.68)"/><path d="M510.8,423a7.8,7.8,0,0,1-2.45-5.72,8,8,0,0,1,16.09,0A7.91,7.91,0,0,1,522,423a8,8,0,0,1,2.84,6.12,8.44,8.44,0,0,1-16.88,0A8,8,0,0,1,510.8,423Zm1.87,6.12a3.73,3.73,0,1,0,3.74-3.82A3.68,3.68,0,0,0,512.67,429.11Zm7.2-11.84a3.48,3.48,0,1,0-7,0,3.48,3.48,0,1,0,7,0Z" transform="translate(-403.47 -103.68)"/><path d="M530.09,409.89h13.75v4.5H532.79L531,417.55h5c5.69,0,10.19,4,10.19,10a10,10,0,0,1-10.33,9.94,10.71,10.71,0,0,1-9.61-5.72l3.78-3.32a5.9,5.9,0,0,0,5.83,4.61,5.34,5.34,0,0,0,5.61-5.54c0-3.28-2.45-5.47-5.76-5.47h-9.46v-4.43Z" transform="translate(-403.47 -103.68)"/><path d="M473.93,375.59v-4.5h4.75V354.93l-4.75,4.83V353.6l4.86-5h4.65v22.49h4.75v4.5Z" transform="translate(-403.47 -103.68)"/><path d="M492.47,361.7A7.79,7.79,0,0,1,490,356a8,8,0,1,1,13.64,5.72,8,8,0,0,1,2.84,6.12,8.44,8.44,0,0,1-16.88,0A8,8,0,0,1,492.47,361.7Zm1.87,6.12a3.73,3.73,0,1,0,3.75-3.82A3.69,3.69,0,0,0,494.34,367.82Zm7.2-11.84a3.47,3.47,0,1,0-6.94,0,3.47,3.47,0,1,0,6.94,0Z" transform="translate(-403.47 -103.68)"/><path d="M510.8,361.7a7.8,7.8,0,0,1-2.45-5.72,8,8,0,0,1,16.09,0A7.91,7.91,0,0,1,522,361.7a8,8,0,0,1,2.84,6.12,8.44,8.44,0,0,1-16.88,0A8,8,0,0,1,510.8,361.7Zm1.87,6.12a3.73,3.73,0,1,0,3.74-3.82A3.68,3.68,0,0,0,512.67,367.82Zm7.2-11.84a3.48,3.48,0,1,0-7,0,3.48,3.48,0,1,0,7,0Z" transform="translate(-403.47 -103.68)"/><path d="M545.64,348.6v4.5l-14.18,22.49h-5.54l14.36-22.49H528v-4.5Z" transform="translate(-403.47 -103.68)"/><path d="M473.93,318.49V314h4.75V297.82l-4.75,4.83v-6.16l4.86-5h4.65V314h4.75v4.5Z" transform="translate(-403.47 -103.68)"/><path d="M492.47,304.59a7.79,7.79,0,0,1-2.44-5.72,8,8,0,1,1,13.64,5.72,8,8,0,0,1,2.84,6.12,8.44,8.44,0,0,1-16.88,0A8,8,0,0,1,492.47,304.59Zm1.87,6.12a3.73,3.73,0,1,0,3.75-3.81A3.68,3.68,0,0,0,494.34,310.71Zm7.2-11.84a3.47,3.47,0,1,0-6.94,0,3.47,3.47,0,1,0,6.94,0Z" transform="translate(-403.47 -103.68)"/><path d="M519.65,318.49H514.4l4.64-6.95a3.13,3.13,0,0,1-.61,0,10.34,10.34,0,1,1,10.36-10.3,10.71,10.71,0,0,1-1.76,5.8Zm-1.22-23.15a5.92,5.92,0,1,0,5.72,6A5.72,5.72,0,0,0,518.43,295.34Z" transform="translate(-403.47 -103.68)"/><path d="M540.64,314.63c3.42,0,5.69-4.35,5.69-9.64s-2.24-9.65-5.69-9.65v-4.43c6.05,0,10.4,6.3,10.4,14.08s-4.39,14.07-10.4,14.07-10.4-6.3-10.4-14.07c0-6.37,3-11.77,7.34-13.5l3.06,3.85c-3.46,0-5.69,4.36-5.69,9.65S537.22,314.63,540.64,314.63Z" transform="translate(-403.47 -103.68)"/><path d="M473.93,258.92v-4.5h4.75V238.26l-4.75,4.82v-6.15l4.86-5h4.65v22.5h4.75v4.5Z" transform="translate(-403.47 -103.68)"/><path d="M492.47,245A7.75,7.75,0,0,1,490,239.3,8,8,0,1,1,503.67,245a8,8,0,0,1,2.84,6.12,8.44,8.44,0,0,1-16.88,0A8,8,0,0,1,492.47,245Zm1.87,6.12a3.73,3.73,0,1,0,3.75-3.81A3.68,3.68,0,0,0,494.34,251.14Zm7.2-11.84a3.47,3.47,0,1,0-6.94,0,3.47,3.47,0,1,0,6.94,0Z" transform="translate(-403.47 -103.68)"/><path d="M519.65,258.92H514.4l4.64-7a3.13,3.13,0,0,1-.61,0,10.33,10.33,0,1,1,10.36-10.3,10.68,10.68,0,0,1-1.76,5.8Zm-1.22-23.15a5.93,5.93,0,1,0,5.72,6A5.72,5.72,0,0,0,518.43,235.77Z" transform="translate(-403.47 -103.68)"/><path d="M541.94,258.92h-5.26l4.64-7a3.13,3.13,0,0,1-.61,0,10.33,10.33,0,1,1,10.37-10.3,10.69,10.69,0,0,1-1.77,5.8Zm-1.23-23.15a5.93,5.93,0,1,0,5.72,6A5.72,5.72,0,0,0,540.71,235.77Z" transform="translate(-403.47 -103.68)"/><path d="M473.93,197.52V193h4.75V176.85l-4.75,4.83v-6.16l4.86-5h4.65V193h4.75v4.5Z" transform="translate(-403.47 -103.68)"/><path d="M499.89,197.52h-5.26l4.65-7a4.29,4.29,0,0,1-.62,0A10.33,10.33,0,1,1,509,180.31a10.71,10.71,0,0,1-1.76,5.8Zm-1.23-23.15a5.92,5.92,0,1,0,5.73,6A5.72,5.72,0,0,0,498.66,174.37Z" transform="translate(-403.47 -103.68)"/><path d="M520.88,193.66c3.41,0,5.68-4.35,5.68-9.64s-2.23-9.65-5.68-9.65v-4.43c6,0,10.4,6.3,10.4,14.08s-4.39,14.07-10.4,14.07-10.41-6.3-10.41-14.07c0-6.37,2.95-11.77,7.35-13.5l3.06,3.85c-3.46,0-5.69,4.36-5.69,9.65S517.46,193.66,520.88,193.66Z" transform="translate(-403.47 -103.68)"/><path d="M534.84,175v-4.5h15.77V175l-3.89,3.89a9.56,9.56,0,0,1,6.3,9.25,10,10,0,0,1-10.33,9.93,10.72,10.72,0,0,1-9.61-5.72l3.78-3.31a5.9,5.9,0,0,0,5.83,4.6,5.51,5.51,0,1,0,.11-11h-6l7.81-7.63Z" transform="translate(-403.47 -103.68)"/><path d="M473.93,138.65v-4.5h4.75V118l-4.75,4.82v-6.15l4.86-5h4.65v22.5h4.75v4.5Z" transform="translate(-403.47 -103.68)"/><path d="M499.89,138.65h-5.26l4.65-7a3.23,3.23,0,0,1-.62,0A10.33,10.33,0,1,1,509,121.44a10.68,10.68,0,0,1-1.76,5.8Zm-1.23-23.15a5.93,5.93,0,1,0,5.73,6A5.72,5.72,0,0,0,498.66,115.5Z" transform="translate(-403.47 -103.68)"/><path d="M520.88,134.8c3.41,0,5.68-4.36,5.68-9.65s-2.23-9.65-5.68-9.65v-4.42c6,0,10.4,6.3,10.4,14.07s-4.39,14.08-10.4,14.08-10.41-6.3-10.41-14.08c0-6.37,2.95-11.77,7.35-13.5l3.06,3.85c-3.46,0-5.69,4.36-5.69,9.65S517.46,134.8,520.88,134.8Z" transform="translate(-403.47 -103.68)"/><path d="M535.56,124.76a7.79,7.79,0,0,1-2.44-5.73,8,8,0,1,1,13.64,5.73,8,8,0,0,1,2.84,6.12,8.44,8.44,0,0,1-16.88,0A8,8,0,0,1,535.56,124.76Zm1.88,6.12a3.73,3.73,0,1,0,3.74-3.82A3.68,3.68,0,0,0,537.44,130.88ZM544.63,119a3.47,3.47,0,1,0-6.94,0,3.47,3.47,0,1,0,6.94,0Z" transform="translate(-403.47 -103.68)"/><path d="M426.41,125.15a1.48,1.48,0,1,1-1.47-1.47A1.47,1.47,0,0,1,426.41,125.15Z" transform="translate(-403.47 -103.68)"/><circle class="cls-1" cx="424.94" cy="125.15" r="20.47" transform="translate(-113.29 443.46) rotate(-88.7)"/><circle cx="21.47" cy="80.33" r="1.48"/><path class="cls-1" d="M445.41,184a20.47,20.47,0,1,1-20.47-20.47A20.48,20.48,0,0,1,445.41,184Z" transform="translate(-403.47 -103.68)"/><circle cx="21.47" cy="141.74" r="1.48"/><path class="cls-1" d="M445.41,245.42A20.47,20.47,0,1,1,424.94,225,20.48,20.48,0,0,1,445.41,245.42Z" transform="translate(-403.47 -103.68)"/><circle cx="21.47" cy="201.3" r="1.48"/><circle class="cls-1" cx="21.47" cy="201.3" r="20.47"/><circle cx="21.47" cy="258.41" r="1.48"/><path class="cls-1" d="M445.41,362.1a20.47,20.47,0,1,1-20.47-20.47A20.47,20.47,0,0,1,445.41,362.1Z" transform="translate(-403.47 -103.68)"/><circle cx="21.47" cy="319.7" r="1.48"/><path class="cls-1" d="M445.41,423.38a20.47,20.47,0,1,1-20.47-20.47A20.47,20.47,0,0,1,445.41,423.38Z" transform="translate(-403.47 -103.68)"/><path d="M426.41,483.69a1.48,1.48,0,1,1-1.47-1.48A1.48,1.48,0,0,1,426.41,483.69Z" transform="translate(-403.47 -103.68)"/><path class="cls-1" d="M445.41,483.69a20.47,20.47,0,1,1-20.47-20.47A20.48,20.48,0,0,1,445.41,483.69Z" transform="translate(-403.47 -103.68)"/><circle cx="21.47" cy="440.31" r="1.48"/><path class="cls-1" d="M445.41,544a20.47,20.47,0,1,1-20.47-20.47A20.47,20.47,0,0,1,445.41,544Z" transform="translate(-403.47 -103.68)"/><circle cx="21.47" cy="499.88" r="1.48"/><path class="cls-1" d="M445.41,603.56a20.47,20.47,0,1,1-20.47-20.47A20.47,20.47,0,0,1,445.41,603.56Z" transform="translate(-403.47 -103.68)"/><path d="M426.41,661.65a1.48,1.48,0,1,1-1.47-1.47A1.47,1.47,0,0,1,426.41,661.65Z" transform="translate(-403.47 -103.68)"/><path class="cls-1" d="M445.41,661.65a20.47,20.47,0,1,1-20.47-20.47A20.47,20.47,0,0,1,445.41,661.65Z" transform="translate(-403.47 -103.68)"/><path d="M426.41,719.5a1.48,1.48,0,1,1-1.47-1.48A1.47,1.47,0,0,1,426.41,719.5Z" transform="translate(-403.47 -103.68)"/><circle class="cls-1" cx="424.94" cy="719.5" r="20.47" transform="translate(-775.9 865.71) rotate(-76.84)"/><path d="M426.41,782.26a1.48,1.48,0,1,1-1.47-1.47A1.47,1.47,0,0,1,426.41,782.26Z" transform="translate(-403.47 -103.68)"/><circle class="cls-1" cx="424.94" cy="782.26" r="20.47" transform="translate(-837.02 914.18) rotate(-76.84)"/></svg>