<svg width="149" height="124" viewBox="0 0 149 124" fill="none" xmlns="http://www.w3.org/2000/svg">
<mask id="path-1-inside-1" fill="white">
<path fill-rule="evenodd" clip-rule="evenodd" d="M122.098 77.0319C115.383 104.01 91.0077 124 61.9659 124C27.7431 124 0 96.2417 0 62C0 27.7583 27.7431 0 61.9659 0C90.5841 0 114.671 19.4109 121.793 45.792L149 61.5L122.098 77.0319Z"/>
</mask>
<path d="M122.098 77.0319L120.859 74.8853L119.947 75.4117L119.693 76.4332L122.098 77.0319ZM121.793 45.792L119.4 46.438L119.667 47.4266L120.554 47.9385L121.793 45.792ZM149 61.5L150.239 63.6466L153.957 61.5L150.239 59.3534L149 61.5ZM119.693 76.4332C113.246 102.334 89.8417 121.521 61.9659 121.521V126.479C92.1737 126.479 117.52 105.686 124.503 77.6305L119.693 76.4332ZM61.9659 121.521C29.1133 121.521 2.47863 94.874 2.47863 62H-2.47863C-2.47863 97.6093 26.3729 126.479 61.9659 126.479V121.521ZM2.47863 62C2.47863 29.126 29.1133 2.47863 61.9659 2.47863V-2.47863C26.3729 -2.47863 -2.47863 26.3907 -2.47863 62H2.47863ZM61.9659 2.47863C89.4349 2.47863 112.562 21.11 119.4 46.438L124.186 45.146C116.78 17.7118 91.7332 -2.47863 61.9659 -2.47863V2.47863ZM120.554 47.9385L147.761 63.6466L150.239 59.3534L123.032 43.6454L120.554 47.9385ZM147.761 59.3534L120.859 74.8853L123.337 79.1784L150.239 63.6466L147.761 59.3534Z" fill="#D2E3C4" mask="url(#path-1-inside-1)"/>
<mask id="path-3-inside-2" fill="white">
<path fill-rule="evenodd" clip-rule="evenodd" d="M109.149 72.306C104.43 94.0359 85.0978 110.311 61.9661 110.311C35.2993 110.311 13.6816 88.6815 13.6816 62C13.6816 35.3186 35.2993 13.689 61.9661 13.689C85.0978 13.689 104.43 29.9641 109.149 51.694L127 62L109.149 72.306Z"/>
</mask>
<path fill-rule="evenodd" clip-rule="evenodd" d="M109.149 72.306C104.43 94.0359 85.0978 110.311 61.9661 110.311C35.2993 110.311 13.6816 88.6815 13.6816 62C13.6816 35.3186 35.2993 13.689 61.9661 13.689C85.0978 13.689 104.43 29.9641 109.149 51.694L127 62L109.149 72.306Z" fill="#44840D"/>
<path d="M109.149 72.306L106.051 66.9396L103.676 68.3109L103.094 70.991L109.149 72.306ZM109.149 51.694L103.094 53.009L103.676 55.6891L106.051 57.0604L109.149 51.694ZM127 62L130.098 67.3664L139.393 62L130.098 56.6336L127 62ZM103.094 70.991C98.9802 89.934 82.1191 104.114 61.9661 104.114V116.508C88.0765 116.508 109.881 98.1379 115.205 73.6211L103.094 70.991ZM61.9661 104.114C38.7248 104.114 19.8782 85.2624 19.8782 62H7.48505C7.48505 92.1005 31.8738 116.508 61.9661 116.508V104.114ZM19.8782 62C19.8782 38.7376 38.7248 19.8856 61.9661 19.8856V7.49238C31.8738 7.49238 7.48505 31.8995 7.48505 62H19.8782ZM61.9661 19.8856C82.1191 19.8856 98.9802 34.066 103.094 53.009L115.205 50.3789C109.881 25.8621 88.0765 7.49238 61.9661 7.49238V19.8856ZM106.051 57.0604L123.902 67.3664L130.098 56.6336L112.248 46.3276L106.051 57.0604ZM123.902 56.6336L106.051 66.9396L112.248 77.6724L130.098 67.3664L123.902 56.6336Z" fill="#D2E3C4" mask="url(#path-3-inside-2)"/>
<g filter="url(#filter0_d)">
<path d="M68.3281 51.6052L67.7568 49.4519H59.1436L58.2427 56.8347C58.8433 56.3953 59.561 56.0364 60.396 55.7581C61.231 55.4651 62.1538 55.3113 63.1646 55.2966C66.2407 55.2527 68.6211 56.1829 70.3057 58.0872C71.9902 59.9915 72.8325 62.6428 72.8325 66.0413C72.8325 69.1174 71.9023 71.6736 70.042 73.7097C68.1963 75.7458 65.5303 76.7639 62.0439 76.7639C59.1143 76.7639 56.6021 75.9656 54.5073 74.3689C52.4126 72.7576 51.4019 70.5457 51.4751 67.7332L51.519 67.6233L57.6714 67.3157C57.6714 68.7366 58.0742 69.8499 58.8799 70.6555C59.6855 71.4465 60.7402 71.842 62.0439 71.842C63.5381 71.842 64.644 71.3074 65.3618 70.238C66.0796 69.1687 66.4385 67.7844 66.4385 66.0852C66.4385 64.2395 66.0576 62.76 65.2959 61.6467C64.5342 60.5334 63.3989 59.9768 61.8901 59.9768C60.6743 59.9768 59.7368 60.2039 59.0776 60.658C58.4331 61.1121 57.9717 61.7273 57.6934 62.5037L52.0244 62.1301L53.8701 44.3103H72.2832V51.6052H68.3281Z" fill="white"/>
</g>
<defs>
<filter id="filter0_d" x="46.5142" y="44.3103" width="31.2757" height="42.3682" filterUnits="userSpaceOnUse" color-interpolation-filters="sRGB">
<feFlood flood-opacity="0" result="BackgroundImageFix"/>
<feColorMatrix in="SourceAlpha" type="matrix" values="0 0 0 0 0 0 0 0 0 0 0 0 0 0 0 0 0 0 127 0"/>
<feOffset dy="4.95727"/>
<feGaussianBlur stdDeviation="2.47863"/>
<feColorMatrix type="matrix" values="0 0 0 0 0 0 0 0 0 0 0 0 0 0 0 0 0 0 0.5 0"/>
<feBlend mode="normal" in2="BackgroundImageFix" result="effect1_dropShadow"/>
<feBlend mode="normal" in="SourceGraphic" in2="effect1_dropShadow" result="shape"/>
</filter>
</defs>
</svg>
