
<svg width="149" height="124" viewBox="0 0 149 124" fill="none" xmlns="http://www.w3.org/2000/svg">
<mask id="path-1-inside-1" fill="white">
<path fill-rule="evenodd" clip-rule="evenodd" d="M122.098 77.0319C115.383 104.01 91.0077 124 61.9659 124C27.7431 124 0 96.2417 0 62C0 27.7583 27.7431 0 61.9659 0C90.5841 0 114.671 19.4109 121.793 45.792L149 61.5L122.098 77.0319Z"/>
</mask>
<path d="M122.098 77.0319L120.859 74.8853L119.947 75.4117L119.693 76.4332L122.098 77.0319ZM121.793 45.792L119.4 46.438L119.667 47.4266L120.554 47.9385L121.793 45.792ZM149 61.5L150.239 63.6466L153.957 61.5L150.239 59.3534L149 61.5ZM119.693 76.4332C113.246 102.334 89.8417 121.521 61.9659 121.521V126.479C92.1737 126.479 117.52 105.686 124.503 77.6305L119.693 76.4332ZM61.9659 121.521C29.1133 121.521 2.47863 94.874 2.47863 62H-2.47863C-2.47863 97.6093 26.3729 126.479 61.9659 126.479V121.521ZM2.47863 62C2.47863 29.126 29.1133 2.47863 61.9659 2.47863V-2.47863C26.3729 -2.47863 -2.47863 26.3907 -2.47863 62H2.47863ZM61.9659 2.47863C89.4349 2.47863 112.562 21.11 119.4 46.438L124.186 45.146C116.78 17.7118 91.7332 -2.47863 61.9659 -2.47863V2.47863ZM120.554 47.9385L147.761 63.6466L150.239 59.3534L123.032 43.6454L120.554 47.9385ZM147.761 59.3534L120.859 74.8853L123.337 79.1784L150.239 63.6466L147.761 59.3534Z" fill="#D2E3C4" mask="url(#path-1-inside-1)"/>
<mask id="path-3-inside-2" fill="white">
<path fill-rule="evenodd" clip-rule="evenodd" d="M109.149 72.306C104.43 94.0359 85.0978 110.311 61.9661 110.311C35.2993 110.311 13.6816 88.6815 13.6816 62C13.6816 35.3186 35.2993 13.689 61.9661 13.689C85.0978 13.689 104.43 29.9641 109.149 51.694L127 62L109.149 72.306Z"/>
</mask>
<path fill-rule="evenodd" clip-rule="evenodd" d="M109.149 72.306C104.43 94.0359 85.0978 110.311 61.9661 110.311C35.2993 110.311 13.6816 88.6815 13.6816 62C13.6816 35.3186 35.2993 13.689 61.9661 13.689C85.0978 13.689 104.43 29.9641 109.149 51.694L127 62L109.149 72.306Z" fill="#44840D"/>
<path d="M109.149 72.306L106.051 66.9396L103.676 68.3109L103.094 70.991L109.149 72.306ZM109.149 51.694L103.094 53.009L103.676 55.6891L106.051 57.0604L109.149 51.694ZM127 62L130.098 67.3664L139.393 62L130.098 56.6336L127 62ZM103.094 70.991C98.9802 89.934 82.1191 104.114 61.9661 104.114V116.508C88.0765 116.508 109.881 98.1379 115.205 73.6211L103.094 70.991ZM61.9661 104.114C38.7248 104.114 19.8782 85.2624 19.8782 62H7.48505C7.48505 92.1005 31.8738 116.508 61.9661 116.508V104.114ZM19.8782 62C19.8782 38.7376 38.7248 19.8856 61.9661 19.8856V7.49238C31.8738 7.49238 7.48505 31.8995 7.48505 62H19.8782ZM61.9661 19.8856C82.1191 19.8856 98.9802 34.066 103.094 53.009L115.205 50.3789C109.881 25.8621 88.0765 7.49238 61.9661 7.49238V19.8856ZM106.051 57.0604L123.902 67.3664L130.098 56.6336L112.248 46.3276L106.051 57.0604ZM123.902 56.6336L106.051 66.9396L112.248 77.6724L130.098 67.3664L123.902 56.6336Z" fill="#D2E3C4" mask="url(#path-3-inside-2)"/>
<g filter="url(#filter0_d)">
<path d="M58.6548 57.5818H62.2583C63.7817 57.5818 64.9097 57.1863 65.6421 56.3953C66.3745 55.5896 66.7407 54.4763 66.7407 53.0554C66.7407 51.7664 66.3745 50.7336 65.6421 49.9573C64.9097 49.1809 63.8477 48.7927 62.4561 48.7927C61.2549 48.7927 60.2441 49.1443 59.4238 49.8474C58.6035 50.5505 58.1934 51.4734 58.1934 52.616H51.9751L51.9312 52.4841C51.8433 49.9792 52.8027 47.9138 54.8096 46.2878C56.8164 44.6619 59.3066 43.8489 62.2803 43.8489C65.5908 43.8489 68.2275 44.6399 70.1904 46.2219C72.168 47.804 73.1567 50.0598 73.1567 52.9895C73.1567 54.3811 72.7173 55.7068 71.8384 56.9666C70.9595 58.2117 69.751 59.1858 68.2129 59.8889C69.9854 60.5188 71.333 61.4856 72.2559 62.7893C73.1934 64.093 73.6621 65.6091 73.6621 67.3376C73.6621 70.2673 72.5928 72.5745 70.4541 74.259C68.3301 75.929 65.6055 76.7639 62.2803 76.7639C59.3066 76.7639 56.7505 75.9802 54.6118 74.4128C52.4878 72.8308 51.4624 70.6042 51.5356 67.7332L51.5796 67.6013H57.7979C57.7979 68.8318 58.2373 69.8499 59.1162 70.6555C59.9951 71.4465 61.1084 71.842 62.4561 71.842C63.9355 71.842 65.1001 71.4319 65.9497 70.6116C66.814 69.7913 67.2461 68.678 67.2461 67.2717C67.2461 65.5872 66.8213 64.3567 65.9717 63.5803C65.1367 62.7893 63.8989 62.3938 62.2583 62.3938H58.6548V57.5818Z" fill="white"/>
</g>
<defs>
<filter id="filter0_d" x="46.5747" y="43.8489" width="32.0447" height="42.8296" filterUnits="userSpaceOnUse" color-interpolation-filters="sRGB">
<feFlood flood-opacity="0" result="BackgroundImageFix"/>
<feColorMatrix in="SourceAlpha" type="matrix" values="0 0 0 0 0 0 0 0 0 0 0 0 0 0 0 0 0 0 127 0"/>
<feOffset dy="4.95727"/>
<feGaussianBlur stdDeviation="2.47863"/>
<feColorMatrix type="matrix" values="0 0 0 0 0 0 0 0 0 0 0 0 0 0 0 0 0 0 0.5 0"/>
<feBlend mode="normal" in2="BackgroundImageFix" result="effect1_dropShadow"/>
<feBlend mode="normal" in="SourceGraphic" in2="effect1_dropShadow" result="shape"/>
</filter>
</defs>
</svg>
