<?xml version="1.0" encoding="utf-8"?>
<!-- Generator: Adobe Illustrator 19.2.0, SVG Export Plug-In . SVG Version: 6.00 Build 0)  -->
<svg version="1.1" id="Layer_1" xmlns="http://www.w3.org/2000/svg" xmlns:xlink="http://www.w3.org/1999/xlink" x="0px" y="0px"
	 viewBox="0 0 149 124" style="enable-background:new 0 0 149 124;" xml:space="preserve">
<style type="text/css">
	.st0{fill:#FFFFFF;filter:url(#Adobe_OpacityMaskFilter);}
	.st1{mask:url(#path-1-inside-1);fill:#D2E3C4;}
	.st2{fill:#44840D;}
	.st3{fill:#FFFFFF;filter:url(#Adobe_OpacityMaskFilter_1_);}
	.st4{mask:url(#path-3-inside-2);fill:#D2E3C4;}
	.st5{fill:#FFFFFF;}
</style>
<defs>
	<filter id="Adobe_OpacityMaskFilter" filterUnits="userSpaceOnUse" x="-2.5" y="-2.5" width="156.4" height="129">
		<feColorMatrix  type="matrix" values="1 0 0 0 0  0 1 0 0 0  0 0 1 0 0  0 0 0 1 0"/>
	</filter>
</defs>
<mask maskUnits="userSpaceOnUse" x="-2.5" y="-2.5" width="156.4" height="129" id="path-1-inside-1">
	<path class="st0" d="M122.1,77c-6.7,27-31.1,47-60.1,47C27.7,124,0,96.2,0,62S27.7,0,62,0c28.6,0,52.7,19.4,59.8,45.8L149,61.5
		L122.1,77z"/>
</mask>
<path class="st1" d="M122.1,77l-1.2-2.1l-0.9,0.5l-0.3,1L122.1,77z M121.8,45.8l-2.4,0.6l0.3,1l0.9,0.5L121.8,45.8z M149,61.5
	l1.2,2.1l3.7-2.1l-3.7-2.1L149,61.5z M119.7,76.4c-6.4,25.9-29.9,45.1-57.7,45.1v5c30.2,0,55.6-20.8,62.5-48.8L119.7,76.4z
	 M62,121.5C29.1,121.5,2.5,94.9,2.5,62h-5c0,35.6,28.9,64.5,64.4,64.5V121.5z M2.5,62C2.5,29.1,29.1,2.5,62,2.5v-5
	C26.4-2.5-2.5,26.4-2.5,62H2.5z M62,2.5c27.5,0,50.6,18.6,57.4,44l4.8-1.3C116.8,17.7,91.7-2.5,62-2.5V2.5z M120.6,47.9l27.2,15.7
	l2.5-4.3L123,43.6L120.6,47.9z M147.8,59.4l-26.9,15.5l2.5,4.3l26.9-15.5L147.8,59.4z"/>
<path class="st2" d="M109.1,72.3c-4.7,21.7-24.1,38-47.2,38c-26.7,0-48.3-21.6-48.3-48.3c0-26.7,21.6-48.3,48.3-48.3
	c23.1,0,42.5,16.3,47.2,38L127,62L109.1,72.3z"/>
<defs>
	<filter id="Adobe_OpacityMaskFilter_1_" filterUnits="userSpaceOnUse" x="7.5" y="7.5" width="131.9" height="109">
		<feColorMatrix  type="matrix" values="1 0 0 0 0  0 1 0 0 0  0 0 1 0 0  0 0 0 1 0"/>
	</filter>
</defs>
<mask maskUnits="userSpaceOnUse" x="7.5" y="7.5" width="131.9" height="109" id="path-3-inside-2">
	<path class="st3" d="M109.1,72.3c-4.7,21.7-24.1,38-47.2,38c-26.7,0-48.3-21.6-48.3-48.3c0-26.7,21.6-48.3,48.3-48.3
		c23.1,0,42.5,16.3,47.2,38L127,62L109.1,72.3z"/>
</mask>
<path class="st4" d="M109.1,72.3l-3.1-5.4l-2.4,1.4l-0.6,2.7L109.1,72.3z M127,62l3.1,5.4l9.3-5.4l-9.3-5.4L127,62z M103.1,71
	c-4.1,18.9-21,33.1-41.1,33.1v12.4c26.1,0,47.9-18.4,53.2-42.9L103.1,71z M62,104.1c-23.2,0-42.1-18.9-42.1-42.1H7.5
	c0,30.1,24.4,54.5,54.5,54.5V104.1z M19.9,62c0-23.3,18.8-42.1,42.1-42.1V7.5C31.9,7.5,7.5,31.9,7.5,62H19.9z M62,19.9
	c20.2,0,37,14.2,41.1,33.1l12.1-2.6C109.9,25.9,88.1,7.5,62,7.5V19.9z M106.1,57.1l17.9,10.3l6.2-10.7l-17.9-10.3L106.1,57.1z
	 M123.9,56.6l-17.9,10.3l6.2,10.7l17.9-10.3L123.9,56.6z M109.1,51.7l-6.1,1.3l0.6,2.7l2.4,1.4L109.1,51.7z"/>
<g>
	<path class="st5" d="M68.3,51.6l-0.6-2.2h-8.6l-0.9,7.4c0.6-0.4,1.3-0.8,2.2-1.1c0.8-0.3,1.8-0.4,2.8-0.5c3.1,0,5.5,0.9,7.1,2.8
		c1.7,1.9,2.5,4.6,2.5,8c0,3.1-0.9,5.6-2.8,7.7c-1.8,2-4.5,3.1-8,3.1c-2.9,0-5.4-0.8-7.5-2.4c-2.1-1.6-3.1-3.8-3-6.6l0-0.1l6.2-0.3
		c0,1.4,0.4,2.5,1.2,3.3c0.8,0.8,1.9,1.2,3.2,1.2c1.5,0,2.6-0.5,3.3-1.6c0.7-1.1,1.1-2.5,1.1-4.2c0-1.8-0.4-3.3-1.1-4.4
		c-0.8-1.1-1.9-1.7-3.4-1.7c-1.2,0-2.2,0.2-2.8,0.7c-0.6,0.5-1.1,1.1-1.4,1.8L52,62.1l1.8-17.8h18.4v7.3H68.3z"/>
</g>
</svg>
