<?xml version="1.0" encoding="UTF-8"?>
<!DOCTYPE svg PUBLIC "-//W3C//DTD SVG 1.1//EN" "http://www.w3.org/Graphics/SVG/1.1/DTD/svg11.dtd">
<!-- Creator: CorelDRAW X8 -->
<svg xmlns="http://www.w3.org/2000/svg" xml:space="preserve" width="572px" height="1042px" version="1.1" style="shape-rendering:geometricPrecision; text-rendering:geometricPrecision; image-rendering:optimizeQuality; fill-rule:evenodd; clip-rule:evenodd"
viewBox="0 0 166 303"
 xmlns:xlink="http://www.w3.org/1999/xlink">
 <defs>
  <style type="text/css">
   <![CDATA[
    .str0 {stroke:#2B2A29;stroke-width:0.686873}
    .fil1 {fill:none}
    .fil2 {fill:#2B2A29}
    .fil0 {fill:#2B2A29;fill-rule:nonzero}
   ]]>
  </style>
 </defs>
 <g id="Layer_x0020_1">
  <metadata id="CorelCorpID_0Corel-Layer"/>
  <path class="fil0" d="M13 0l-3 0 -7 17 3 0 9 -6 2 6 3 0 -7 -17zm-2 4l3 5 -6 4 3 -9zm14 -1c1,0 2,1 3,2l2 -2c-1,-1 -3,-3 -5,-3 -3,0 -5,2 -5,5 0,3 2,4 4,5 2,1 3,1 3,2 0,2 -1,2 -2,2 -1,0 -3,-1 -3,-2l-2 2c1,1 3,3 5,3 3,0 5,-2 5,-5 0,-2 -2,-4 -4,-5 -2,0 -3,-1 -3,-2 0,-1 1,-2 2,-2zm17 14l3 0 0 -7 7 0 0 -3 -7 0 0 -4 7 0 0 -3 -10 0 0 17zm19 -17l-3 0 -7 17 3 0 9 -6 2 6 3 0 -7 -17zm-2 4l2 5 -5 4 3 -9zm22 13l0 -3 -9 -4 3 0c3,0 6,-2 6,-5 0,-3 -3,-5 -6,-5l-6 0 0 17 3 0 0 -4 9 4zm-3 -12c0,1 -1,2 -3,2l-3 0 0 -4 3 0c2,0 3,1 3,2zm24 -5l-3 0 -7 17 3 0 9 -6 2 6 3 0 -7 -17zm-1 4l2 5 -6 4 4 -9zm13 -1c2,0 3,1 3,2l2 -2c0,-1 -3,-3 -5,-3 -3,0 -5,2 -5,5 0,3 3,4 5,5 1,1 3,1 3,2 0,2 -1,2 -3,2 -1,0 -2,-1 -3,-2l-2 2c1,1 3,3 5,3 3,0 5,-2 5,-5 0,-2 -2,-4 -4,-5 -1,0 -3,-1 -3,-2 0,-1 1,-2 2,-2zm17 0l5 0 0 14 2 0 0 -14 5 0 0 -3 -12 0 0 3zm21 4l-6 0 0 -7 -2 0 0 17 2 0 0 -7 6 0 0 7 3 0 0 -17 -3 0 0 7zm4 10l10 0 0 -3 -7 0 0 -4 7 0 0 -3 -7 0 0 -4 7 0 0 -3 -10 0 0 17zm-153 26l10 0 0 -3 -7 0 0 -4 7 0 0 -3 -7 0 0 -4 7 0 0 -2 -10 0 0 16zm22 -16l-3 0 -2 6 -3 -6 -3 0 7 16 3 0 -3 -7 4 -9zm1 16l10 0 0 -3 -7 0 0 -4 7 0 0 -3 -7 0 0 -4 7 0 0 -2 -10 0 0 16zm30 -2c-3,0 -5,-3 -5,-6 0,-4 2,-6 5,-6 3,0 4,1 5,3l2 -2c-1,-2 -4,-4 -7,-4 -4,0 -8,4 -8,9 0,5 4,8 8,8 3,0 6,-1 7,-3l-2 -2c-1,1 -2,3 -5,3zm7 -6c0,5 4,8 9,8 5,0 9,-3 9,-8 0,-5 -4,-9 -9,-9 -5,0 -9,4 -9,9zm3 0c0,-4 3,-6 6,-6 3,0 6,2 6,6 0,3 -3,6 -6,6 -3,0 -6,-3 -6,-6zm27 -8l-3 0 0 11c0,1 -1,3 -3,3 -2,0 -3,-2 -3,-3l0 -11 -3 0 0 11c0,3 3,5 6,5 3,0 6,-2 6,-5l0 -11zm13 16l0 -3 -9 0 5 -13 -3 0 -5 13 0 3 12 0zm1 0l5 0c5,0 9,-4 9,-8 0,-5 -4,-8 -9,-8l-5 0 0 16zm3 -3l0 -11 2 0c4,0 6,2 6,6 0,3 -2,5 -6,5l-2 0zm28 -11c1,0 2,1 3,3l2 -2c-1,-2 -3,-4 -5,-4 -3,0 -5,2 -5,5 0,3 2,4 4,5 2,1 3,1 3,2 0,2 -1,2 -2,2 -2,0 -3,-1 -3,-2l-2 2c0,2 3,3 5,3 3,0 5,-2 5,-5 0,-2 -2,-3 -4,-4 -2,-1 -3,-2 -3,-3 0,-1 1,-2 2,-2zm6 14l10 0 0 -3 -7 0 0 -4 7 0 0 -3 -7 0 0 -4 7 0 0 -2 -10 0 0 16zm11 0l10 0 0 -3 -7 0 0 -4 7 0 0 -3 -7 0 0 -4 7 0 0 -2 -10 0 0 16z"/>
  <line class="fil1 str0" x1="3" y1="303" x2="3" y2= "48" />
  <path class="fil2" d="M3 297c2,0 3,1 3,3 0,2 -1,3 -3,3 -2,0 -3,-1 -3,-3 0,-2 1,-3 3,-3z"/>
  <polygon class="fil2" points="6,48 8,48 8,59 6,59 "/>
  <polygon class="fil2" points="10,48 12,48 12,59 10,59 "/>
  <polygon class="fil2" points="14,48 16,48 16,59 14,59 "/>
  <polygon class="fil2" points="18,48 20,48 20,59 18,59 "/>
  <polygon class="fil2" points="22,48 24,48 24,59 22,59 "/>
  <polygon class="fil2" points="26,48 28,48 28,59 26,59 "/>
  <polygon class="fil2" points="30,48 32,48 32,59 30,59 "/>
  <polygon class="fil2" points="34,48 36,48 36,59 34,59 "/>
  <polygon class="fil2" points="39,48 41,48 41,59 39,59 "/>
  <polygon class="fil2" points="43,48 45,48 45,59 43,59 "/>
  <polygon class="fil2" points="47,48 49,48 49,59 47,59 "/>
  <polygon class="fil2" points="51,48 53,48 53,59 51,59 "/>
  <polygon class="fil2" points="55,48 57,48 57,59 55,59 "/>
  <polygon class="fil2" points="59,48 61,48 61,59 59,59 "/>
  <polygon class="fil2" points="63,48 65,48 65,59 63,59 "/>
  <polygon class="fil2" points="67,48 69,48 69,59 67,59 "/>
  <polygon class="fil2" points="72,48 74,48 74,59 72,59 "/>
  <polygon class="fil2" points="76,48 78,48 78,59 76,59 "/>
  <polygon class="fil2" points="80,48 82,48 82,59 80,59 "/>
  <polygon class="fil2" points="84,48 86,48 86,59 84,59 "/>
  <polygon class="fil2" points="88,48 90,48 90,59 88,59 "/>
  <polygon class="fil2" points="92,48 94,48 94,59 92,59 "/>
  <polygon class="fil2" points="96,48 98,48 98,59 96,59 "/>
  <polygon class="fil2" points="100,48 102,48 102,59 100,59 "/>
  <polygon class="fil2" points="104,48 107,48 107,59 104,59 "/>
  <polygon class="fil2" points="109,48 111,48 111,59 109,59 "/>
  <polygon class="fil2" points="113,48 115,48 115,59 113,59 "/>
  <polygon class="fil2" points="117,48 119,48 119,59 117,59 "/>
  <polygon class="fil2" points="121,48 123,48 123,59 121,59 "/>
  <polygon class="fil2" points="125,48 127,48 127,59 125,59 "/>
  <polygon class="fil2" points="129,48 131,48 131,59 129,59 "/>
  <polygon class="fil2" points="133,48 135,48 135,59 133,59 "/>
  <polygon class="fil2" points="137,48 140,48 140,59 137,59 "/>
  <polygon class="fil2" points="142,48 144,48 144,59 142,59 "/>
  <polygon class="fil2" points="146,48 148,48 148,59 146,59 "/>
  <polygon class="fil2" points="150,48 152,48 152,59 150,59 "/>
  <polygon class="fil2" points="154,48 156,48 156,59 154,59 "/>
  <polygon class="fil2" points="158,48 160,48 160,59 158,59 "/>
  <polygon class="fil2" points="162,48 164,48 164,59 162,59 "/>
 </g>
</svg>
