<?xml version="1.0" encoding="UTF-8"?>
<!DOCTYPE svg PUBLIC "-//W3C//DTD SVG 1.1//EN" "http://www.w3.org/Graphics/SVG/1.1/DTD/svg11.dtd">
<!-- Creator: CorelDRAW X8 -->
<svg xmlns="http://www.w3.org/2000/svg" xml:space="preserve" width="862px" height="1042px" version="1.1" style="shape-rendering:geometricPrecision; text-rendering:geometricPrecision; image-rendering:optimizeQuality; fill-rule:evenodd; clip-rule:evenodd"
viewBox="0 0 6328 7644"
 xmlns:xlink="http://www.w3.org/1999/xlink">
 <defs>
  <style type="text/css">
   <![CDATA[
    .str0 {stroke:#2B2A29;stroke-width:17.3322}
    .fil1 {fill:none}
    .fil2 {fill:#2B2A29}
    .fil0 {fill:#2B2A29;fill-rule:nonzero}
   ]]>
  </style>
 </defs>
 <g id="Layer_x0020_1">
  <metadata id="CorelCorpID_0Corel-Layer"/>
  <path class="fil0" d="M76 422l135 0c70,0 131,-46 131,-120 0,-37 -16,-66 -40,-86 25,-20 40,-49 40,-87 0,-75 -61,-120 -131,-120l-135 0 0 413zm193 -120c0,34 -25,51 -57,51l-64 0 0 -104 64 0c32,0 57,18 57,53zm0 -173c0,34 -25,51 -57,51l-64 0 0 -102 64 0c32,0 57,17 57,51zm395 293l0 -80 -221 -95 89 0c71,0 132,-45 132,-119 0,-75 -61,-119 -132,-119l-168 0 0 413 73 0 0 -102 227 102zm-73 -294c0,33 -26,50 -57,50l-97 0 0 -100 97 0c31,0 57,16 57,50zm95 294l73 0 0 -413 -73 0 0 413zm325 -135l-152 -278 -78 0 0 413 71 0 0 -278 152 278 78 0 0 -413 -71 0 0 278zm308 143c45,0 87,-15 122,-40l0 32 72 0 0 -207 -194 0 0 68 123 0 0 9c-20,44 -68,70 -123,70 -83,0 -145,-64 -145,-147 0,-83 62,-147 145,-147 55,0 98,27 123,70l50 -51c-39,-53 -101,-87 -173,-87 -118,0 -215,94 -215,215 0,122 97,215 215,215zm216 -8l73 0 0 -413 -73 0 0 413zm325 -135l-152 -278 -78 0 0 413 71 0 0 -278 152 278 78 0 0 -413 -71 0 0 278zm308 143c45,0 87,-15 122,-40l0 32 72 0 0 -207 -194 0 0 68 123 0 0 9c-20,44 -67,70 -123,70 -83,0 -145,-64 -145,-147 0,-83 62,-147 145,-147 56,0 98,27 123,70l50 -51c-39,-53 -100,-87 -173,-87 -118,0 -215,94 -215,215 0,122 97,215 215,215zm491 -352l109 0 0 344 73 0 0 -344 109 0 0 -69 -291 0 0 69zm531 102l-145 0 0 -171 -73 0 0 413 73 0 0 -173 145 0 0 173 72 0 0 -413 -72 0 0 171zm94 242l258 0 0 -69 -185 0 0 -104 185 0 0 -69 -185 0 0 -102 185 0 0 -69 -258 0 0 413zm555 0l135 0c70,0 132,-46 132,-120 0,-37 -16,-66 -41,-86 26,-20 41,-49 41,-87 0,-75 -62,-120 -132,-120l-135 0 0 413zm194 -120c0,34 -26,51 -57,51l-64 0 0 -104 64 0c31,0 57,18 57,53zm0 -173c0,34 -26,51 -57,51l-64 0 0 -102 64 0c31,0 57,17 57,51zm95 293l257 0 0 -69 -185 0 0 -104 185 0 0 -69 -185 0 0 -102 185 0 0 -69 -257 0 0 413zm279 0l258 0 0 -69 -185 0 0 -104 185 0 0 -69 -185 0 0 -102 185 0 0 -69 -258 0 0 413zm280 0l72 0 0 -173 185 0 0 -69 -185 0 0 -102 185 0 0 -69 -257 0 0 413zm-4611 316l109 0 0 344 72 0 0 -344 109 0 0 -69 -290 0 0 69zm612 344l0 -80 -220 -95 89 0c70,0 131,-45 131,-119 0,-74 -61,-119 -131,-119l-169 0 0 413 73 0 0 -101 227 101zm-72 -294c0,34 -26,51 -58,51l-97 0 0 -101 97 0c32,0 58,16 58,50zm385 -119l-73 0 0 282c0,43 -31,72 -73,72 -41,0 -72,-29 -72,-72l0 -282 -73 0 0 281c0,83 65,141 145,141 81,0 146,-58 146,-141l0 -281zm152 61c35,0 61,37 77,67l52 -50c-20,-44 -74,-87 -128,-87 -74,0 -126,52 -126,121 0,74 63,105 112,130 38,19 70,33 70,60 0,32 -25,49 -55,49 -35,0 -65,-36 -80,-68l-52 51c20,45 77,87 131,87 76,0 130,-49 130,-120 0,-69 -56,-99 -104,-122 -41,-20 -80,-37 -80,-68 0,-31 23,-50 53,-50zm142 8l109 0 0 344 72 0 0 -344 109 0 0 -69 -290 0 0 69zm878 -69l-73 0 0 282c0,43 -31,72 -72,72 -42,0 -73,-29 -73,-72l0 -282 -73 0 0 281c0,83 65,141 146,141 80,0 145,-58 145,-141l0 -281zm252 279l-151 -279 -79 0 0 413 71 0 0 -278 152 278 78 0 0 -413 -71 0 0 279zm93 134l128 0c118,0 216,-86 216,-206 0,-121 -98,-207 -216,-207l-128 0 0 413zm73 -69l0 -275 55 0c84,0 143,54 143,138 0,83 -59,138 -143,137l-55 0zm293 69l257 0 0 -69 -184 0 0 -103 184 0 0 -69 -184 0 0 -103 184 0 0 -69 -257 0 0 413zm579 0l0 -80 -220 -95 89 0c70,0 131,-45 131,-119 0,-74 -61,-119 -131,-119l-169 0 0 413 73 0 0 -101 227 101zm-72 -294c0,34 -26,51 -58,51l-97 0 0 -101 97 0c32,0 58,16 58,50zm585 234c-83,0 -146,-63 -146,-146 0,-84 63,-148 146,-148 55,0 98,28 122,70l50 -50c-39,-54 -100,-88 -172,-88 -119,0 -216,94 -216,216 0,121 97,215 216,215 71,0 133,-34 172,-88l-50 -50c-24,42 -67,69 -122,69zm178 -146c0,121 96,215 215,215 119,0 215,-94 215,-215 0,-122 -96,-216 -215,-216 -119,0 -215,94 -215,216zm69 0c0,-84 65,-148 146,-148 82,0 147,64 147,148 0,83 -65,146 -147,146 -81,0 -146,-63 -146,-146zm613 72l-151 -279 -79 0 0 413 72 0 0 -278 152 278 78 0 0 -413 -72 0 0 279zm94 -210l109 0 0 344 72 0 0 -344 109 0 0 -69 -290 0 0 69zm612 344l0 -80 -220 -95 89 0c70,0 131,-45 131,-119 0,-74 -61,-119 -131,-119l-169 0 0 413 73 0 0 -101 227 101zm-72 -294c0,34 -26,51 -58,51l-97 0 0 -101 97 0c32,0 58,16 58,50zm83 88c0,121 97,215 216,215 118,0 215,-94 215,-215 0,-122 -97,-216 -215,-216 -119,0 -216,94 -216,216zm69 0c0,-84 65,-148 147,-148 81,0 146,64 146,148 0,83 -65,146 -146,146 -82,0 -147,-63 -147,-146zm680 206l0 -69 -248 0 150 -344 -80 0 -146 344 0 69 324 0z"/>
  <line class="fil1 str0" x1="76" y1="7644" x2="76" y2= "1220" />
  <path class="fil2" d="M76 7493c42,0 75,34 75,76 0,41 -33,75 -75,75 -42,0 -76,-34 -76,-75 0,-42 34,-76 76,-76z"/>
  <polygon class="fil2" points="140,1219 192,1219 192,1479 140,1479 "/>
  <polygon class="fil2" points="244,1219 296,1219 296,1479 244,1479 "/>
  <polygon class="fil2" points="348,1219 400,1219 400,1479 348,1479 "/>
  <polygon class="fil2" points="452,1219 504,1219 504,1479 452,1479 "/>
  <polygon class="fil2" points="556,1219 608,1219 608,1479 556,1479 "/>
  <polygon class="fil2" points="660,1219 712,1219 712,1479 660,1479 "/>
  <polygon class="fil2" points="764,1219 816,1219 816,1479 764,1479 "/>
  <polygon class="fil2" points="868,1219 920,1219 920,1479 868,1479 "/>
  <polygon class="fil2" points="972,1219 1024,1219 1024,1479 972,1479 "/>
  <polygon class="fil2" points="1076,1219 1128,1219 1128,1479 1076,1479 "/>
  <polygon class="fil2" points="1180,1219 1232,1219 1232,1479 1180,1479 "/>
  <polygon class="fil2" points="1284,1219 1336,1219 1336,1479 1284,1479 "/>
  <polygon class="fil2" points="1388,1219 1440,1219 1440,1479 1388,1479 "/>
  <polygon class="fil2" points="1492,1219 1544,1219 1544,1479 1492,1479 "/>
  <polygon class="fil2" points="1596,1219 1648,1219 1648,1479 1596,1479 "/>
  <polygon class="fil2" points="1700,1219 1752,1219 1752,1479 1700,1479 "/>
  <polygon class="fil2" points="1804,1219 1856,1219 1856,1479 1804,1479 "/>
  <polygon class="fil2" points="1908,1219 1960,1219 1960,1479 1908,1479 "/>
  <polygon class="fil2" points="2012,1219 2064,1219 2064,1479 2012,1479 "/>
  <polygon class="fil2" points="2116,1219 2168,1219 2168,1479 2116,1479 "/>
  <polygon class="fil2" points="2220,1219 2272,1219 2272,1479 2220,1479 "/>
  <polygon class="fil2" points="2324,1219 2376,1219 2376,1479 2324,1479 "/>
  <polygon class="fil2" points="2428,1219 2480,1219 2480,1479 2428,1479 "/>
  <polygon class="fil2" points="2532,1219 2584,1219 2584,1479 2532,1479 "/>
  <polygon class="fil2" points="2636,1219 2688,1219 2688,1479 2636,1479 "/>
  <polygon class="fil2" points="2740,1219 2792,1219 2792,1479 2740,1479 "/>
  <polygon class="fil2" points="2844,1219 2896,1219 2896,1479 2844,1479 "/>
  <polygon class="fil2" points="2948,1219 3000,1219 3000,1479 2948,1479 "/>
  <polygon class="fil2" points="3052,1219 3104,1219 3104,1479 3052,1479 "/>
  <polygon class="fil2" points="3156,1219 3208,1219 3208,1479 3156,1479 "/>
  <polygon class="fil2" points="3260,1219 3312,1219 3312,1479 3260,1479 "/>
  <polygon class="fil2" points="3364,1219 3416,1219 3416,1479 3364,1479 "/>
  <polygon class="fil2" points="3468,1219 3520,1219 3520,1479 3468,1479 "/>
  <polygon class="fil2" points="3572,1219 3624,1219 3624,1479 3572,1479 "/>
  <polygon class="fil2" points="3676,1219 3728,1219 3728,1479 3676,1479 "/>
  <polygon class="fil2" points="3780,1219 3832,1219 3832,1479 3780,1479 "/>
  <polygon class="fil2" points="3884,1219 3936,1219 3936,1479 3884,1479 "/>
  <polygon class="fil2" points="3988,1219 4040,1219 4040,1479 3988,1479 "/>
  <polygon class="fil2" points="4092,1219 4144,1219 4144,1479 4092,1479 "/>
  <polygon class="fil2" points="4196,1219 4248,1219 4248,1479 4196,1479 "/>
  <polygon class="fil2" points="4300,1219 4352,1219 4352,1479 4300,1479 "/>
  <polygon class="fil2" points="4404,1219 4456,1219 4456,1479 4404,1479 "/>
  <polygon class="fil2" points="4508,1219 4560,1219 4560,1479 4508,1479 "/>
  <polygon class="fil2" points="4612,1219 4664,1219 4664,1479 4612,1479 "/>
  <polygon class="fil2" points="4716,1219 4768,1219 4768,1479 4716,1479 "/>
  <polygon class="fil2" points="4820,1219 4872,1219 4872,1479 4820,1479 "/>
  <polygon class="fil2" points="4924,1219 4976,1219 4976,1479 4924,1479 "/>
  <polygon class="fil2" points="5028,1219 5080,1219 5080,1479 5028,1479 "/>
  <polygon class="fil2" points="5132,1219 5184,1219 5184,1479 5132,1479 "/>
  <polygon class="fil2" points="5236,1219 5288,1219 5288,1479 5236,1479 "/>
  <polygon class="fil2" points="5340,1219 5392,1219 5392,1479 5340,1479 "/>
  <polygon class="fil2" points="5444,1219 5496,1219 5496,1479 5444,1479 "/>
  <polygon class="fil2" points="5548,1219 5600,1219 5600,1479 5548,1479 "/>
  <polygon class="fil2" points="5652,1219 5704,1219 5704,1479 5652,1479 "/>
  <polygon class="fil2" points="5756,1219 5808,1219 5808,1479 5756,1479 "/>
  <polygon class="fil2" points="5860,1219 5912,1219 5912,1479 5860,1479 "/>
  <polygon class="fil2" points="5964,1219 6016,1219 6016,1479 5964,1479 "/>
  <polygon class="fil2" points="6068,1219 6120,1219 6120,1479 6068,1479 "/>
  <polygon class="fil2" points="6172,1219 6224,1219 6224,1479 6172,1479 "/>
  <polygon class="fil2" points="6276,1219 6328,1219 6328,1479 6276,1479 "/>
 </g>
</svg>
