<?xml version="1.0" encoding="UTF-8"?>
<!DOCTYPE svg PUBLIC "-//W3C//DTD SVG 1.1//EN" "http://www.w3.org/Graphics/SVG/1.1/DTD/svg11.dtd">
<!-- Creator: CorelDRAW X8 -->
<svg xmlns="http://www.w3.org/2000/svg" xml:space="preserve" width="453px" height="1042px" version="1.1" style="shape-rendering:geometricPrecision; text-rendering:geometricPrecision; image-rendering:optimizeQuality; fill-rule:evenodd; clip-rule:evenodd"
viewBox="0 0 1747 4017"
 xmlns:xlink="http://www.w3.org/1999/xlink">
 <defs>
  <style type="text/css">
   <![CDATA[
    .str0 {stroke:#2B2A29;stroke-width:9.10846}
    .fil1 {fill:none}
    .fil2 {fill:#2B2A29}
    .fil0 {fill:#2B2A29;fill-rule:nonzero}
   ]]>
  </style>
 </defs>
 <g id="Layer_x0020_1">
  <metadata id="CorelCorpID_0Corel-Layer"/>
  <path class="fil0" d="M172 5l-40 0 -92 217 38 0 116 -70 30 70 40 0 -92 -217zm-20 46l27 66 -78 51 51 -117zm381 175c24,0 46,-8 64,-21l0 17 38 0 0 -109 -102 0 0 36 65 0 0 5c-11,22 -36,36 -65,36 -43,0 -76,-33 -76,-77 0,-44 33,-77 76,-77 29,0 52,14 65,37l26 -27c-20,-28 -53,-46 -91,-46 -62,0 -113,49 -113,113 0,64 51,113 113,113zm271 -4l0 -42 -116 -50 47 0c37,0 69,-24 69,-63 0,-39 -32,-62 -69,-62l-88 0 0 217 38 0 0 -54 119 54zm-38 -155c0,18 -13,27 -30,27l-51 0 0 -53 51 0c17,0 30,8 30,26zm44 46c0,64 51,113 113,113 63,0 113,-49 113,-113 0,-64 -50,-113 -113,-113 -62,0 -113,49 -113,113zm36 0c0,-44 34,-77 77,-77 43,0 77,33 77,77 0,44 -34,77 -77,77 -43,0 -77,-33 -77,-77zm454 -108l-41 0 -61 158 -13 -68 -45 0 -13 68 -61 -158 -41 0 87 217 39 0 11 -60 13 60 38 0 87 -217zm12 217l38 0 0 -217 -38 0 0 217zm171 -71l-80 -146 -41 0 0 217 37 0 0 -147 80 147 41 0 0 -217 -37 0 0 146zm162 75c23,0 46,-8 64,-21l0 17 38 0 0 -109 -102 0 0 36 64 0 0 5c-10,22 -35,36 -64,36 -44,0 -77,-33 -77,-77 0,-44 33,-77 77,-77 29,0 51,14 64,37l27 -27c-21,-28 -53,-46 -91,-46 -63,0 -113,49 -113,113 0,64 50,113 113,113zm-1492 311c-44,0 -77,-33 -77,-77 0,-44 33,-77 77,-77 29,0 51,14 64,37l27 -27c-21,-28 -53,-46 -91,-46 -63,0 -113,49 -113,113 0,64 50,113 113,113 37,0 70,-18 91,-46l-27 -26c-13,22 -35,36 -64,36zm94 -77c0,64 50,113 113,113 62,0 113,-49 113,-113 0,-64 -51,-113 -113,-113 -63,0 -113,49 -113,113zm36 0c0,-44 34,-77 77,-77 42,0 77,33 77,77 0,44 -35,77 -77,77 -43,0 -77,-33 -77,-77zm322 38l-79 -146 -42 0 0 217 38 0 0 -146 80 146 41 0 0 -217 -38 0 0 146zm162 39c-43,0 -76,-33 -76,-77 0,-44 33,-77 76,-77 29,0 52,14 65,37l26 -27c-20,-28 -53,-46 -91,-46 -62,0 -113,49 -113,113 0,64 51,113 113,113 38,0 71,-18 91,-46l-26 -26c-13,22 -36,36 -65,36zm103 32l135 0 0 -37 -97 0 0 -54 97 0 0 -36 -97 0 0 -54 97 0 0 -36 -135 0 0 217zm304 0l0 -42 -116 -50 47 0c37,0 69,-24 69,-63 0,-39 -32,-62 -69,-62l-88 0 0 217 38 0 0 -54 119 54zm-38 -155c0,18 -13,27 -30,27l-51 0 0 -53 51 0c17,0 30,8 30,26zm171 84l-80 -146 -41 0 0 217 37 0 0 -146 80 146 41 0 0 -217 -37 0 0 146z"/>
  <line class="fil1 str0" x1="40" y1="4017" x2="40" y2= "641" />
  <path class="fil2" d="M40 3938c22,0 40,17 40,39 0,22 -18,40 -40,40 -22,0 -40,-18 -40,-40 0,-22 18,-39 40,-39z"/>
  <polygon class="fil2" points="74,641 101,641 101,777 74,777 "/>
  <polygon class="fil2" points="128,641 156,641 156,777 128,777 "/>
  <polygon class="fil2" points="183,641 210,641 210,777 183,777 "/>
  <polygon class="fil2" points="238,641 265,641 265,777 238,777 "/>
  <polygon class="fil2" points="292,641 320,641 320,777 292,777 "/>
  <polygon class="fil2" points="347,641 374,641 374,777 347,777 "/>
  <polygon class="fil2" points="402,641 429,641 429,777 402,777 "/>
  <polygon class="fil2" points="456,641 484,641 484,777 456,777 "/>
  <polygon class="fil2" points="511,641 538,641 538,777 511,777 "/>
  <polygon class="fil2" points="566,641 593,641 593,777 566,777 "/>
  <polygon class="fil2" points="620,641 648,641 648,777 620,777 "/>
  <polygon class="fil2" points="675,641 702,641 702,777 675,777 "/>
  <polygon class="fil2" points="730,641 757,641 757,777 730,777 "/>
  <polygon class="fil2" points="784,641 812,641 812,777 784,777 "/>
  <polygon class="fil2" points="839,641 866,641 866,777 839,777 "/>
  <polygon class="fil2" points="893,641 921,641 921,777 893,777 "/>
  <polygon class="fil2" points="948,641 975,641 975,777 948,777 "/>
  <polygon class="fil2" points="1003,641 1030,641 1030,777 1003,777 "/>
  <polygon class="fil2" points="1057,641 1085,641 1085,777 1057,777 "/>
  <polygon class="fil2" points="1112,641 1139,641 1139,777 1112,777 "/>
  <polygon class="fil2" points="1167,641 1194,641 1194,777 1167,777 "/>
  <polygon class="fil2" points="1221,641 1249,641 1249,777 1221,777 "/>
  <polygon class="fil2" points="1276,641 1303,641 1303,777 1276,777 "/>
  <polygon class="fil2" points="1331,641 1358,641 1358,777 1331,777 "/>
  <polygon class="fil2" points="1385,641 1413,641 1413,777 1385,777 "/>
  <polygon class="fil2" points="1440,641 1467,641 1467,777 1440,777 "/>
  <polygon class="fil2" points="1495,641 1522,641 1522,777 1495,777 "/>
  <polygon class="fil2" points="1549,641 1577,641 1577,777 1549,777 "/>
  <polygon class="fil2" points="1604,641 1631,641 1631,777 1604,777 "/>
  <polygon class="fil2" points="1659,641 1686,641 1686,777 1659,777 "/>
  <polygon class="fil2" points="1713,641 1741,641 1741,777 1713,777 "/>
 </g>
</svg>
