<?xml version="1.0" encoding="UTF-8"?>
<!DOCTYPE svg PUBLIC "-//W3C//DTD SVG 1.1//EN" "http://www.w3.org/Graphics/SVG/1.1/DTD/svg11.dtd">
<!-- Creator: CorelDRAW X8 -->
<svg xmlns="http://www.w3.org/2000/svg" xml:space="preserve" width="664px" height="1042px" version="1.1" style="shape-rendering:geometricPrecision; text-rendering:geometricPrecision; image-rendering:optimizeQuality; fill-rule:evenodd; clip-rule:evenodd"
viewBox="0 0 224 352"
 xmlns:xlink="http://www.w3.org/1999/xlink">
 <defs>
  <style type="text/css">
   <![CDATA[
    .str0 {stroke:#2B2A29;stroke-width:0.79735}
    .fil1 {fill:none}
    .fil2 {fill:#2B2A29}
    .fil0 {fill:#2B2A29;fill-rule:nonzero}
   ]]>
  </style>
 </defs>
 <g id="Layer_x0020_1">
  <metadata id="CorelCorpID_0Corel-Layer"/>
  <path class="fil0" d="M2 19l12 0 0 -3 -8 0 0 -5 8 0 0 -3 -8 0 0 -4 8 0 0 -4 -12 0 0 19zm24 -6l-7 -13 -4 0 0 19 4 0 0 -12 7 12 3 0 0 -19 -3 0 0 13zm4 6l6 0c5,0 10,-4 10,-9 0,-6 -5,-10 -10,-10l-6 0 0 19zm3 -3l0 -12 3 0c4,0 7,2 7,6 0,4 -3,6 -7,6l-3 0zm24 -16l-4 0 -8 19 4 0 10 -6 2 6 4 0 -8 -19zm-2 5l2 5 -6 5 4 -10zm21 8l-7 -13 -3 0 0 19 3 0 0 -12 7 12 4 0 0 -19 -4 0 0 13zm15 7c2,0 4,-1 5,-2l0 1 4 0 0 -9 -9 0 0 3 5 0 0 0c-1,2 -3,4 -5,4 -4,0 -7,-3 -7,-7 0,-4 3,-7 7,-7 2,0 4,1 5,3l3 -2c-2,-2 -5,-4 -8,-4 -6,0 -10,4 -10,10 0,5 4,10 10,10zm10 -1l11 0 0 -3 -8 0 0 -5 8 0 0 -3 -8 0 0 -4 8 0 0 -4 -11 0 0 19zm26 0l0 -3 -10 -5 4 0c3,0 6,-2 6,-5 0,-4 -3,-6 -6,-6l-8 0 0 19 4 0 0 -4 10 4zm-3 -13c0,1 -1,2 -3,2l-4 0 0 -4 4 0c2,0 3,0 3,2zm4 13l4 0 0 -19 -4 0 0 19zm15 -6l-7 -13 -3 0 0 19 3 0 0 -12 7 12 3 0 0 -19 -3 0 0 13zm14 7c2,0 4,-1 6,-2l0 1 3 0 0 -9 -9 0 0 3 6 0 0 0c-1,2 -3,4 -6,4 -3,0 -6,-3 -6,-7 0,-4 3,-7 6,-7 3,0 5,1 6,3l2 -2c-1,-2 -4,-4 -8,-4 -5,0 -10,4 -10,10 0,5 5,10 10,10zm23 -16l5 0 0 15 3 0 0 -15 5 0 0 -4 -13 0 0 4zm24 4l-6 0 0 -8 -4 0 0 19 4 0 0 -8 6 0 0 8 4 0 0 -19 -4 0 0 8zm5 11l12 0 0 -3 -9 0 0 -5 9 0 0 -3 -9 0 0 -4 9 0 0 -4 -12 0 0 19zm-207 31l12 0 0 -3 -8 0 0 -5 8 0 0 -3 -8 0 0 -5 8 0 0 -3 -12 0 0 19zm24 -6l-7 -13 -4 0 0 19 4 0 0 -13 7 13 3 0 0 -19 -3 0 0 13zm10 6l3 0 6 -19 -3 0 -4 14 -4 -14 -4 0 6 19zm10 0l4 0 0 -19 -4 0 0 19zm19 0l0 -4 -11 -4 4 0c4,0 7,-2 7,-6 0,-3 -3,-5 -7,-5l-7 0 0 19 3 0 0 -5 11 5zm-4 -14c0,2 -1,3 -2,3l-5 0 0 -5 5 0c1,0 2,1 2,2zm4 4c0,6 4,10 10,10 5,0 10,-4 10,-10 0,-5 -5,-10 -10,-10 -6,0 -10,5 -10,10zm3 0c0,-4 3,-7 7,-7 4,0 7,3 7,7 0,4 -3,7 -7,7 -4,0 -7,-3 -7,-7zm28 4l-7 -13 -3 0 0 19 3 0 0 -13 7 13 4 0 0 -19 -4 0 0 13zm10 -13l-5 0 0 19 3 0 0 -14 3 14 3 0 3 -14 0 14 3 0 0 -19 -5 0 -2 11 -3 -11zm11 19l12 0 0 -3 -8 0 0 -5 8 0 0 -3 -8 0 0 -5 8 0 0 -3 -12 0 0 19zm24 -6l-7 -13 -4 0 0 19 3 0 0 -13 7 13 4 0 0 -19 -3 0 0 13zm4 -10l5 0 0 16 3 0 0 -16 5 0 0 -3 -13 0 0 3z"/>
  <line class="fil1 str0" x1="3" y1="352" x2="3" y2= "56" />
  <path class="fil2" d="M3 345c2,0 4,1 4,3 0,2 -2,4 -4,4 -1,0 -3,-2 -3,-4 0,-2 2,-3 3,-3z"/>
  <polygon class="fil2" points="6,56 9,56 9,68 6,68 "/>
  <polygon class="fil2" points="11,56 14,56 14,68 11,68 "/>
  <polygon class="fil2" points="16,56 18,56 18,68 16,68 "/>
  <polygon class="fil2" points="21,56 23,56 23,68 21,68 "/>
  <polygon class="fil2" points="26,56 28,56 28,68 26,68 "/>
  <polygon class="fil2" points="30,56 33,56 33,68 30,68 "/>
  <polygon class="fil2" points="35,56 38,56 38,68 35,68 "/>
  <polygon class="fil2" points="40,56 42,56 42,68 40,68 "/>
  <polygon class="fil2" points="45,56 47,56 47,68 45,68 "/>
  <polygon class="fil2" points="50,56 52,56 52,68 50,68 "/>
  <polygon class="fil2" points="54,56 57,56 57,68 54,68 "/>
  <polygon class="fil2" points="59,56 61,56 61,68 59,68 "/>
  <polygon class="fil2" points="64,56 66,56 66,68 64,68 "/>
  <polygon class="fil2" points="69,56 71,56 71,68 69,68 "/>
  <polygon class="fil2" points="73,56 76,56 76,68 73,68 "/>
  <polygon class="fil2" points="78,56 81,56 81,68 78,68 "/>
  <polygon class="fil2" points="83,56 85,56 85,68 83,68 "/>
  <polygon class="fil2" points="88,56 90,56 90,68 88,68 "/>
  <polygon class="fil2" points="93,56 95,56 95,68 93,68 "/>
  <polygon class="fil2" points="97,56 100,56 100,68 97,68 "/>
  <polygon class="fil2" points="102,56 105,56 105,68 102,68 "/>
  <polygon class="fil2" points="107,56 109,56 109,68 107,68 "/>
  <polygon class="fil2" points="112,56 114,56 114,68 112,68 "/>
  <polygon class="fil2" points="116,56 119,56 119,68 116,68 "/>
  <polygon class="fil2" points="121,56 124,56 124,68 121,68 "/>
  <polygon class="fil2" points="126,56 128,56 128,68 126,68 "/>
  <polygon class="fil2" points="131,56 133,56 133,68 131,68 "/>
  <polygon class="fil2" points="136,56 138,56 138,68 136,68 "/>
  <polygon class="fil2" points="140,56 143,56 143,68 140,68 "/>
  <polygon class="fil2" points="145,56 148,56 148,68 145,68 "/>
  <polygon class="fil2" points="150,56 152,56 152,68 150,68 "/>
  <polygon class="fil2" points="155,56 157,56 157,68 155,68 "/>
  <polygon class="fil2" points="160,56 162,56 162,68 160,68 "/>
  <polygon class="fil2" points="164,56 167,56 167,68 164,68 "/>
  <polygon class="fil2" points="169,56 172,56 172,68 169,68 "/>
  <polygon class="fil2" points="174,56 176,56 176,68 174,68 "/>
  <polygon class="fil2" points="179,56 181,56 181,68 179,68 "/>
  <polygon class="fil2" points="183,56 186,56 186,68 183,68 "/>
  <polygon class="fil2" points="188,56 191,56 191,68 188,68 "/>
  <polygon class="fil2" points="193,56 195,56 195,68 193,68 "/>
  <polygon class="fil2" points="198,56 200,56 200,68 198,68 "/>
  <polygon class="fil2" points="203,56 205,56 205,68 203,68 "/>
  <polygon class="fil2" points="207,56 210,56 210,68 207,68 "/>
  <polygon class="fil2" points="212,56 215,56 215,68 212,68 "/>
  <polygon class="fil2" points="217,56 219,56 219,68 217,68 "/>
  <polygon class="fil2" points="222,56 224,56 224,68 222,68 "/>
 </g>
</svg>
