<?xml version="1.0" encoding="UTF-8"?>
<!DOCTYPE svg PUBLIC "-//W3C//DTD SVG 1.1//EN" "http://www.w3.org/Graphics/SVG/1.1/DTD/svg11.dtd">
<!-- Creator: CorelDRAW X8 -->
<svg xmlns="http://www.w3.org/2000/svg" xml:space="preserve" width="480px" height="952px" version="1.1" style="shape-rendering:geometricPrecision; text-rendering:geometricPrecision; image-rendering:optimizeQuality; fill-rule:evenodd; clip-rule:evenodd"
viewBox="0 0 1960 3889"
 xmlns:xlink="http://www.w3.org/1999/xlink">
 <defs>
  <style type="text/css">
   <![CDATA[
    .str0 {stroke:#2B2A29;stroke-width:9.65135}
    .fil1 {fill:none}
    .fil2 {fill:#2B2A29}
    .fil0 {fill:#2B2A29;fill-rule:nonzero}
   ]]>
  </style>
 </defs>
 <g id="Layer_x0020_1">
  <metadata id="CorelCorpID_0Corel-Layer"/>
  <path class="fil0" d="M108 5l-66 0 0 230 40 0 0 -169 37 169 35 0 37 -169 0 169 40 0 0 -230 -66 0 -28 140 -29 -140zm297 0l-40 0 0 157c0,24 -18,40 -41,40 -23,0 -40,-16 -40,-40l0 -157 -41 0 0 156c0,47 36,79 81,79 45,0 81,-32 81,-79l0 -156zm132 197c-46,0 -81,-36 -81,-82 0,-46 35,-82 81,-82 31,0 55,15 68,39l28 -28c-22,-30 -56,-49 -96,-49 -66,0 -120,52 -120,120 0,68 54,120 120,120 40,0 74,-19 96,-49l-28 -28c-13,24 -37,39 -68,39zm149 -113l0 -84 -40 0 0 230 40 0 0 -84 154 84 0 -45 -133 -70 133 -70 0 -45 -154 84zm333 146l0 -45 -123 -52 50 0c39,0 73,-26 73,-67 0,-41 -34,-66 -73,-66l-94 0 0 230 40 0 0 -57 127 57zm-40 -164c0,19 -15,28 -32,28l-55 0 0 -56 55 0c17,0 32,9 32,28zm192 -66l-42 0 -98 230 41 0 123 -74 32 74 42 0 -98 -230zm-21 50l29 68 -82 55 53 -123zm172 34l0 -84 -41 0 0 230 41 0 0 -84 154 84 0 -45 -133 -70 133 -70 0 -45 -154 84zm166 146l40 0 0 -230 -40 0 0 230zm181 -75l-85 -155 -43 0 0 230 39 0 0 -155 85 155 44 0 0 -230 -40 0 0 155zm172 80c24,0 48,-9 67,-23l0 18 40 0 0 -115 -107 0 0 38 68 0 0 5c-11,24 -38,39 -68,39 -47,0 -82,-36 -82,-82 0,-46 35,-82 82,-82 30,0 54,15 68,39l28 -28c-22,-30 -56,-49 -96,-49 -67,0 -120,52 -120,120 0,68 53,120 120,120z"/>
  <line class="fil1 str0" x1="42" y1="3889" x2="42" y2= "312" />
  <path class="fil2" d="M42 3805c23,0 42,19 42,42 0,23 -19,42 -42,42 -23,0 -42,-19 -42,-42 0,-23 19,-42 42,-42z"/>
  <polygon class="fil2" points="78,311 107,311 107,456 78,456 "/>
  <polygon class="fil2" points="136,311 165,311 165,456 136,456 "/>
  <polygon class="fil2" points="194,311 223,311 223,456 194,456 "/>
  <polygon class="fil2" points="252,311 281,311 281,456 252,456 "/>
  <polygon class="fil2" points="310,311 339,311 339,456 310,456 "/>
  <polygon class="fil2" points="368,311 397,311 397,456 368,456 "/>
  <polygon class="fil2" points="426,311 455,311 455,456 426,456 "/>
  <polygon class="fil2" points="483,311 512,311 512,456 483,456 "/>
  <polygon class="fil2" points="541,311 570,311 570,456 541,456 "/>
  <polygon class="fil2" points="599,311 628,311 628,456 599,456 "/>
  <polygon class="fil2" points="657,311 686,311 686,456 657,456 "/>
  <polygon class="fil2" points="715,311 744,311 744,456 715,456 "/>
  <polygon class="fil2" points="773,311 802,311 802,456 773,456 "/>
  <polygon class="fil2" points="831,311 860,311 860,456 831,456 "/>
  <polygon class="fil2" points="889,311 918,311 918,456 889,456 "/>
  <polygon class="fil2" points="947,311 976,311 976,456 947,456 "/>
  <polygon class="fil2" points="1005,311 1034,311 1034,456 1005,456 "/>
  <polygon class="fil2" points="1063,311 1092,311 1092,456 1063,456 "/>
  <polygon class="fil2" points="1120,311 1149,311 1149,456 1120,456 "/>
  <polygon class="fil2" points="1178,311 1207,311 1207,456 1178,456 "/>
  <polygon class="fil2" points="1236,311 1265,311 1265,456 1236,456 "/>
  <polygon class="fil2" points="1294,311 1323,311 1323,456 1294,456 "/>
  <polygon class="fil2" points="1352,311 1381,311 1381,456 1352,456 "/>
  <polygon class="fil2" points="1410,311 1439,311 1439,456 1410,456 "/>
  <polygon class="fil2" points="1468,311 1497,311 1497,456 1468,456 "/>
  <polygon class="fil2" points="1526,311 1555,311 1555,456 1526,456 "/>
  <polygon class="fil2" points="1584,311 1613,311 1613,456 1584,456 "/>
  <polygon class="fil2" points="1642,311 1671,311 1671,456 1642,456 "/>
  <polygon class="fil2" points="1700,311 1729,311 1729,456 1700,456 "/>
  <polygon class="fil2" points="1757,311 1786,311 1786,456 1757,456 "/>
  <polygon class="fil2" points="1815,311 1844,311 1844,456 1815,456 "/>
  <polygon class="fil2" points="1873,311 1902,311 1902,456 1873,456 "/>
  <polygon class="fil2" points="1931,311 1960,311 1960,456 1931,456 "/>
 </g>
</svg>
