<svg xmlns="http://www.w3.org/2000/svg" viewBox="0 0 376.42 56.31"><defs><style>.cls-1{fill:#ffe600;}</style></defs><title>1390-1857</title><g id="Layer_2" data-name="Layer 2"><g id="Layer_1-2" data-name="Layer 1"><path class="cls-1" d="M20.88,18.72,9.72,46.23H0L19.3,1.15H30.17v54H20.88Z"/><path class="cls-1" d="M40.9,10.15v-9H72.43v9l-7.77,7.78a19.18,19.18,0,0,1,12.6,18.51c0,11.44-9.29,19.87-20.67,19.87-8.13,0-15.77-4.47-19.22-11.45l7.56-6.62a11.8,11.8,0,0,0,11.66,9.21c6.41,0,11.24-4.39,11.24-11.09a10.65,10.65,0,0,0-11-10.94H44.71L60.34,10.15Z"/><path class="cls-1" d="M105,55.16H94.46l9.29-13.9a7.14,7.14,0,0,1-1.22.07,20.67,20.67,0,1,1,20.74-20.59,21.34,21.34,0,0,1-3.53,11.59Zm-2.45-46.3c-6.77,0-11.52,5.25-11.52,12a11.49,11.49,0,1,0,23,0C114,14.19,109.15,8.86,102.53,8.86Z"/><path class="cls-1" d="M162.85,48.66c.1-.13.2-.25.29-.38.32-.43.63-.86.92-1.32l.21-.33c.27-.43.53-.86.78-1.31a2,2,0,0,1,.14-.25c.27-.51.53-1,.78-1.57.06-.12.12-.25.17-.37.25-.55.48-1.1.7-1.67l.09-.24c.2-.55.39-1.11.57-1.67l.09-.27c.18-.6.35-1.22.51-1.85,0-.12.06-.24.08-.37.16-.64.29-1.28.41-1.94a.78.78,0,0,0,0-.14c.12-.64.21-1.28.29-1.93,0-.11,0-.23,0-.35q.12-1,.18-2c0-.14,0-.27,0-.41,0-.7.06-1.41.06-2.12h0V28c0-15.49-8.75-28-20.81-28h0a16.64,16.64,0,0,0-6.11,1.16h0l-.17.08c-.42.17-.83.36-1.24.56l-.47.25c-.36.19-.71.4-1.06.62l-.44.29c-.34.22-.66.46-1,.7-.14.11-.28.21-.42.33-.36.29-.72.61-1.08.93l-.36.35c-.31.3-.61.61-.9.94l-.26.28c-.33.37-.65.77-1,1.17l-.29.38c-.32.43-.62.86-.91,1.31l-.22.34c-.26.43-.52.86-.77,1.31l-.14.25c-.28.51-.54,1-.79,1.57-.05.12-.11.25-.17.37-.24.55-.48,1.1-.7,1.67l-.09.24c-.2.55-.39,1.11-.57,1.67a2.76,2.76,0,0,0-.08.27c-.19.6-.36,1.22-.51,1.85l-.09.37c-.15.64-.29,1.28-.41,1.94,0,0,0,.1,0,.14-.11.63-.2,1.28-.28,1.93,0,.11,0,.23,0,.35-.07.66-.13,1.33-.17,2l0,.41c0,.7-.06,1.41-.06,2.12h0v.13c.06,15.49,8.75,28,20.81,28h0a16.6,16.6,0,0,0,6.11-1.16h0l.17-.08c.42-.17.83-.36,1.24-.56l.47-.25c.36-.2.71-.4,1.06-.62l.45-.29c.33-.22.66-.46,1-.7l.41-.33c.37-.29.73-.61,1.08-.93l.36-.35c.31-.3.61-.61.91-.94.08-.09.17-.18.25-.28C162.22,49.46,162.54,49.06,162.85,48.66ZM148.5,47.44h-.11c-6.84,0-11.37-8.71-11.37-19.29,0-.75,0-1.47.07-2.19.57-9.52,4.89-17,11.19-17.1h.11c6.84,0,11.38,8.71,11.38,19.29,0,.75,0,1.47-.07,2.19C159.12,39.86,154.8,47.35,148.5,47.44Z"/><path class="cls-1" d="M174.67,23.62H211v9H174.67Z"/><path class="cls-1" d="M237.38,18.72,226.22,46.23H216.5L235.8,1.15h10.87v54h-9.29Z"/><path class="cls-1" d="M262.44,27.36a15.56,15.56,0,0,1-4.9-11.45,16.1,16.1,0,0,1,32.19,0,15.83,15.83,0,0,1-4.9,11.45,16,16,0,0,1,5.69,12.24,16.89,16.89,0,0,1-33.77,0A16,16,0,0,1,262.44,27.36Zm3.74,12.24a7.46,7.46,0,1,0,14.91,0,7.46,7.46,0,1,0-14.91,0Zm14.4-23.69a6.95,6.95,0,1,0-13.89,0,6.95,6.95,0,1,0,13.89,0Z"/><path class="cls-1" d="M303.62,1.15h27.51v9H309l-3.53,6.34h10c11.38,0,20.38,8.06,20.38,20,0,11.44-9.29,19.87-20.67,19.87-8.13,0-15.76-4.47-19.22-11.45l7.56-6.62a11.8,11.8,0,0,0,11.66,9.21c6.41,0,11.24-4.39,11.24-11.09,0-6.55-4.9-10.94-11.52-10.94H296V16.56Z"/><path class="cls-1" d="M376.42,1.15v9l-28.37,45H337l28.73-45H341.21v-9Z"/></g></g></svg>