<svg xmlns="http://www.w3.org/2000/svg" viewBox="0 0 160.13 56.31"><defs><style>.cls-1{fill:#fff;}</style></defs><title>1870</title><g id="Layer_2" data-name="Layer 2"><g id="Layer_1-2" data-name="Layer 1"><path class="cls-1" d="M20.88,18.72,9.72,46.23H0L19.3,1.15H30.17v54H20.88Z"/><path class="cls-1" d="M45.94,27.36A15.56,15.56,0,0,1,41,15.91,16.1,16.1,0,1,1,68.33,27.36,16,16,0,0,1,74,39.6a16.89,16.89,0,0,1-33.77,0A16,16,0,0,1,45.94,27.36ZM49.68,39.6a7.46,7.46,0,1,0,14.91,0,7.46,7.46,0,1,0-14.91,0Zm14.4-23.69a6.95,6.95,0,1,0-13.89,0,6.95,6.95,0,1,0,13.89,0Z"/><path class="cls-1" d="M116.35,1.15v9L88,55.16H76.9l28.73-45H81.14v-9Z"/><path class="cls-1" d="M153.77,48.67c.11-.13.21-.26.31-.4.31-.42.61-.85.9-1.3l.22-.35c.27-.42.52-.85.77-1.29l.15-.27c.27-.5.53-1,.78-1.55.06-.13.12-.26.17-.39.25-.54.48-1.09.7-1.66l.09-.25q.3-.81.57-1.65l.09-.28c.18-.6.35-1.22.5-1.84l.09-.38c.15-.64.29-1.29.41-1.94a.78.78,0,0,0,0-.14c.11-.64.21-1.28.29-1.93,0-.11,0-.23,0-.35q.12-1,.18-2c0-.14,0-.27,0-.41,0-.7.06-1.41.06-2.12h0V28c0-15.49-8.75-28-20.81-28h0a16.64,16.64,0,0,0-6.11,1.16h0l-.17.08c-.42.17-.83.36-1.24.56l-.47.25c-.36.19-.71.4-1,.61l-.46.31c-.33.22-.65.45-1,.69l-.42.33c-.37.29-.72.6-1.07.93l-.38.36c-.3.29-.59.6-.88.91-.09.11-.19.21-.29.32-.32.36-.63.75-.93,1.14-.1.13-.21.26-.31.4-.31.42-.61.85-.9,1.3l-.22.35c-.27.42-.52.85-.76,1.29-.05.09-.11.17-.16.27-.27.5-.53,1-.77,1.55l-.18.39c-.25.54-.48,1.09-.7,1.66l-.09.25q-.3.81-.57,1.65l-.09.28c-.18.6-.35,1.22-.5,1.84l-.09.38c-.15.64-.29,1.29-.41,1.94,0,0,0,.1,0,.14-.11.63-.21,1.28-.29,1.93,0,.11,0,.23,0,.35q-.1,1-.18,2c0,.14,0,.27,0,.41,0,.7-.06,1.41-.06,2.12h0v.13c0,15.49,8.75,28,20.81,28h0a16.64,16.64,0,0,0,6.11-1.16h0l.17-.08c.42-.17.83-.36,1.24-.56l.48-.25c.35-.19.7-.4,1-.61l.47-.31,1-.69.42-.33a13.44,13.44,0,0,0,1.07-.93l.38-.36c.3-.29.59-.6.88-.91l.29-.32Q153.32,49.26,153.77,48.67Zm-14.39-1.22h-.06c-6.84,0-11.38-8.71-11.38-19.29,0-.43,0-.85,0-1.28.35-10,4.75-18,11.29-18h0c6.84,0,11.38,8.71,11.38,19.29,0,.43,0,.85,0,1.28C150.32,39.4,145.91,47.4,139.38,47.45Z"/></g></g></svg>