<svg xmlns="http://www.w3.org/2000/svg" viewBox="0 0 154.87 56.31"><defs><style>.cls-1{fill:#fff;}</style></defs><title>1887</title><g id="Layer_2" data-name="Layer 2"><g id="Layer_1-2" data-name="Layer 1"><path class="cls-1" d="M20.88,18.72,9.72,46.23H0L19.3,1.15H30.17v54H20.88Z"/><path class="cls-1" d="M45.94,27.36A15.56,15.56,0,0,1,41,15.91,16.1,16.1,0,1,1,68.33,27.36,16,16,0,0,1,74,39.6a16.89,16.89,0,0,1-33.77,0A16,16,0,0,1,45.94,27.36ZM49.68,39.6a7.46,7.46,0,1,0,14.91,0,7.46,7.46,0,1,0-14.91,0Zm14.4-23.69a6.95,6.95,0,1,0-13.89,0,6.95,6.95,0,1,0,13.89,0Z"/><path class="cls-1" d="M85.18,27.36a15.56,15.56,0,0,1-4.9-11.45,16.1,16.1,0,1,1,27.29,11.45,16,16,0,0,1,5.69,12.24,16.89,16.89,0,0,1-33.77,0A16,16,0,0,1,85.18,27.36ZM88.92,39.6a7.46,7.46,0,1,0,14.91,0,7.46,7.46,0,1,0-14.91,0Zm14.4-23.69a7,7,0,1,0-13.9,0,7,7,0,1,0,13.9,0Z"/><path class="cls-1" d="M154.87,1.15v9l-28.37,45H115.41l28.73-45H119.66v-9Z"/></g></g></svg>