<svg xmlns="http://www.w3.org/2000/svg" viewBox="0 0 166.32 56.31"><defs><style>.cls-1{fill:#fff;}</style></defs><title>1903</title><g id="Layer_2" data-name="Layer 2"><g id="Layer_1-2" data-name="Layer 1"><path class="cls-1" d="M20.88,18.72,9.72,46.23H0L19.3,1.15H30.17v54H20.88Z"/><path class="cls-1" d="M60.05,55.16H49.54l9.29-13.9a7.25,7.25,0,0,1-1.23.07A20.67,20.67,0,1,1,78.34,20.74a21.34,21.34,0,0,1-3.53,11.59ZM57.6,8.86c-6.77,0-11.52,5.25-11.52,12a11.49,11.49,0,1,0,23,0C69.05,14.19,64.23,8.86,57.6,8.86Z"/><path class="cls-1" d="M117.2,48.67l.3-.4c.31-.42.62-.85.91-1.3l.22-.35c.26-.42.52-.85.76-1.29l.15-.27c.28-.5.53-1,.78-1.55l.18-.39c.24-.54.48-1.09.69-1.66,0-.08.06-.17.1-.25.2-.54.39-1.09.56-1.65l.09-.28c.19-.6.35-1.22.51-1.84l.09-.38c.15-.64.29-1.29.41-1.94a.59.59,0,0,1,0-.14c.11-.64.2-1.28.28-1.93,0-.11,0-.23,0-.35.07-.66.13-1.33.17-2,0-.14,0-.27,0-.41,0-.7.07-1.41.07-2.12h0s0-.09,0-.13c0-15.49-8.74-28-20.8-28h0a16.69,16.69,0,0,0-6.12,1.16h0l-.17.08c-.42.17-.83.36-1.24.56L94.74,2c-.35.19-.7.4-1,.61-.16.1-.32.2-.47.31q-.49.33-1,.69L91.84,4c-.36.29-.72.6-1.07.93l-.37.36c-.3.29-.6.6-.89.91l-.28.32c-.32.36-.63.75-.94,1.14L88,8c-.31.42-.62.85-.91,1.3l-.22.35c-.26.42-.52.85-.76,1.29l-.15.27c-.27.5-.53,1-.78,1.55l-.18.39c-.24.54-.48,1.09-.69,1.66a2.6,2.6,0,0,1-.1.25c-.2.54-.39,1.09-.56,1.65l-.09.28c-.19.6-.35,1.22-.51,1.84l-.09.38c-.15.64-.29,1.29-.4,1.94l0,.14c-.11.63-.2,1.28-.28,1.93,0,.11,0,.23,0,.35q-.12,1-.18,2c0,.14,0,.27,0,.41,0,.7-.06,1.41-.06,2.12h0v.13c0,15.49,8.74,28,20.81,28h0a16.68,16.68,0,0,0,6.11-1.16h0l.16-.08c.42-.17.84-.36,1.24-.56l.48-.25c.35-.19.7-.4,1-.61.16-.1.32-.2.47-.31.33-.22.65-.45,1-.69l.42-.33c.36-.29.72-.6,1.07-.93l.37-.36c.3-.29.6-.6.89-.91l.28-.32C116.58,49.44,116.9,49.06,117.2,48.67Zm-14.4-1.22h0c-6.85,0-11.38-8.71-11.38-19.29,0-.43,0-.85,0-1.28.35-10,4.76-18,11.29-18h.06c6.84,0,11.37,8.71,11.37,19.29,0,.43,0,.85,0,1.28C113.74,39.4,109.33,47.4,102.8,47.45Z"/><path class="cls-1" d="M130,10.15v-9H161.5v9l-7.78,7.78a19.17,19.17,0,0,1,12.6,18.51c0,11.44-9.29,19.87-20.66,19.87-8.14,0-15.77-4.47-19.23-11.45L134,38.24a11.81,11.81,0,0,0,11.67,9.21c6.41,0,11.23-4.39,11.23-11.09a10.65,10.65,0,0,0-11-10.94H133.78L149.4,10.15Z"/></g></g></svg>