<svg xmlns="http://www.w3.org/2000/svg" width="263.88" height="55.16" viewBox="0 0 263.88 55.16"><defs><style>.cls-1{fill:#fff;}</style></defs><title>Asset 28</title><g id="Layer_2" data-name="Layer 2"><g id="Layer_1-2" data-name="Layer 1"><path class="cls-1" d="M0,0H9.5V43.2L34.56,27.36V38L9.5,54H0Z"/><path class="cls-1" d="M38.16,0h9.5V54h-9.5Z"/><path class="cls-1" d="M63.07,54H53.13V0h9.29V25.78L69.84,0h9.94L96.41,54h-10L74.81,14Z"/><path class="cls-1" d="M113.69,54V45L136.3,9H114.12V0h32.47V9L123.84,45h22.75v9Z"/><path class="cls-1" d="M152.06,0h33.7V9H161.57V22.47h24.19v9H161.57V45h24.19v9h-33.7Z"/><path class="cls-1" d="M199.29,54h-9.93l11.45-27L189.36,0h10l6.4,15.19L212.26,0h10L210.82,27l11.44,27h-9.93l-6.56-15.26Z"/><path class="cls-1" d="M263.88,36.79c0,10.88-8.5,18.37-19,18.37s-19-7.49-19-18.37V0h9.51V36.94c0,5.54,4,9.36,9.5,9.36s9.51-3.82,9.51-9.36V0h9.5Z"/></g></g></svg>