<svg xmlns="http://www.w3.org/2000/svg" width="307.53" height="148.02" viewBox="0 0 307.53 148.02">
    <defs>
        <style>
            .cls-1 {
                fill: #fff;
            }
        </style>
    </defs>
    <title>Asset 29</title>
    <g id="Layer_2" data-name="Layer 2">
        <g id="Layer_1-2" data-name="Layer 1">
            <path class="cls-1"
                d="M45.28,38.24l6.62,6.62A27.9,27.9,0,0,1,29.29,56.31,27.92,27.92,0,0,1,1.14,28.16,27.92,27.92,0,0,1,29.29,0,27.48,27.48,0,0,1,51.9,11.45l-6.62,6.62a17.79,17.79,0,0,0-16-9.21c-10.87,0-19.08,8.42-19.08,19.3A18.79,18.79,0,0,0,29.29,47.38,17.73,17.73,0,0,0,45.28,38.24Z" />
            <path class="cls-1" d="M81,46.16v9H54.06v-9l28.87-45H93.52v54H84V16.27L65.15,46.16Z" />
            <path class="cls-1" d="M129.08,1.15h9.37v54H128.22L108.35,18.79V55.16H99v-54h10.29l19.8,36.44Z" />
            <path class="cls-1" d="M143.91,1.15h38v9H167.68v45h-9.51v-45H143.91Z" />
            <path class="cls-1"
                d="M209.36,0a27.92,27.92,0,0,1,28.16,28.16,28.16,28.16,0,0,1-56.31,0A27.92,27.92,0,0,1,209.36,0Zm0,47.38a19,19,0,0,0,19.23-19.22,19.19,19.19,0,1,0-38.38,0A19,19,0,0,0,209.36,47.38Z" />
            <path class="cls-1" d="M271.21,1.15h9.36v54H270.35L250.47,18.79V55.16h-9.36v-54h10.3l19.8,36.44Z" />
            <path class="cls-1"
                d="M11.29,77.77c0,4,5,6.19,10.37,8.78,6.34,3.1,13.61,6.92,13.61,15.92,0,9.36-7,15.77-17,15.77-7.06,0-14.48-5.55-17.14-11.38L8,100.24c1.94,4.1,5.83,8.85,10.44,8.85,4,0,7.2-2.23,7.2-6.41,0-3.52-4.18-5.4-9.14-7.92-6.41-3.24-14.69-7.2-14.69-16.92,0-9,6.84-15.77,16.56-15.77,7,0,14.11,5.55,16.78,11.31L28.21,80c-2-4-5.4-8.85-10-8.85C14.32,71.15,11.29,73.67,11.29,77.77Z" />
            <path class="cls-1" d="M36.71,63.15H46.86l7.56,20.38,8-20.38H72.78l-23,54H39.88l9.64-22.54Z" />
            <path class="cls-1"
                d="M82.21,77.77c0,4,5,6.19,10.37,8.78,6.34,3.1,13.61,6.92,13.61,15.92,0,9.36-7,15.77-17,15.77-7.06,0-14.48-5.55-17.14-11.38l6.84-6.62c1.94,4.1,5.83,8.85,10.44,8.85,4,0,7.2-2.23,7.2-6.41,0-3.52-4.17-5.4-9.14-7.92C81,91.52,72.71,87.56,72.71,77.84c0-9,6.84-15.77,16.56-15.77,7.06,0,14.11,5.55,16.78,11.31L99.13,80c-2-4-5.4-8.85-10-8.85C85.24,71.15,82.21,73.67,82.21,77.77Z" />
            <path class="cls-1" d="M108.35,63.15h38v9H132.11v45H122.6v-45H108.35Z" />
            <path class="cls-1" d="M151.83,63.15h33.7v9H161.34V85.62h24.19v9H161.34v13.54h24.19v9h-33.7Z" />
            <path class="cls-1"
                d="M213.18,96.06,220,63.15h15.41v54h-9.29V77.41l-8.86,39.75h-8.06l-8.86-39.75v39.75H191v-54h15.41Z" />
        </g>
    </g>
</svg>