<svg xmlns="http://www.w3.org/2000/svg" width="606.67" height="121.31" viewBox="0 0 606.67 121.31"><defs><style>.cls-1{fill:#fff;}</style></defs><title>Asset 31</title><g id="Layer_2" data-name="Layer 2"><g id="Layer_1-2" data-name="Layer 1"><path class="cls-1" d="M0,1.15H12.39c15.48,0,28.44,11.09,28.44,27s-13,27-28.44,27H0Zm12.6,45c11,.07,18.8-7.06,18.8-18s-7.78-18-18.8-18H9.5v36Z"/><path class="cls-1" d="M45.57,1.15h33.7v9H55.08V23.62H79.27v9H55.08V46.16H79.27v9H45.57Z"/><path class="cls-1" d="M94.9,15.77c0,4,5,6.19,10.36,8.78,6.34,3.1,13.61,6.92,13.61,15.92,0,9.36-7,15.77-17,15.77-7.06,0-14.47-5.55-17.14-11.38l6.84-6.62c2,4.1,5.84,8.85,10.44,8.85,4,0,7.21-2.23,7.21-6.41,0-3.52-4.18-5.4-9.15-7.92-6.41-3.24-14.69-7.2-14.69-16.92,0-9,6.84-15.77,16.56-15.77,7.06,0,14.12,5.55,16.78,11.31L111.82,18c-2-4-5.4-8.85-10-8.85C97.92,9.15,94.9,11.67,94.9,15.77Z"/><path class="cls-1" d="M122.9,1.15h38v9H146.67v45h-9.51v-45H122.9Z"/><path class="cls-1" d="M175.9,32.62V55.16h-9.51v-54h22c9.22,0,17.21,6,17.21,15.7A14.9,14.9,0,0,1,200,28.51c3.09,2.45,5.61,5.91,6.4,13.4.29,2.66.8,6.69,2.09,13.25h-9.86c-1.15-6.41-1.66-11.09-1.87-13-.58-5.47-2.67-9.5-8.29-9.5Zm12.74-22.47H175.9V23.62h12.74c4.11,0,7.49-2.31,7.49-6.77S192.75,10.15,188.64,10.15Z"/><path class="cls-1" d="M251.93,38c0,10.87-8.5,18.36-19,18.36s-19-7.49-19-18.36V1.15h9.5V38.09c0,5.55,4,9.36,9.51,9.36s9.5-3.81,9.5-9.36V1.15h9.51Z"/><path class="cls-1" d="M301.54,38.24l6.62,6.62a28.12,28.12,0,0,1-50.76-16.7A27.92,27.92,0,0,1,285.55,0a27.49,27.49,0,0,1,22.61,11.45l-6.62,6.62a17.79,17.79,0,0,0-16-9.21c-10.87,0-19.08,8.42-19.08,19.3a18.79,18.79,0,0,0,19.08,19.22A17.73,17.73,0,0,0,301.54,38.24Z"/><path class="cls-1" d="M312.19,1.15h38v9H336v45h-9.5v-45H312.19Z"/><path class="cls-1" d="M355.68,1.15h9.5v54h-9.5Z"/><path class="cls-1" d="M398.81,0A27.92,27.92,0,0,1,427,28.16a28.16,28.16,0,0,1-56.31,0A27.92,27.92,0,0,1,398.81,0Zm0,47.38A19,19,0,0,0,418,28.16a19.19,19.19,0,1,0-38.38,0A19,19,0,0,0,398.81,47.38Z"/><path class="cls-1" d="M462.53,1.15h9.36v54H461.66L441.79,18.79V55.16h-9.36v-54h10.3l19.8,36.44Z"/><path class="cls-1" d="M506.12,27.58A14.08,14.08,0,1,1,492,41.66,14,14,0,0,1,506.12,27.58Zm0,23.69a9.63,9.63,0,1,0-9.58-9.61A9.52,9.52,0,0,0,506.12,51.27Z"/><path class="cls-1" d="M521.64,28.16h16.84v4.5H526.39v6.73h12.09v4.5H526.39V55.16h-4.75Z"/><path class="cls-1" d="M548.92,28.16h19v4.5H560.8v22.5h-4.75V32.66h-7.13Z"/><path class="cls-1" d="M583.63,28.16h4.75v27h-4.75V43.89h-9.51V55.16h-4.75v-27h4.75V39.39h9.51Z"/><path class="cls-1" d="M589.82,28.16h16.85v4.5h-12.1v6.73h12.1v4.5h-12.1v6.77h12.1v4.5H589.82Z"/><path class="cls-1" d="M28.15,65a28.16,28.16,0,1,1,0,56.31,28.16,28.16,0,0,1,0-56.31Zm0,47.38a19.26,19.26,0,0,0,0-38.52,19.26,19.26,0,0,0,0,38.52Z"/><path class="cls-1" d="M69.41,97.62v22.54H59.9v-54H81.22c9.21,0,17.21,6,17.21,15.7s-8,15.77-17.21,15.77Zm12-22.47h-12V88.62h12c4.11,0,7.49-2.45,7.49-6.77S85.54,75.15,81.43,75.15Z"/><path class="cls-1" d="M102,66.15h9.51v54H102Z"/><path class="cls-1" d="M155,103c0,10.87-8.5,18.36-19,18.36s-19-7.49-19-18.36V66.15h9.5v36.94c0,5.55,4,9.36,9.51,9.36s9.5-3.81,9.5-9.36V66.15H155Z"/><path class="cls-1" d="M182.67,99.06l6.76-32.91h15.41v54h-9.29V80.41l-8.85,39.75h-8.07l-8.85-39.75v39.75h-9.29v-54H175.9Z"/><path class="cls-1" d="M251.64,111.16v9H224.71v-9l28.87-45h10.59v54h-9.5V81.27L235.8,111.16Z"/><path class="cls-1" d="M269.64,66.15h38v9H293.4v45h-9.5v-45H269.64Z"/><path class="cls-1" d="M356,66.15h9.51v54H356V97.62H337v22.54h-9.5v-54H337V88.62h19Z"/><path class="cls-1" d="M409,103c0,10.87-8.49,18.36-19,18.36s-19-7.49-19-18.36V66.15h9.51v36.94c0,5.55,4,9.36,9.5,9.36s9.51-3.81,9.51-9.36V66.15H409Z"/><path class="cls-1" d="M436.68,99.06l6.77-32.91h15.41v54h-9.29V80.41l-8.86,39.75h-8.06l-8.86-39.75v39.75H414.5v-54h15.41Z"/><path class="cls-1" d="M464.32,66.15H498v9H473.83V88.62H498v9H473.83v13.54H498v9h-33.7Z"/><path class="cls-1" d="M533.59,66.15H543v54H532.73L512.85,83.79v36.37h-9.36v-54h10.3l19.8,36.44Z"/></g></g></svg>