<svg xmlns="http://www.w3.org/2000/svg" width="388.14" height="148.02" viewBox="0 0 388.14 148.02">
    <defs>
        <style>
            .cls-1 {
                fill: #fff;
            }
        </style>
    </defs>
    <title>Asset 30</title>
    <g id="Layer_2" data-name="Layer 2">
        <g id="Layer_1-2" data-name="Layer 1">
            <path class="cls-1"
                d="M1.14,1.15H13.52C29,1.15,42,12.24,42,28.16s-13,27-28.45,27H1.14Zm12.6,45c11,.07,18.79-7.06,18.79-18s-7.77-18-18.79-18h-3.1v36Z" />
            <path class="cls-1" d="M68.46,46.16v9H41.53v-9l28.87-45H81v54H71.48V16.27L52.62,46.16Z" />
            <path class="cls-1"
                d="M114.61,0a27.92,27.92,0,0,1,28.16,28.16,28.16,28.16,0,0,1-56.31,0A27.92,27.92,0,0,1,114.61,0Zm0,47.38a19,19,0,0,0,19.23-19.22,19.19,19.19,0,1,0-38.38,0A19,19,0,0,0,114.61,47.38Z" />
            <path class="cls-1"
                d="M145.64,28.16A27.92,27.92,0,0,1,173.8,0a27.5,27.5,0,0,1,22.61,11.45l-6.63,6.62a17.78,17.78,0,0,0-16-9.21c-10.88,0-19.09,8.42-19.09,19.3h44.43v27h-9.43V51.05a27.54,27.54,0,0,1-15.91,5.26A27.92,27.92,0,0,1,145.64,28.16Zm44.29,10.08V37h-33.2A18.6,18.6,0,0,0,173.8,47.38C181,47.38,187.26,43.92,189.93,38.24Z" />
            <path class="cls-1"
                d="M242.63,38c0,10.87-8.5,18.36-19,18.36s-19-7.49-19-18.36V1.15h9.5V38.09c0,5.55,4,9.36,9.51,9.36s9.5-3.81,9.5-9.36V1.15h9.51Z" />
            <path class="cls-1" d="M272.44,46.16v9H245.5v-9l28.88-45H285v54h-9.5V16.27L256.59,46.16Z" />
            <path class="cls-1" d="M320.53,1.15h9.36v54H319.67L299.79,18.79V55.16h-9.36v-54h10.3l19.8,36.44Z" />
            <path class="cls-1"
                d="M334.64,28.16A27.92,27.92,0,0,1,362.79,0,27.48,27.48,0,0,1,385.4,11.45l-6.62,6.62a17.78,17.78,0,0,0-16-9.21c-10.87,0-19.08,8.42-19.08,19.3h44.43v27h-9.43V51.05a27.54,27.54,0,0,1-15.92,5.26A27.92,27.92,0,0,1,334.64,28.16Zm44.28,10.08V37H345.73a18.59,18.59,0,0,0,17.06,10.37C370,47.38,376.26,43.92,378.92,38.24Z" />
            <path class="cls-1" d="M1.14,63.15h33.7v9H10.64V85.62h24.2v9H10.64v13.54h24.2v9H1.14Z" />
            <path class="cls-1"
                d="M62.48,96.06l6.77-32.91H84.66v54H75.37V77.41l-8.85,39.75H58.45L49.6,77.41v39.75H40.31v-54H55.72Z" />
            <path class="cls-1"
                d="M99.63,94.62v22.54h-9.5v-54h21.31c9.22,0,17.21,6,17.21,15.7s-8,15.77-17.21,15.77Zm12-22.47h-12V85.62h12c4.1,0,7.49-2.45,7.49-6.77S115.76,72.15,111.66,72.15Z" />
            <path class="cls-1" d="M134.12,63.15h33.7v9H143.63V85.62h24.19v9H143.63v13.54h24.19v9h-33.7Z" />
            <path class="cls-1"
                d="M182.79,94.62v22.54h-9.5v-54h22c9.22,0,17.21,6,17.21,15.7a14.88,14.88,0,0,1-5.69,11.66c3.1,2.45,5.62,5.91,6.41,13.4.29,2.66.8,6.69,2.09,13.25h-9.86c-1.16-6.41-1.66-11.09-1.88-13-.57-5.47-2.66-9.5-8.28-9.5Zm12.75-22.47H182.79V85.62h12.75c4.1,0,7.49-2.31,7.49-6.77S199.64,72.15,195.54,72.15Z" />
            <path class="cls-1"
                d="M244.93,62a28.16,28.16,0,1,1-28.15,28.16A27.92,27.92,0,0,1,244.93,62Zm0,47.38a19.26,19.26,0,1,0-19.15-19.22A19,19,0,0,0,244.93,109.38Z" />
            <path class="cls-1"
                d="M286.19,94.62v22.54h-9.51v-54h22c9.21,0,17.2,6,17.2,15.7a14.9,14.9,0,0,1-5.68,11.66c3.09,2.45,5.61,5.91,6.41,13.4.28,2.66.79,6.69,2.08,13.25h-9.86c-1.15-6.41-1.66-11.09-1.87-13-.58-5.47-2.67-9.5-8.28-9.5Zm12.74-22.47H286.19V85.62h12.74c4.11,0,7.49-2.31,7.49-6.77S303,72.15,298.93,72.15Z" />
        </g>
    </g>
</svg>