<svg xmlns="http://www.w3.org/2000/svg" width="205.56" height="56.31" viewBox="0 0 205.56 56.31"><defs><style>.cls-1{fill:#fff;}</style></defs><title>Asset 32</title><g id="Layer_2" data-name="Layer 2"><g id="Layer_1-2" data-name="Layer 1"><path class="cls-1" d="M28.15,0A27.92,27.92,0,0,1,56.31,28.16,27.92,27.92,0,0,1,28.15,56.31,27.92,27.92,0,0,1,0,28.16,27.92,27.92,0,0,1,28.15,0Zm0,47.38A19,19,0,0,0,47.38,28.16,19.19,19.19,0,1,0,9,28.16,19,19,0,0,0,28.15,47.38Z"/><path class="cls-1" d="M69.41,32.62V55.16H59.9v-54H81.22c9.21,0,17.21,6,17.21,15.7s-8,15.77-17.21,15.77Zm12-22.47h-12V23.62h12c4.11,0,7.49-2.45,7.49-6.77S85.54,10.15,81.43,10.15Z"/><path class="cls-1" d="M102.74,1.15h9.51v54h-9.51Z"/><path class="cls-1" d="M155.74,38c0,10.87-8.5,18.36-19,18.36s-19-7.49-19-18.36V1.15h9.5V38.09c0,5.55,4,9.36,9.51,9.36s9.5-3.81,9.5-9.36V1.15h9.51Z"/><path class="cls-1" d="M183.38,34.06l6.77-32.91h15.41v54h-9.29V15.41l-8.85,39.75h-8.07L170.5,15.41V55.16h-9.29v-54h15.41Z"/></g></g></svg>