<svg height="461pt" viewBox="-102 0 461 461.352" width="461pt" xmlns="http://www.w3.org/2000/svg"><path d="m112.175781 422.617188c0 6.589843 7.398438 10.773437 19.578125 16.871093 4.214844 2.105469 8.484375 4.28125 12.421875 6.769531v-47.347656c-4.054687 2.585938-8.382812 4.808594-12.421875 6.832032-12.179687 6.105468-19.578125 10.28125-19.578125 16.875zm0 0"/><path d="m112.175781 446.976562v3.6875c5.191407 3.726563 10.503907 7.320313 16 10.6875 1.632813-1 3.175781-2.113281 4.785157-3.152343-2.65625-1.503907-5.511719-2.96875-8.367188-4.398438-4.042969-2.023437-8.363281-4.25-12.417969-6.824219zm0 0"/><path d="m124.601562 357.710938c-4.042968-2.023438-8.363281-4.246094-12.425781-6.824219v47.386719c4.054688-2.585938 8.375-4.808594 12.417969-6.832032 12.183594-6.097656 19.582031-10.273437 19.582031-16.875 0-6.589844-7.398437-10.757812-19.574219-16.855468zm0 0"/><path d="m112.175781 326.550781c0 6.585938 7.398438 10.761719 19.578125 16.847657 4.039063 2.027343 8.359375 4.25 12.421875 6.824218v-47.335937c-4.054687 2.578125-8.382812 4.800781-12.421875 6.816406-12.179687 6.097656-19.578125 10.265625-19.578125 16.847656zm0 0"/><path d="m124.601562 261.71875c-4.042968-2.023438-8.363281-4.246094-12.425781-6.824219v47.328125c4.0625-2.582031 8.382813-4.796875 12.433594-6.824218 12.167969-6.085938 19.566406-10.253907 19.566406-16.824219 0-6.589844-7.398437-10.757813-19.574219-16.855469zm0 0"/><path d="m132.921875 3.128906c-1.59375-1.023437-3.121094-2.136718-4.746094-3.128906-5.496093 3.367188-10.808593 6.960938-16 10.6875v3.625c4.0625-2.578125 8.382813-4.800781 12.433594-6.824219 2.832031-1.417969 5.664063-2.863281 8.3125-4.359375zm0 0"/><path d="m26.617188 296.632812c1.40625.6875 3.429687 1.6875 5.015624 2.3125.253907-1.722656.40625-4.035156.511719-5.640624.40625-6.351563.832031-12.929688 5.28125-17.375 4.453125-4.457032 11.03125-4.875 17.390625-5.289063 1.597656-.105469 3.910156-.25 5.632813-.511719-.625-1.585937-1.625-3.609375-2.3125-5.015625-2.703125-5.496093-5.769531-11.714843-4.128907-17.855469 1.601563-5.984374 7.015626-9.601562 12.257813-13.097656 1.429687-.953125 3.519531-2.34375 4.894531-3.488281-1.375-1.144531-3.472656-2.527344-4.894531-3.488281-5.242187-3.496094-10.65625-7.113282-12.257813-13.105469-1.648437-6.140625 1.425782-12.359375 4.128907-17.847656.6875-1.40625 1.6875-3.429688 2.3125-5.015625-1.722657-.253906-4.035157-.40625-5.640625-.511719-6.351563-.40625-12.929688-.832031-17.375-5.277344-4.457032-4.457031-4.875-11.035156-5.289063-17.394531-.105469-1.597656-.25-3.910156-.511719-5.632812-1.585937.625-3.609374 1.625-5.015624 2.3125-5.503907 2.714843-11.722657 5.753906-17.855469 4.128906-.546875-.144532-.984375-.472656-1.496094-.679688-.640625 2.726563-1.335937 5.441406-1.890625 8.183594 24.578125 6.007812 42.800781 28.359375 42.800781 54.328125s-18.222656 48.320313-42.808593 54.328125c.554687 2.753906 1.257812 5.457031 1.890624 8.183594.511719-.207032.941407-.535156 1.496094-.679688 6.101563-1.625 12.359375 1.425782 17.863282 4.128906zm0 0"/><path d="m11.679688 151.585938c.464843.621093.929687 1.207031 1.320312 1.605468 1.617188-.414062 4.640625-1.894531 6.542969-2.832031 6.144531-3.03125 13.785156-6.816406 20.648437-2.832031 6.914063 4 7.472656 12.578125 7.914063 19.472656.132812 2.078125.34375 5.375.78125 6.960938 1.578125.429687 4.875.640624 6.953125.78125 6.886718.449218 15.480468 1 19.480468 7.921874 3.960938 6.839844.183594 14.496094-2.832031 20.640626-.9375 1.902343-2.433593 4.925781-2.832031 6.535156 1.152344 1.136718 3.808594 2.902344 5.496094 4.03125 5.808594 3.863281 13.03125 8.6875 13.03125 16.800781s-7.222656 12.929687-13.03125 16.800781c-1.6875 1.128906-4.34375 2.894532-5.496094 4.03125.40625 1.609375 1.894531 4.632813 2.832031 6.542969 3.023438 6.144531 6.800781 13.800781 2.832031 20.648437-4 6.914063-12.578124 7.472657-19.472656 7.914063-2.078125.132813-5.375.34375-6.960937.78125-.429688 1.578125-.640625 4.875-.78125 6.953125-.449219 6.886719-1 15.480469-7.921875 19.480469-2.113282 1.214843-4.296875 1.703125-6.496094 1.703125-4.925781 0-9.894531-2.449219-14.152344-4.535156-1.902344-.9375-4.917968-2.425782-6.535156-2.832032-.390625.398438-.855469.984375-1.320312 1.609375 15.039062 49.839844 44.351562 94.671875 84.496093 128.390625v-414.96875c-40.144531 33.71875-69.457031 78.550782-84.496093 128.394532zm0 0"/><path d="m32.175781 230.671875c0-18.152344-12.457031-33.847656-29.449219-38.527344-1.65625 11.960938-2.550781 24.078125-2.550781 36.3125v4.4375c0 12.234375.894531 24.351563 2.550781 36.304688 16.992188-4.679688 29.449219-20.375 29.449219-38.527344zm0 0"/><path d="m112.175781 38.617188c0 6.566406 7.398438 10.742187 19.578125 16.832031 4.039063 2.015625 8.359375 4.238281 12.421875 6.816406v-47.21875c-3.9375 2.480469-8.207031 4.640625-12.421875 6.753906-12.179687 6.085938-19.578125 10.253907-19.578125 16.816407zm0 0"/><path d="m236.808594 310.984375c-4.25 2.09375-9.214844 4.535156-14.152344 4.535156-2.191406 0-4.382812-.488281-6.496094-1.710937-6.914062-3.992188-7.472656-12.578125-7.914062-19.472656-.140625-2.078126-.351563-5.375-.78125-6.953126-1.585938-.4375-4.878906-.648437-6.960938-.78125-6.886718-.449218-15.472656-1-19.472656-7.914062-3.96875-6.847656-.191406-14.503906 2.832031-20.648438.9375-1.910156 2.433594-4.933593 2.832031-6.542968-1.152343-1.136719-3.808593-2.902344-5.496093-4.03125-5.800781-3.855469-13.023438-8.679688-13.023438-16.792969s7.222657-12.929687 13.03125-16.800781c1.6875-1.128906 4.34375-2.894532 5.496094-4.03125-.40625-1.609375-1.894531-4.632813-2.832031-6.535156-3.023438-6.152344-6.800782-13.800782-2.832032-20.648438 3.992188-6.914062 12.578126-7.472656 19.472657-7.914062 2.082031-.140626 5.375-.351563 6.953125-.78125.4375-1.585938.648437-4.882813.78125-6.960938.449218-6.886719 1-15.472656 7.914062-19.472656 6.855469-3.953125 14.496094-.199219 20.648438 2.832031 1.902344.9375 4.925781 2.425781 6.542968 2.832031.390626-.398437.855469-.984375 1.320313-1.605468-15.039063-49.84375-44.351563-94.675782-84.496094-128.394532v414.960938c40.144531-33.71875 69.457031-78.550782 84.496094-128.390625-.464844-.625-.929687-1.210938-1.320313-1.609375-1.625.414062-4.640624 1.894531-6.542968 2.832031zm0 0"/><path d="m208.175781 230.671875c0-25.976563 18.222657-48.320313 42.808594-54.328125-.550781-2.75-1.257813-5.457031-1.886719-8.183594-.511718.207032-.945312.535156-1.496094.679688-6.113281 1.625-12.363281-1.414063-17.859374-4.128906-1.40625-.6875-3.429688-1.6875-5.015626-2.3125-.261718 1.722656-.414062 4.035156-.511718 5.632812-.414063 6.359375-.832032 12.9375-5.285156 17.394531-4.449219 4.445313-11.027344 4.871094-17.378907 5.277344-1.605469.113281-3.917969.257813-5.640625.511719.625 1.585937 1.625 3.609375 2.3125 5.015625 2.707032 5.496093 5.777344 11.714843 4.128906 17.859375-1.597656 5.980468-7.015624 9.597656-12.253906 13.09375-1.433594.953125-3.523437 2.34375-4.898437 3.488281 1.375 1.144531 3.472656 2.527344 4.898437 3.488281 5.238282 3.496094 10.65625 7.113282 12.253906 13.105469 1.640626 6.140625-1.421874 12.359375-4.128906 17.847656-.6875 1.40625-1.6875 3.429688-2.3125 5.015625 1.722656.261719 4.035156.414063 5.632813.511719 6.359375.414063 12.9375.832031 17.394531 5.289063 4.445312 4.445312 4.871094 11.023437 5.277344 17.375.113281 1.605468.257812 3.917968.511718 5.640624 1.585938-.625 3.609376-1.625 5.015626-2.3125 5.503906-2.710937 11.714843-5.761718 17.859374-4.128906.542969.144532.984376.472656 1.496094.679688.636719-2.726563 1.335938-5.441406 1.886719-8.183594-24.585937-6.007812-42.808594-28.351562-42.808594-54.328125zm0 0"/><path d="m253.625 192.152344c-16.992188 4.671875-29.449219 20.367187-29.449219 38.519531s12.457031 33.847656 29.449219 38.527344c1.65625-11.960938 2.550781-24.070313 2.550781-36.304688v-4.4375c0-12.234375-.894531-24.351562-2.550781-36.304687zm0 0"/><path d="m112.175781 230.566406c0 6.578125 7.398438 10.753906 19.578125 16.839844 4.039063 2.027344 8.359375 4.25 12.421875 6.824219v-47.328125c-4.054687 2.578125-8.382812 4.800781-12.421875 6.824218-12.179687 6.089844-19.578125 10.257813-19.578125 16.839844zm0 0"/><path d="m124.601562 165.734375c-4.042968-2.015625-8.363281-4.238281-12.425781-6.824219v47.320313c4.054688-2.574219 8.382813-4.796875 12.425781-6.824219 12.175782-6.078125 19.574219-10.253906 19.574219-16.832031 0-6.574219-7.398437-10.75-19.574219-16.839844zm0 0"/><path d="m124.601562 69.761719c-4.042968-2.019531-8.363281-4.242188-12.425781-6.816407v47.3125c4.054688-2.578124 8.382813-4.800781 12.425781-6.824218 12.175782-6.089844 19.574219-10.265625 19.574219-16.839844 0-6.578125-7.398437-10.746094-19.574219-16.832031zm0 0"/><path d="m112.175781 134.585938c0 6.574218 7.398438 10.757812 19.578125 16.839843 4.039063 2.015625 8.359375 4.238281 12.421875 6.820313v-47.316406c-4.054687 2.574218-8.382812 4.796874-12.421875 6.824218-12.179687 6.078125-19.578125 10.246094-19.578125 16.832032zm0 0"/></svg>